<svg height="14" viewBox="0 0 71 14" width="71" xmlns="http://www.w3.org/2000/svg"><g fill="none" fill-rule="evenodd"><path d="m70.3395654 4.16327083h-1.9365058v-.30325594c.0779801-.1407974.1732891-.29892371.2859271-.4700467.1169701-.17328911.2361064-.34657822.3595749-.51770122.1256346-.16895688.2491031-.33141542.3660732-.48087727.1191363-.15379409.2209436-.27726258.3097543-.38556827h-1.2520138v-.37906992h1.826034v.34007987c-.0671496.07581399-.1581264.18195357-.2707643.32058485-.1083057.13213295-.2317742.28809315-.3595749.4527178-.1299668.16462465-.2577675.34007987-.3855682.51986732-.1299669.18195357-.2404387.35740879-.3400799.52203344h1.3971434zm-2.796453-1.97332972c-.0931429.10180735-.1884519.19928247-.2837609.30108982-.0974751.09747513-.1862858.19061802-.2729303.27942869.0974751.07364787.2014486.16679077.3119204.27726258.1061395.1104718.2144452.22960806.3205848.35740878.1083057.12780072.207947.25993366.3010898.3899005.0953091.13429906.1732892.25343532.2382726.36823935h-.5306979c-.0693157-.11480403-.1472958-.22744195-.2382725-.34874433-.0866446-.11913626-.1819536-.23177418-.2772626-.34224599-.0996413-.10830569-.1992825-.20794693-.3010898-.30108982-.0996413-.08664456-.1949503-.16462466-.2880932-.22744196v1.2195221h-.4505517v-3.70622081l.4505517-.07798009v2.30907737c.0779801-.07581399.1667908-.16029243.2599337-.25776755.0931429-.0931429.1862858-.19061802.2772625-.28592703.0909768-.09747513.1776214-.19061802.2577676-.27942869.0844784-.08881067.1537941-.16895688.210113-.23827252h.532864c-.0758139.08014621-.1559602.17112299-.2426047.266432-.0888107.09964124-.1797875.19711636-.2750965.2967576zm-2.2224328 1.9386719c-.0606512.06498342-.1386313.09747512-.2404386.09747512-.0996413 0-.1797875-.0324917-.2382725-.09747512-.056319-.0628173-.0888107-.13863129-.0888107-.22744195 0-.08881067.0324917-.16462466.0888107-.22960807.058485-.06714953.1386312-.09747513.2382725-.09747513.1018073 0 .1797874.0303256.2404386.09747513.056319.06498341.0888107.1407974.0888107.22960807 0 .08881066-.0324917.16462465-.0888107.22744195z" fill="#486165"/><g transform="translate(0 1.766994)"><g fill="#486165"><path d="m32.7774183 4.30873892c.2945914-.08014622.6801597-.171123 1.1545386-.27509646.4765451-.10180736 1.0873892-.15162797 1.8433629-.15162797 1.0007446 0 1.7242267.29242537 2.1726122.87077777.0519868-.04115617.151628-.11047181.2989238-.20578082.1472957-.09747512.3357476-.19495025.5588573-.2967576.2252759-.10397346.4873756-.1884519.7884655-.26209978.3010898-.06931564.6346713-.10613957 1.0007446-.10613957.6021796 0 1.0895552.08881066 1.4621268.266432.3725716.17978745.6606647.42889054.8664456.74730928.2014486.32491708.3400798.71048535.4115616 1.16103703.0693156.44838557.1083057.93576118.1083057 1.46645908v4.42103842h-.9942463v-4.09828746c0-.51986732-.0259933-.97258512-.0693156-1.35598727-.0454884-.38340215-.1386313-.69532255-.2750965-.94875787-.1386313-.24910309-.3357476-.437555-.5913491-.56535572-.2534353-.12780071-.5848507-.19278413-.9942462-.19278413-.3054221 0-.5826846.02815948-.8339538.08664455-.2512693.05415285-.4657145.12346849-.6498342.20578082-.1819536.08231233-.3357477.16245854-.4483856.24477087-.1213024.08231232-.2057808.1407974-.2577675.18195356.0931429.266432.1624585.5631896.2079469.89677114.0498206.33141542.0693157.68015975.0693157 1.0483991v4.49685241h-.9942463v-4.09828746c0-.51986732-.0216611-.97258512-.0693157-1.35598727-.0433222-.38340215-.1386312-.69532255-.2837609-.94875787-.1407974-.24910309-.3444121-.437555-.6021796-.56535572-.2620998-.12780071-.6043458-.19278413-1.0354024-.19278413-.4765451 0-.8837745.02599337-1.2130238.0779801-.3314154.04982062-.5458607.09747512-.6368375.13646517v6.94672718h-.9942462z"/><path d="m48.2257091 11.2257903c.3899005 0 .7256481-.0151628 1.0180735-.0389901.2902592-.0238272.5371962-.0563189.7386448-.0974751v-2.78778851c-.1104718-.04982062-.2880931-.10180735-.532864-.16029243-.2447709-.05198673-.5805185-.08447844-1.0094091-.08447844-.2447708 0-.4982062.01949503-.7646382.05631896-.266432.03465782-.5112028.11047181-.7364787.22960807-.2231097.11913626-.4072294.27726257-.5501929.48087728-.1407974.2036147-.2122791.47221282-.2122791.81229269 0 .29459149.0454883.54586068.1451296.74730928.095309.2057808.2339403.3682394.4115616.4895417.1797875.1256346.3920666.2144453.6433358.2685982.2512692.0563189.532864.0844784.8491167.0844784m-.0909768-7.37561769c.5198673 0 .9595884.07581399 1.3213294.22094362.3639072.14946185.6563325.35307655.8816084.61301022.2231097.26209977.3877344.56968794.4873756.92493061.1039735.35740879.1559602.74730928.1559602 1.16320314v4.9885602c-.1039735.0324917-.2534353.0628173-.4440534.0996413-.1927841.0368239-.420226.0736478-.6758275.114804-.2534353.0411562-.5350301.0736479-.8469505.1018073-.3119204.0216612-.6303391.036824-.9552562.036824-.4202261 0-.8036282-.0454884-1.1567048-.1386313-.3509104-.0909768-.6584986-.2382725-.9162662-.4353889-.2599336-.1992825-.4678806-.4527178-.6130102-.7668043-.1472957-.3097543-.2231097-.6888242-.2231097-1.13720978 0-.42889054.0844784-.7971299.2426047-1.10255195.1667908-.30758817.3942328-.55885738.6909904-.75813985.2945914-.19928247.6498341-.3444121 1.0570635-.43538889.4050633-.09314289.8512828-.13863128 1.3299939-.13863128.1451297 0 .2924254.00866445.4505517.02382725s.3119204.03682394.4613823.06065119c.1451296.02382725.2729303.05198673.381236.07581398.1061396.02815948.1819536.04982062.2187775.06931565v-.49170785c0-.27293034-.0173289-.54152846-.0584851-.80146213-.03899-.25993366-.1299668-.49170784-.2685981-.703987-.1342991-.20794693-.3292493-.37690381-.5805185-.50253841-.2512692-.12996683-.5783524-.19278414-.9877479-.19278414-.5805185 0-1.0137413.04115617-1.2975022.12346849-.2880932.08014622-.5003723.14729575-.628173.19711636l-.1386313-.87077777c.1732891-.08231232.4397211-.15596019.8036282-.23177418.361741-.07148176.799296-.10613958 1.3083328-.10613958"/><path d="m55.9637176 3.88136465c.3249171 0 .6325052.02599337.9270967.07364787.2880932.05415285.4917079.10613958.6021797.15379409l-.1992825.8599472c-.0801462-.04115617-.2491031-.08447844-.4960401-.13213295-.2491031-.04548839-.5783524-.06714953-.9877479-.06714953-.4288905 0-.7733026.0303256-1.0310702.09097678-.2599336.06065119-.4332228.11263793-.513369.15162797v6.93373042h-.9964123v-7.54457452c.2556014-.11263792.6086779-.22527584 1.0570635-.34441211.4483856-.11697014.9920802-.17545522 1.6375821-.17545522"/><path d="m60.7337169 7.63827252c.3595749.25343533.7213159.5458607 1.0917214.87944223.3682394.33358153.7278143.69532255 1.0830569 1.0787247.3574088.38990049.6931565.78846545 1.0115752 1.19786095.3140865.4093955.5826846.7906316.8057944 1.1502065h-1.1956949c-.2404386-.4007311-.5155351-.7971299-.8339538-1.1848643-.3162527-.3834022-.6476681-.7494754-.9942463-1.09172139-.3465782-.34007988-.6931564-.64983416-1.0419008-.93359507-.3444121-.27942869-.6541663-.49170785-.9227645-.63250525v3.84268601h-.9942462v-11.6883504l.9942462-.18411968v7.37128546c.2122792-.18195357.4787112-.43322277.7971299-.74730928.3162527-.31408651.6411697-.63250525.9682529-.94875787.3314155-.31841874.6411697-.62600691.9335951-.92709673.2924254-.29892372.5393624-.56318961.7386448-.78629933h1.2130238c-.2317742.24693698-.5025384.51770121-.8057944.81662492-.3010898.30108983-.6195085.60867799-.9465917.93576119-.3270832.32058485-.6541664.6411697-.970419.95525621-.3205849.31192039-.6303392.61301022-.931429.89677113"/></g><path d="m6.72686658 10.2062005v1.6722399h-6.72578352v-10.63995126h1.93433967v8.96771136z" fill="#007486"/><path d="m12.8972585 7.07335003c0-.25560143-.0368239-.49820619-.1083057-.72998037-.0714817-.22744195-.1754552-.42889054-.3140865-.59784742-.1386313-.16679077-.3075882-.30108983-.5068706-.39856495-.1992825-.09747513-.437555-.14512963-.7148176-.14512963-.285927 0-.5371962.05198673-.7494754.16029242-.2166114.1083057-.3985649.24693698-.54586069.42239221-.14946186.1732891-.26426589.37257158-.34657822.60001353-.08231232.22310973-.13863128.45488391-.16895688.68882421zm-5.38929126.82962161c0-.70615312.10613958-1.32566168.31408651-1.85852569.21011304-.53286401.48954173-.97475124.83828606-1.3278278.34657822-.35307655.74730928-.61950856 1.19786096-.79712989.45055173-.17978745.91193393-.26859812 1.37981453-.26859812 1.1068842 0 1.9689975.34224599 2.5885061 1.02890408.6195085.68449198.9270967 1.70906383.9270967 3.06938333 0 .10180735-.0021661.21661139-.0064984.34657822-.0043322.1256346-.0108305.24260475-.0216611.3444121h-5.29831449c.05198674.64550193.27726258 1.14370812.68449199 1.49678468.4028972.35307655.989914.52853175 1.7567183.52853175.4505517 0 .8621133-.03899 1.236851-.1213023.3747377-.0801463.6671631-.1689569.8816084-.2599337l.2447708 1.5184458c-.1018073.0519867-.2426047.1061396-.420226.1624585-.1797875.0541529-.3855683.1061396-.6130103.151628-.2317741.0476545-.4808772.0844785-.7451431.1169702-.266432.0303256-.5393624.0454884-.8144588.0454884-.7061532 0-1.3191634-.1039735-1.84336293-.3140866-.52203344-.2122791-.95092398-.5003723-1.28883774-.87511-.34007988-.3747377-.58918297-.8144588-.75164151-1.32132941-.16462466-.50687064-.24693698-1.06139579-.24693698-1.66574155z" fill="#007486"/><path d="m16.719583 4.10988966c.3574088-.10180735.8231233-.19928247 1.3971435-.29242537.571854-.09097678 1.2065254-.13646517 1.9018479-.13646517.6563325 0 1.2043593.09097678 1.6440804.26859812.4397212.17978745.7906316.42889054 1.0527314.75164151.2620998.32275096.4462194.71265146.5501929 1.16753536.1083057.45488391.1646247.95525622.1646247 1.49678468v4.51418131h-1.8606919v-4.22175594c0-.43105666-.0259933-.79496378-.0823123-1.09821972-.0563189-.30325594-.1494618-.54802681-.2772626-.73647872-.1278007-.19061802-.3010898-.32708319-.5220334-.41372774-.2209436-.08664456-.4895417-.13213295-.8057943-.13213295-.2339403 0-.4808773.0151628-.7364788.04765451-.2556014.02815948-.4462194.05415284-.5696879.07581398v6.47884658h-1.8563596z" fill="#007486"/><path d="m27.7130441 10.5447641c.4917078 0 .8491166-.0584851 1.0743924-.1776213.2252759-.1191363.3357477-.3184188.3357477-.60651192 0-.26426589-.1169702-.4852095-.3595749-.66066473-.2404387-.1732891-.6368375-.36174101-1.1891965-.56752183-.3379138-.12130237-.6476681-.25343532-.9292629-.38990049-.2815948-.1407974-.5241995-.30108983-.7299803-.4852095-.2036147-.18411968-.3660733-.40722941-.4830434-.66932919-.1169702-.25993366-.1776214-.5783524-.1776214-.95742232 0-.73864483.2729304-1.31699722.8144588-1.74372165.5415285-.42455832 1.2801733-.63683748 2.2116023-.63683748.4700467 0 .9205984.04332228 1.351655.12996683.4288906.08664456.7516416.171123.9660868.25343532l-.3357476 1.50328302c-.2057808-.09097678-.4678806-.17545522-.7862994-.25126921-.3162526-.0779801-.6844919-.11480403-1.1025519-.11480403-.3790699 0-.6866581.0628173-.9227645.19061802-.2339403.12780072-.3530766.32708319-.3530766.59134908 0 .13213295.0238273.25126921.0693157.35307656.0476545.10397346.1256346.19928247.2382725.28592703.1126379.08664455.2620998.17328911.4440533.25993366.1841197.08664456.4115617.17545522.6758276.26859812.4397211.16245854.8144588.32491708 1.1220469.4852095.3054221.15812632.5588574.33574765.760306.53719624.1992825.19711636.3444121.42672443.4353889.68232586.0931429.25560144.1407974.56318961.1407974.92059839 0 .76680432-.285927 1.34948892-.8534489 1.74372162-.5675218.3920666-1.3798145.589183-2.4347119.589183-.703987 0-1.273675-.0584851-1.7025655-.1754552-.4288906-.1191363-.7321465-.2122792-.9054356-.2837609l.3227509-1.5509376c.2750965.112638.6065119.2209437.9899141.322751.3834021.1018074.818791.1537941 1.312665.1537941" fill="#007486"/></g></g></svg>