<svg width="154" height="40" fill="none" xmlns="http://www.w3.org/2000/svg"><path fill-rule="evenodd" clip-rule="evenodd" d="M13.405 11.587v5.035h18.308V26.72H13.405v11.803A20.623 20.623 0 0 0 17.815 40c8.916-1.837 17.29-9.75 17.552-23.803l.092-4.577-22.054-.033Z" fill="#266F99"/><path d="M35.466 11.587 35.636.7A224.901 224.901 0 0 0 17.827 0C11.83 0 5.888.235 0 .706l.111 8.5.165 6.978S.334 22.66 2.52 27.301a21.488 21.488 0 0 0 10.906 11.23V26.725h18.306V16.63H13.405v-5.036l22.06-.007ZM52.886 7.736v2.615h5.511v2.93h-5.51v4.905h-3.584V4.806h9.528v2.93h-5.945Zm15.853 6.913h-2.777v3.549H62.38V4.806h6.916a9.043 9.043 0 0 1 2.625.353 2.584 2.584 0 0 1 1.477 1.196c.372.78.541 1.642.492 2.505.015.7-.025 1.4-.118 2.093a2.17 2.17 0 0 1-.657 1.23 3.771 3.771 0 0 1-1.758.804v.143a2.63 2.63 0 0 1 1.771.654 2.263 2.263 0 0 1 .656 1.727v2.694H70.21v-1.857c0-1.134-.49-1.7-1.47-1.7Zm-2.777-3.108h2.777a2.08 2.08 0 0 0 1.016-.183.826.826 0 0 0 .395-.588c.063-.433.09-.87.078-1.308a1.801 1.801 0 0 0-.301-1.216 1.65 1.65 0 0 0-1.188-.314h-2.777v3.61Zm15.362-3.805v2.445h5.735v2.48h-5.735v2.614h6.234v2.93h-9.843v-13.4h9.691v2.931h-6.082Zm13.82 0v2.445h5.733v2.48h-5.735v2.614h6.234v2.93h-9.841v-13.4h9.691v2.931h-6.082Zm10.116 10.462V4.806h6.805a7.902 7.902 0 0 1 3.091.51c.767.319 1.39.908 1.751 1.655.409.957.595 1.994.545 3.033v2.806a8.557 8.557 0 0 1-.46 3.06 3.27 3.27 0 0 1-1.508 1.753 6.26 6.26 0 0 1-2.928.576h-7.296v-.001Zm3.583-10.28v7.194h3.13c1.207 0 1.811-.761 1.811-2.282v-2.826a3.564 3.564 0 0 0-.184-1.307 1.094 1.094 0 0 0-.571-.621 2.69 2.69 0 0 0-1.05-.17l-3.136.012Zm18.288 10.392a14.422 14.422 0 0 1-2.626-.203 5.21 5.21 0 0 1-1.915-.732 3.463 3.463 0 0 1-1.26-1.505 5.962 5.962 0 0 1-.447-2.471V9.612a5.95 5.95 0 0 1 .447-2.472 3.44 3.44 0 0 1 1.26-1.504 5.253 5.253 0 0 1 1.915-.733 16.584 16.584 0 0 1 5.19 0 5.287 5.287 0 0 1 1.916.733c.556.37.991.892 1.254 1.505a5.96 5.96 0 0 1 .446 2.471v3.78a5.95 5.95 0 0 1-.446 2.473 3.44 3.44 0 0 1-1.26 1.503 5.21 5.21 0 0 1-1.916.733c-.844.145-1.701.214-2.558.21Zm0-3.106a6.212 6.212 0 0 0 1.541-.164 1.163 1.163 0 0 0 .748-.607 3.36 3.36 0 0 0 .236-1.446V9.985a4.11 4.11 0 0 0-.131-1.183 1.226 1.226 0 0 0-.42-.654 1.62 1.62 0 0 0-.748-.282 8.832 8.832 0 0 0-1.226-.065 6.138 6.138 0 0 0-1.523.137 1.144 1.144 0 0 0-.741.595 3.51 3.51 0 0 0-.263 1.446v3.014c-.014.497.075.991.263 1.452a1.128 1.128 0 0 0 .741.602 6.05 6.05 0 0 0 1.523.15v.007Zm13.175-7.272.36 10.26h-3.582V4.806h5.676l2.565 8.41h.125l2.435-8.41h5.82v13.392h-3.576l.36-10.26h-.124l-3.386 10.26h-3.097l-3.465-10.267h-.111Zm-86.502 17.57v1.146H51.35v8.24h-1.48V26.66h-1.432v-1.157h1.431v-1.38a2.766 2.766 0 0 1 .708-2.171 3.48 3.48 0 0 1 2.303-.614l.88.052v1.157a5.525 5.525 0 0 0-.768-.053h-.25a1.462 1.462 0 0 0-1.121.347c-.242.34-.354.756-.315 1.172v1.49h2.5-.002Zm3.807-4.002v1.537h-1.43v-1.536h1.43Zm0 4.036v9.351h-1.43v-9.351h1.43Zm4.652 3.623v5.728h-1.431v-9.351h1.313v1.196c.32-.513.806-.902 1.377-1.105a5.541 5.541 0 0 1 1.824-.248c1.278 0 2.17.235 2.678.706.507.471.76 1.343.76 2.616v6.192h-1.397v-6.056a2.805 2.805 0 0 0-.426-1.856c-.29-.297-.91-.445-1.864-.445a3.19 3.19 0 0 0-2.127.608 2.53 2.53 0 0 0-.707 2.015Zm16.134 1.163v-1.307c0-1.13-.161-1.84-.485-2.132-.324-.293-1.076-.439-2.257-.439a3.803 3.803 0 0 0-1.759.276 1.237 1.237 0 0 0-.466 1.15v.248H72c0-1.168.352-1.942 1.056-2.321a6.101 6.101 0 0 1 2.672-.412c1.456 0 2.464.185 3.024.555.717.463 1.076 1.38 1.076 2.747V34.9h-1.313l.053-1.176a2.35 2.35 0 0 1-1.076 1.117 6.171 6.171 0 0 1-2.08.241 5.14 5.14 0 0 1-2.724-.534c-.656-.437-.983-1.26-.983-2.466 0-1.13.321-1.903.963-2.322a4.95 4.95 0 0 1 2.626-.516 7.022 7.022 0 0 1 2.21.228c.393.165.712.467.893.85Zm0 1.838c0-.81-.192-1.319-.576-1.524a6.476 6.476 0 0 0-2.546-.314 3.207 3.207 0 0 0-1.608.289 1.457 1.457 0 0 0-.551 1.307 2.1 2.1 0 0 0 .485 1.608c.497.337 1.096.49 1.693.432a6.86 6.86 0 0 0 2.231-.228 1.512 1.512 0 0 0 .872-1.57Zm6.077-3.001v5.728h-1.43v-9.351h1.311v1.196a2.686 2.686 0 0 1 1.379-1.105 5.54 5.54 0 0 1 1.823-.248c1.278 0 2.17.235 2.678.706.507.471.76 1.343.76 2.616v6.192h-1.43v-6.056a2.805 2.805 0 0 0-.426-1.856c-.29-.297-.91-.445-1.864-.445a3.19 3.19 0 0 0-2.126.608 2.529 2.529 0 0 0-.675 2.015Zm16.226 2.34h1.378c0 1.404-.317 2.364-.952 2.878-.634.514-1.666.745-3.097.693-1.566 0-2.63-.34-3.189-1.02-.56-.68-.839-1.953-.839-3.82 0-1.856.278-3.129.833-3.818.555-.688 1.61-1.033 3.163-1.033a5.45 5.45 0 0 1 2.847.569 2.548 2.548 0 0 1 1.076 2.341v.3h-1.357a2.143 2.143 0 0 0-.447-1.588 3.373 3.373 0 0 0-2.12-.465c-1.054 0-1.742.218-2.066.654-.324.436-.485 1.43-.485 2.982 0 1.513.17 2.509.511 2.989.342.479 1.032.72 2.075.726 1.1 0 1.822-.157 2.164-.472.341-.314.509-.952.505-1.916Zm12.244-1.02h-6.739c0 1.417.169 2.349.505 2.793.338.444 1.056.662 2.16.654a4.67 4.67 0 0 0 2.145-.315 1.432 1.432 0 0 0 .485-1.307v-.262h1.43c0 1.252-.344 2.091-1.036 2.518-.551.344-1.56.517-3.024.517-1.575 0-2.654-.34-3.236-1.02-.581-.681-.869-1.967-.866-3.859 0-1.81.311-3.064.932-3.766.622-.702 1.671-1.053 3.15-1.053 1.456 0 2.502.327 3.136.98.634.655.952 1.79.952 3.407l.006.713Zm-1.43-1.092a3.416 3.416 0 0 0-.571-2.256 2.736 2.736 0 0 0-2.087-.653 2.711 2.711 0 0 0-2.08.653 3.438 3.438 0 0 0-.564 2.256h5.302Z" fill="#5DA6D0"/></svg>