<svg width="37" height="52" fill="none" xmlns="http://www.w3.org/2000/svg"><path d="M19.622 1.514c-7.041 0-13.043 4.444-15.358 10.68l8.484 3.52v.002a7.209 7.209 0 1 1-.276 3.078L3.275 16.91c-.02.324-.03.65-.03.98v24.843c0 2.821.497 4.597-1.28 7.523 6.06-.836 10.45-6.066 10.45-15.99V32.6a16.315 16.315 0 0 0 7.208 1.668C28.667 34.268 36 26.935 36 17.89c-.001-9.044-7.334-16.377-16.378-16.377Z" stroke="#f0882d" stroke-width="2" stroke-miterlimit="10" stroke-linecap="round" stroke-linejoin="round"/></svg>