<svg width="18" height="18" viewBox="0 0 18 18" fill="none" xmlns="http://www.w3.org/2000/svg">
<path fill-rule="evenodd" clip-rule="evenodd" d="M13.4523 12.3943L17.7795 16.7217C18.0735 17.0117 18.0735 17.4895 17.7795 17.7795C17.4857 18.0735 17.0118 18.0735 16.718 17.7795L12.3906 13.4558C11.0829 14.5286 9.41138 15.1714 7.58569 15.1714C3.39429 15.1714 0 11.7734 0 7.58569C0 3.39795 3.39429 0 7.58569 0C11.7734 0 15.1714 3.39795 15.1714 7.58569C15.1714 9.41138 14.5249 11.0864 13.4523 12.3943ZM1.5061 7.58569C1.5061 10.9358 4.23181 13.6616 7.58569 13.6616C10.9359 13.6616 13.6653 10.9358 13.6653 7.58569C13.6653 4.2356 10.9359 1.5061 7.58569 1.5061C4.23181 1.5061 1.5061 4.2356 1.5061 7.58569Z" fill="white"/>
</svg>
