<svg width="22" height="20" viewBox="0 0 22 20" fill="none" xmlns="http://www.w3.org/2000/svg">
<path fill-rule="evenodd" clip-rule="evenodd" d="M21.9336 2.62378V8.74487C21.9336 10.1941 20.7715 11.3701 19.3223 11.3701H12.2699C12.132 11.3701 12.0184 11.3691 11.9235 11.3672C11.824 11.3652 11.7119 11.3645 11.6682 11.3691C11.6566 11.377 11.6406 11.3894 11.6215 11.4055C11.6099 11.415 11.5972 11.4258 11.5836 11.4377C11.5319 11.4829 11.467 11.5422 11.4037 11.6006L11.3185 11.6782L11.2609 11.7305L9.2655 13.5491C9.10645 13.6943 8.87097 13.7319 8.67383 13.645C8.47668 13.5581 8.33838 13.3628 8.33838 13.1475V7.38208H2.64172C1.79199 7.38208 1.08765 8.07837 1.08765 8.92798V15.0488C1.08765 15.8984 1.79211 16.5664 2.64172 16.5664H10.5193C10.6549 16.5664 10.7819 16.6287 10.882 16.7202L12.5076 18.219V13.0503C12.5076 12.75 12.751 12.5066 13.0514 12.5066C13.3517 12.5066 13.5952 12.75 13.5952 13.0503V19.4514C13.5952 19.5752 13.5546 19.6914 13.4825 19.7842C13.4292 19.853 13.3586 19.9092 13.2748 19.946C13.2042 19.9773 13.1334 19.9895 13.0593 19.9895C12.9261 19.9895 12.7948 19.9348 12.6926 19.8416L10.3085 17.6541H2.64172C1.19238 17.6541 0 16.498 0 15.0488V8.92798C0 7.47876 1.19238 6.29443 2.64172 6.29443H8.33838V2.62378C8.33838 1.17456 9.53992 0.010498 10.9891 0.010498H19.3223C20.7715 0.010498 21.9336 1.17456 21.9336 2.62378ZM15.9443 6.08545C16.2976 5.78906 16.7814 5.38501 16.7814 4.72046C16.7814 3.82397 16.0521 3.09692 15.1556 3.09692C14.2593 3.09692 13.53 3.82617 13.53 4.72241C13.53 5.02295 13.7734 5.26636 14.0739 5.26636C14.3741 5.26636 14.6177 5.02295 14.6177 4.72241C14.6177 4.55811 14.6917 4.41089 14.8081 4.31226C14.902 4.23267 15.0233 4.18457 15.1558 4.18457C15.4524 4.18457 15.6937 4.42578 15.6937 4.72241C15.6937 4.8689 15.516 5.02905 15.245 5.25659L15.2311 5.26831C14.8882 5.55615 14.47 5.90723 14.4746 6.48828C14.4771 6.78711 14.7201 7.01953 15.0183 7.01953H15.0228C15.3232 7.01953 15.5647 6.77979 15.5623 6.47949C15.5615 6.40674 15.7854 6.21875 15.9227 6.10376L15.9443 6.08545ZM14.5015 8.06519C14.5015 7.76489 14.7329 7.52148 15.0332 7.52148C15.3336 7.52148 15.577 7.76489 15.577 8.06519C15.577 8.36572 15.3335 8.61133 15.0332 8.61133C14.7329 8.61133 14.5015 8.36987 14.5015 8.06958V8.06519ZM4.07202 11.3096C3.77161 11.3096 3.5282 11.553 3.5282 11.8533C3.5282 12.1538 3.77161 12.3972 4.07202 12.3972H4.11731C4.41772 12.3972 4.66113 12.1538 4.66113 11.8533C4.66113 11.553 4.41772 11.3096 4.11731 11.3096H4.07202ZM5.57922 11.467C5.62463 11.4219 5.67798 11.3848 5.73694 11.3579C5.80554 11.3269 5.88184 11.3096 5.96204 11.3096H6.00732C6.30762 11.3096 6.55103 11.553 6.55103 11.8533C6.55103 12.1538 6.30762 12.3972 6.00732 12.3972H5.96204C5.66162 12.3972 5.41821 12.1538 5.41821 11.8533C5.41821 11.7021 5.47986 11.5654 5.57922 11.467ZM19.3223 1.09814C20.1719 1.09814 20.8459 1.77417 20.8459 2.62378V8.74487C20.8459 9.59448 20.1719 10.2825 19.3223 10.2825H12.2699C12.141 10.2825 12.0352 10.2817 11.9464 10.28C11.2952 10.2666 11.1674 10.3401 10.6681 10.8C10.6267 10.8384 10.5701 10.8806 10.5194 10.9268L9.42603 11.915V6.84351V2.62378C9.42603 1.77417 10.1396 1.09814 10.9893 1.09814H19.3223Z" fill="lightgray"/>
</svg>
