<svg width="22" height="20" viewBox="0 0 22 20" fill="none" xmlns="http://www.w3.org/2000/svg">
<path fill-rule="evenodd" clip-rule="evenodd" d="M8.82495 1.01648H11.0125V2.07495H8.82501C8.22205 2.07495 7.73126 2.54993 7.73126 3.1333V4.19177H11.0125V5.25012H6.63751V17.951H11.0125V19.0095H2.26251C1.05603 19.0095 0.0750122 18.0602 0.0750122 16.8927V6.30859C0.0750122 5.14111 1.05603 4.19177 2.26245 4.19177C2.26245 3.89917 2.50708 3.66248 2.80939 3.66248H4.99689C5.29919 3.66248 5.54376 3.89917 5.54376 4.19177H6.63751V3.1333C6.63751 1.96582 7.61853 1.01648 8.82495 1.01648ZM2.26257 17.951H5.54382V5.25012H2.26257C1.65961 5.25012 1.16882 5.7251 1.16882 6.30847V16.8927C1.16882 17.4762 1.65961 17.951 2.26257 17.951Z" fill="lightgray"/>
<path fill-rule="evenodd" clip-rule="evenodd" d="M13.2001 1.01648H11.0125V2.07495H13.2C13.803 2.07495 14.2938 2.54993 14.2938 3.1333V4.19177H11.0125V5.25012H15.3875V17.951H11.0125V19.0095H19.7625C20.969 19.0095 21.95 18.0602 21.95 16.8927V6.30859C21.95 5.14111 20.969 4.19177 19.7626 4.19177C19.7626 3.89917 19.5179 3.66248 19.2156 3.66248H17.0281C16.7258 3.66248 16.4813 3.89917 16.4813 4.19177H15.3875V3.1333C15.3875 1.96582 14.4065 1.01648 13.2001 1.01648ZM19.7625 17.951H16.4812V5.25012H19.7625C20.3654 5.25012 20.8562 5.7251 20.8562 6.30847V16.8927C20.8562 17.4762 20.3654 17.951 19.7625 17.951Z" fill="lightgray"/>
</svg>
