<svg width="22" height="20" viewBox="0 0 22 20" fill="none" xmlns="http://www.w3.org/2000/svg">
<path d="M18.8948 1.4535L8.45395 0.0500709C7.76291 -0.0431457 7.12299 0.434801 7.02841 1.11519L6.80116 2.75109C6.77666 2.92689 6.90177 3.08903 7.08049 3.11294C7.25921 3.13733 7.42404 3.01398 7.44836 2.83819L7.67561 1.20228C7.72156 0.873202 8.03142 0.641479 8.36541 0.686957L18.8062 2.09029C19.1408 2.13549 19.3759 2.43981 19.3301 2.76879L17.2841 17.4967C17.2382 17.8258 16.929 18.0569 16.5943 18.0121L15.8549 17.9127C15.6765 17.8882 15.5114 18.0117 15.4871 18.1877C15.4628 18.3635 15.5877 18.5256 15.7666 18.5495L16.506 18.6489C16.5638 18.6566 16.6213 18.6604 16.6782 18.6604C17.3008 18.6604 17.8452 18.2071 17.9316 17.5836L19.9776 2.8557C20.0722 2.1755 19.5863 1.54653 18.8948 1.4535Z" fill="lightgray"/>
<path fill-rule="evenodd" clip-rule="evenodd" d="M4.26599 2.61536H14.8039C15.5018 2.61536 16.0698 3.17395 16.0698 3.8606V18.7256C16.0696 19.4122 15.5018 19.9708 14.8039 19.9708H4.26599C3.56805 19.9708 3 19.4122 3 18.7256V3.8606C3 3.17407 3.56787 2.61536 4.26599 2.61536ZM14.804 19.3282C15.1416 19.3282 15.4164 19.058 15.4164 18.7258L15.4163 3.86084C15.4163 3.52881 15.1416 3.25842 14.8038 3.25842H4.26593C3.92834 3.25842 3.6535 3.52869 3.6535 3.86084V18.7258C3.6535 19.0579 3.92822 19.3282 4.26593 19.3282H14.804Z" fill="lightgray"/>
<path d="M12.9632 15.0435H6.10144C5.92109 15.0435 5.77472 15.1874 5.77472 15.3648C5.77472 15.5422 5.92109 15.6862 6.10144 15.6862H12.9632C13.1437 15.6862 13.2899 15.5422 13.2899 15.3648C13.2899 15.1874 13.1435 15.0435 12.9632 15.0435Z" fill="lightgray"/>
<path d="M12.9632 10.6812H6.10144C5.92109 10.6812 5.77472 10.8251 5.77472 11.0025C5.77472 11.1799 5.92109 11.3239 6.10144 11.3239H12.9632C13.1437 11.3239 13.2899 11.1799 13.2899 11.0025C13.2899 10.8251 13.1435 10.6812 12.9632 10.6812Z" fill="lightgray"/>
<path d="M12.9632 12.8623H6.10144C5.92109 12.8623 5.77472 13.0063 5.77472 13.1837C5.77472 13.3611 5.92109 13.505 6.10144 13.505H12.9632C13.1437 13.505 13.2899 13.3611 13.2899 13.1837C13.2899 13.0063 13.1435 12.8623 12.9632 12.8623Z" fill="lightgray"/>
<path d="M12.963 8.5H6.10143C5.92108 8.5 5.77472 8.64397 5.77472 8.82136C5.77472 8.99876 5.92108 9.14272 6.10143 9.14272H12.963C13.1435 9.14272 13.2897 8.99876 13.2897 8.82136C13.2897 8.64397 13.1434 8.5 12.963 8.5Z" fill="lightgray"/>
<path d="M12.9784 5.9231H9.38421C9.20386 5.9231 9.0575 6.06706 9.0575 6.24446C9.0575 6.42185 9.20386 6.56582 9.38421 6.56582H12.9784C13.1589 6.56582 13.3051 6.42185 13.3051 6.24446C13.3051 6.06716 13.1587 5.9231 12.9784 5.9231Z" fill="lightgray"/>
</svg>
