<svg width="22" height="20" viewBox="0 0 22 20" fill="none" xmlns="http://www.w3.org/2000/svg">
<path fill-rule="evenodd" clip-rule="evenodd" d="M8.16638 8.89349V7.90076H14.3296V8.89349H11.771V14.4126H10.7191V8.89349H8.16638ZM8.16638 6.96717V5.98035H14.3296V6.96717H8.16638Z" fill="lightgray"/>
<path d="M17.0049 0.00866699H4.9609C3.75479 0.00866699 2.77536 0.995707 2.77536 2.21119V12.2583L1.39389 10.8661C1.18859 10.6592 0.859267 10.6592 0.653971 10.8661C0.448676 11.073 0.448676 11.4049 0.653971 11.6118L2.9336 13.9091C3.03625 14.0126 3.16884 14.0643 3.3057 14.0643C3.44257 14.0643 3.57515 14.0126 3.6778 13.9091L5.95743 11.6118C6.16273 11.4049 6.16273 11.073 5.95743 10.8661C5.75214 10.6592 5.42281 10.6592 5.21752 10.8661L3.83177 12.2626V2.21119C3.83177 1.57759 4.34073 1.06467 4.96945 1.06467H17.0092C17.6379 1.06467 18.1468 1.57759 18.1468 2.21119V3.67666C18.1468 3.96976 18.3821 4.20682 18.6729 4.20682C18.9637 4.20682 19.199 3.96976 19.199 3.67666V2.21119C19.1862 1.00002 18.2067 0.00866699 17.0049 0.00866699Z" fill="lightgray"/>
<path d="M18.2922 6.01284L16.0126 8.31018C15.8073 8.51708 15.8073 8.84896 16.0126 9.05585C16.1153 9.1593 16.2478 9.21102 16.3847 9.21102C16.5216 9.21102 16.6542 9.1593 16.7568 9.05585L18.1425 7.65934V17.7065C18.1425 18.3401 17.6336 18.853 17.0049 18.853H4.96087C4.33216 18.853 3.8232 18.3401 3.8232 17.7065V16.241C3.8232 15.9479 3.58796 15.7108 3.29713 15.7108C3.00629 15.7108 2.77106 15.9479 2.77106 16.241V17.7065C2.77106 18.9219 3.75049 19.909 4.9566 19.909H16.9963C18.2024 19.909 19.1819 18.9219 19.1819 17.7065V7.65934L20.5676 9.05585C20.7729 9.26274 21.1022 9.26274 21.3075 9.05585C21.5128 8.84896 21.5128 8.51708 21.3075 8.31018L19.0279 6.01284C18.8397 5.81457 18.489 5.81457 18.2922 6.01284Z" fill="lightgray"/>
</svg>
