<svg width="22" height="20" viewBox="0 0 22 20" fill="none" xmlns="http://www.w3.org/2000/svg">
<path d="M4.37175 13.7372C4.6955 13.8417 5.10991 13.9695 5.61422 14.1203C5.60807 14.1448 5.60275 14.1699 5.5983 14.1954C5.53972 14.5315 5.64815 14.841 5.89048 15.0724L5.89044 15.0724L5.89585 15.0774C6.13245 15.2967 6.43848 15.4164 6.78185 15.3564C6.80701 15.352 6.8317 15.3468 6.85593 15.3407C7.00653 15.8456 7.13413 16.2604 7.23857 16.5845C7.31175 16.8116 7.37476 16.9978 7.42718 17.1409C7.47456 17.2702 7.5263 17.4014 7.57907 17.4907C7.69952 17.6946 7.90584 17.8036 8.06391 17.8547C8.23921 17.9114 8.45426 17.9307 8.67192 17.8726L8.683 17.8696C8.78239 17.8431 8.90704 17.8098 9.02879 17.7408C9.15512 17.6691 9.25411 17.5734 9.34587 17.4821C9.57024 17.2588 9.72489 17.0402 9.78205 16.7382C9.79303 16.6802 9.79342 16.6229 9.79356 16.6011L9.79357 16.5999C9.7938 16.5667 9.79297 16.5286 9.79164 16.4884C9.78895 16.4074 9.78355 16.2989 9.77645 16.1668C9.77239 16.0912 9.76773 16.0071 9.76259 15.9141C9.7495 15.6777 9.73324 15.384 9.71565 15.0295C9.70129 14.7402 9.68004 14.2267 9.65187 13.4873C11.2616 12.0786 12.1424 11.3127 12.3087 11.1764C12.407 11.0959 12.579 10.9726 12.8308 10.804C13.7544 13.2282 14.4687 15.0851 14.9734 16.3741C15.2454 17.0687 15.4574 17.6006 15.6088 17.9681C15.6843 18.1514 15.7461 18.2972 15.7935 18.4031C15.8171 18.4556 15.839 18.5027 15.8585 18.5414L15.86 18.5444C15.8717 18.5677 15.9062 18.6364 15.9549 18.6943C16.1807 18.9622 16.5121 19.015 16.7509 18.9965C17.0001 18.9772 17.2653 18.8763 17.4688 18.6914C17.6517 18.5252 17.81 18.3555 17.9176 18.1846C18.0108 18.0366 18.1179 17.8045 18.0633 17.5418L17.3295 10.8633C17.5182 10.6717 17.6538 10.535 17.7371 10.4523C17.7617 10.428 17.7859 10.404 17.8097 10.3804C17.9265 10.2649 18.033 10.1595 18.1152 10.0718C18.1653 10.0184 18.2155 9.96186 18.2584 9.90557C18.296 9.85631 18.3548 9.77312 18.3898 9.66866C18.5363 9.23221 18.367 8.90148 18.3001 8.79229C18.2532 8.71569 18.1712 8.62848 18.1329 8.58778L18.1301 8.58481C18.0757 8.52697 18.0152 8.46555 17.9732 8.423C17.9062 8.35514 17.8121 8.26718 17.6958 8.16235L17.6766 8.14504L17.6557 8.12982C17.4544 7.98308 17.222 7.94015 17.0049 7.95103C16.9985 7.95135 16.9922 7.95174 16.9859 7.95219C16.9725 7.83934 16.959 7.72474 16.9454 7.60839C16.9169 7.36576 16.8909 7.15753 16.8674 6.98463C18.0217 5.79764 18.7959 4.91978 19.1519 4.37219C19.4039 3.98451 19.6129 3.6609 19.7556 3.37685C19.9029 3.08371 20 2.79471 20 2.47113C20 2.07708 19.8813 1.71423 19.6245 1.41618L19.616 1.40636L19.607 1.39699C19.3335 1.11094 18.967 1 18.5845 1C17.9873 1 17.4122 1.2899 16.6256 1.80243C16.0775 2.15959 15.1996 2.93907 14.0133 4.10181C13.82 4.07762 13.5949 4.05042 13.3381 4.02022C13.2265 4.0071 13.1169 3.99435 13.0093 3.98198C13.0097 3.97721 13.0099 3.97243 13.0102 3.96763C13.021 3.75059 12.9782 3.51824 12.8318 3.31697L12.8135 3.29174L12.7921 3.26899C12.679 3.14848 12.5891 3.0548 12.525 2.99144C12.4825 2.94941 12.4212 2.88883 12.3634 2.83437L12.3604 2.83156C12.3198 2.79323 12.2327 2.71106 12.1561 2.66407C12.047 2.5971 11.7161 2.42733 11.2795 2.57417C11.175 2.60932 11.0918 2.66829 11.0426 2.70585C10.9863 2.7488 10.9299 2.79915 10.8765 2.84932C10.7889 2.9316 10.6837 3.03817 10.5683 3.15505C10.5447 3.17891 10.5208 3.20319 10.4964 3.22779C10.4139 3.3112 10.2775 3.44685 10.0863 3.63557L3.41803 2.90121C3.27805 2.87246 3.15267 2.89803 3.06559 2.92781C2.96263 2.963 2.87208 3.01759 2.79801 3.07029C2.64954 3.17592 2.49232 3.32853 2.33061 3.50689C2.15951 3.69562 2.04568 3.94347 2.01115 4.18852C1.97824 4.42205 2.00737 4.77085 2.2911 5.01048C2.34296 5.05429 2.39919 5.08363 2.41772 5.09331L2.41928 5.09412C2.44893 5.10962 2.48244 5.12557 2.51676 5.14124C2.58612 5.17291 2.67804 5.21218 2.78967 5.25834C3.01395 5.35108 3.33486 5.47864 3.75101 5.6415C4.41334 5.90069 5.32533 6.25256 6.48951 6.70174C6.78946 6.81747 7.10614 6.93966 7.43961 7.06838C7.99045 7.28101 8.89368 7.63552 10.1503 8.13229C9.97923 8.38851 9.8544 8.56311 9.77317 8.66252C9.63709 8.82905 8.87218 9.71084 7.46528 11.3223C6.72705 11.2941 6.21442 11.2728 5.92552 11.2584C5.5714 11.2408 5.27809 11.2245 5.04191 11.2114C4.94906 11.2063 4.86503 11.2016 4.78962 11.1976C4.65761 11.1905 4.54927 11.185 4.46836 11.1824C4.42818 11.181 4.39007 11.1802 4.35692 11.1804L4.35565 11.1804C4.33388 11.1806 4.2765 11.181 4.2184 11.192C3.88606 11.255 3.67563 11.4606 3.49368 11.6439C3.39579 11.7425 3.30851 11.8372 3.23861 11.9489C3.16638 12.0644 3.1275 12.175 3.09483 12.2711C3.01744 12.4987 3.04936 12.7302 3.10009 12.8926C3.12736 12.9799 3.16643 13.0685 3.21832 13.1495C3.26641 13.2246 3.34553 13.3246 3.46636 13.3962C3.55568 13.449 3.68684 13.5009 3.81599 13.5483C3.95889 13.6008 4.14494 13.6639 4.37175 13.7372Z" stroke="lightgray"/>
</svg>
