<svg width="20" height="20" viewBox="0 0 20 20" fill="none" xmlns="http://www.w3.org/2000/svg">
<path d="M14.2564 12.7559C14.2074 12.472 14.3019 12.1829 14.5082 11.9818L18.3584 8.24088L13.0403 7.47068C12.7531 7.42916 12.5039 7.24995 12.375 6.98997L10 2.19424L7.62466 6.99075C7.49568 7.25013 7.24681 7.42917 6.95985 7.47067L1.64167 8.24087L5.49235 11.9818C5.69866 12.1829 5.79329 12.472 5.7443 12.7557L4.83607 18.0327L9.58762 15.5437C9.84566 15.4086 10.1544 15.4086 10.4122 15.5437L15.1641 18.0328L14.2564 12.7559ZM16.3905 18.9101C16.4649 19.3428 16.0112 19.6732 15.6223 19.4695L9.99986 16.5244L4.37774 19.4695C3.98881 19.6732 3.53501 19.3428 3.60948 18.9101L4.6829 12.6732L0.130694 8.25083C-0.184764 7.94437 -0.0112323 7.40919 0.424037 7.34616L6.71714 6.43476L9.52505 0.764765C9.7197 0.371706 10.2803 0.371706 10.475 0.764765L13.2829 6.43476L19.576 7.34616C20.0112 7.40919 20.1848 7.94434 19.8693 8.25081L15.3178 12.6731L16.3905 18.9101Z" fill="lightgray"/>
</svg>
