<svg width="22" height="20" viewBox="0 0 22 20" fill="none" xmlns="http://www.w3.org/2000/svg">
<path fill-rule="evenodd" clip-rule="evenodd" d="M18.4867 15.2695V4.38135C18.4867 2.69946 17.6904 2.10767 15.6085 1.89917L15.6083 1.21338C15.6081 0.757812 15.0172 0.422607 14.1504 0.218018C13.2836 0.0134277 11.927 0 10.9787 0C10.2065 0 8.57867 0.0285645 7.80707 0.209961C7.03546 0.391357 6.3504 0.8125 6.3504 1.25049V1.89746C6.3504 1.89746 5.86542 1.95288 5.65253 1.99023C4.09192 2.26318 3.51343 2.89868 3.51343 4.38135V15.2695C3.51343 16.5676 4.47601 17.8459 5.57928 18.1562L4.12476 19.1707C3.9303 19.3064 3.88153 19.5759 4.01587 19.7727C4.15015 19.9695 4.41669 20.0188 4.61115 19.8828L6.98291 18.2285H15.0172L17.3881 19.8828C17.5825 20.0188 17.8491 19.9695 17.9834 19.7727C18.1177 19.5762 18.069 19.3064 17.8745 19.1707L16.3814 18.1289C17.913 17.7725 18.4867 16.4873 18.4867 15.2695ZM11.0001 0.800049C14.9306 0.800049 14.8199 1.39551 14.8199 1.39551C14.8199 1.39551 14.8518 1.86914 14.8199 1.86865C14.5363 1.8645 13.9229 1.84937 13.2631 1.83301L12.6181 1.81714C11.9086 1.80005 11.2518 1.78516 11.0001 1.78516C10.6413 1.78516 9.45685 1.80029 8.47278 1.81274L8.38141 1.81421C7.79199 1.82129 7.28821 1.82788 7.09998 1.8291V1.39551C7.09998 1.39551 7.06946 0.800049 11.0001 0.800049ZM15.4921 17.363C17.353 17.363 17.631 16.0515 17.631 15.2695V4.38135C17.631 2.81226 17.0116 2.65039 11 2.65039C4.98846 2.65039 4.36902 2.81226 4.36902 4.38135V15.2695C4.36902 16.3479 5.33331 17.363 6.08026 17.363H15.4921Z" fill="lightgray"/>
<path fill-rule="evenodd" clip-rule="evenodd" d="M15.3423 11.7375H6.62274C5.90405 11.7375 5.22467 11.0605 5.22467 10.3438V5.53149C5.22467 4.86523 5.8125 4.38135 6.62274 4.38135H15.3423C16.0551 4.38135 16.7755 4.77637 16.7742 5.53149V10.3438C16.7742 11.0605 16.0786 11.7375 15.3423 11.7375ZM6.62268 5.24683C6.41266 5.24683 6.08026 5.32422 6.08026 5.53149L6.08032 10.344C6.08032 10.5857 6.37463 10.8723 6.62274 10.8723H15.3423C15.5989 10.8723 15.9198 10.5759 15.9198 10.344L15.9185 5.53149C15.9185 5.34595 15.5836 5.24683 15.3423 5.24683H6.62268Z" fill="lightgray"/>
<path fill-rule="evenodd" clip-rule="evenodd" d="M13.353 14.7668C13.353 13.8108 14.1191 13.0359 15.0642 13.0359C16.0093 13.0359 16.7755 13.8108 16.7755 14.7668C16.7755 15.7229 16.0093 16.4978 15.0642 16.4978C14.1191 16.4978 13.353 15.7227 13.353 14.7668ZM14.2086 14.7668C14.2086 15.2449 14.5917 15.6323 15.0642 15.6323C15.5367 15.6323 15.9199 15.2449 15.9198 14.7668C15.9198 14.2888 15.5367 13.9014 15.0642 13.9014C14.5917 13.9014 14.2086 14.2888 14.2086 14.7668Z" fill="lightgray"/>
<path fill-rule="evenodd" clip-rule="evenodd" d="M5.22467 14.7668C5.22467 13.8108 5.99084 13.0359 6.93591 13.0359C7.88098 13.0359 8.64709 13.8108 8.64716 14.7668C8.64716 15.7229 7.88098 16.4978 6.93591 16.4978C5.99084 16.4978 5.22467 15.7227 5.22467 14.7668ZM6.08032 14.7668C6.08032 15.2449 6.46338 15.6323 6.93591 15.6323C7.40845 15.6323 7.7915 15.2449 7.7915 14.7668C7.7915 14.2888 7.40845 13.9014 6.93591 13.9014C6.46338 13.9014 6.08032 14.2888 6.08032 14.7668Z" fill="lightgray"/>
</svg>
