<svg width="22" height="20" viewBox="0 0 22 20" fill="none" xmlns="http://www.w3.org/2000/svg">
<path d="M18.9074 1.45623L8.58516 0.0500933C7.90197 -0.0433029 7.26932 0.435565 7.17582 1.11726L6.95115 2.75632C6.92692 2.93245 7.05061 3.0949 7.2273 3.11887C7.40399 3.1433 7.56696 3.01972 7.59099 2.84358L7.81566 1.20453C7.86109 0.87481 8.16743 0.64264 8.49762 0.688206L18.8198 2.09424C19.1506 2.13953 19.383 2.44443 19.3378 2.77406L17.315 17.5304C17.2696 17.8601 16.9639 18.0916 16.633 18.0467L15.902 17.9472C15.7256 17.9225 15.5624 18.0463 15.5384 18.2226C15.5143 18.3988 15.6378 18.5612 15.8147 18.5852L16.5457 18.6847C16.6028 18.6925 16.6597 18.6963 16.7159 18.6963C17.3315 18.6963 17.8697 18.2421 17.9551 17.6175L19.9779 2.86113C20.0714 2.17962 19.591 1.54943 18.9074 1.45623Z" fill="lightgray"/>
<path fill-rule="evenodd" clip-rule="evenodd" d="M4.44922 2.6051H14.8674C15.5574 2.6051 16.119 3.16479 16.119 3.85278V18.7463C16.1188 19.4343 15.5574 19.994 14.8674 19.994H4.44922C3.75922 19.994 3.19763 19.4343 3.19763 18.7463V15.9944C3.11932 15.9777 3.05457 15.9243 3.02222 15.853C3.00793 15.8215 3 15.7866 3 15.7499V13.8257C3 13.7056 3.08472 13.6052 3.19763 13.5812V8.4187C3.08472 8.39465 3 8.29431 3 8.17419V6.25C3 6.12988 3.08472 6.02954 3.19763 6.00549V3.85278C3.19763 3.16492 3.75903 2.6051 4.44922 2.6051ZM14.8674 19.3501C15.2012 19.3501 15.4729 19.0793 15.4729 18.7466L15.4728 3.85303C15.4728 3.52026 15.2012 3.24939 14.8673 3.24939H4.44916C4.11542 3.24939 3.84369 3.52014 3.84369 3.85303V18.7466C3.84369 19.0793 4.1153 19.3501 4.44916 19.3501H14.8674Z" fill="lightgray"/>
<rect x="3" y="4.9325" width="0.425" height="2.92871" rx="0.2125" fill="lightgray"/>
<rect x="3.03864" y="14.7592" width="0.425" height="2.92871" rx="0.2125" fill="lightgray"/>
<path fill-rule="evenodd" clip-rule="evenodd" d="M5.1358 10.3335C5.1358 7.84766 7.16461 5.82532 9.65826 5.82532C12.1519 5.82532 14.1807 7.84766 14.1807 10.3335C14.1807 12.8193 12.152 14.8417 9.65826 14.8417C7.16455 14.8417 5.1358 12.8193 5.1358 10.3335ZM5.78192 10.3335C5.78192 12.4642 7.52081 14.1976 9.65826 14.1976C11.7958 14.1976 13.5346 12.4642 13.5346 10.3335C13.5346 8.20276 11.7958 6.46936 9.65826 6.46936C7.52081 6.46936 5.78192 8.20276 5.78192 10.3335Z" fill="lightgray"/>
<path fill-rule="evenodd" clip-rule="evenodd" d="M6.75098 10.3335C6.75098 7.80554 8.02814 5.82532 9.65826 5.82532C11.2884 5.82532 12.5655 7.80554 12.5655 10.3335C12.5655 12.8616 11.2884 14.8417 9.65826 14.8417C8.02814 14.8417 6.75098 12.8616 6.75098 10.3335ZM7.39709 10.3335C7.39709 12.428 8.4325 14.1976 9.65826 14.1976C10.884 14.1976 11.9194 12.428 11.9194 10.3335C11.9194 8.23901 10.884 6.46936 9.65826 6.46936C8.4325 6.46936 7.39709 8.23901 7.39709 10.3335Z" fill="lightgray"/>
<path d="M13.8576 10.0116H5.45892C5.28063 10.0116 5.13593 10.1558 5.13593 10.3336C5.13593 10.5113 5.28063 10.6556 5.45892 10.6556H13.8577C14.0362 10.6556 14.1807 10.5113 14.1807 10.3336C14.1807 10.1558 14.0359 10.0116 13.8576 10.0116Z" fill="lightgray"/>
<path d="M9.65826 5.82532C9.47997 5.82532 9.33527 5.96956 9.33527 6.1473V14.1976C9.33527 14.3753 9.47997 14.5196 9.65826 14.5196C9.83675 14.5196 9.98126 14.3753 9.98126 14.1976V6.14739C9.98126 5.96966 9.83656 5.82532 9.65826 5.82532Z" fill="lightgray"/>
<path d="M12.8885 15.8079H6.10492C5.92662 15.8079 5.78192 15.9521 5.78192 16.1298C5.78192 16.3076 5.92662 16.4518 6.10492 16.4518H12.8885C13.067 16.4518 13.2115 16.3076 13.2115 16.1298C13.2115 15.9521 13.0668 15.8079 12.8885 15.8079Z" fill="lightgray"/>
<path d="M9.65827 17.4178H6.10492C5.92662 17.4178 5.78192 17.5621 5.78192 17.7398C5.78192 17.9176 5.92662 18.0618 6.10492 18.0618H9.65827C9.83675 18.0618 9.98127 17.9176 9.98127 17.7398C9.98127 17.5622 9.83657 17.4178 9.65827 17.4178Z" fill="lightgray"/>
</svg>
