<svg fill="none" height="58" viewBox="0 0 52 58" width="52" xmlns="http://www.w3.org/2000/svg"><path clip-rule="evenodd" d="m50.28 46.5083h-.803v7.818c0 2.0245-1.525 3.6737-3.4 3.6737h-42.67701c-1.875 0-3.39999-1.6492-3.39999-3.6737v-28.1726c0-1.4785.814002-2.7567 1.983-3.3367v-.7266c0-1.5441 1.16301-2.8004 2.59201-2.8004h1.95899l1.14999-12.58163c.134-1.46861 1.35002-2.54544 2.70901-2.40098l11.855 1.26504c.42.04487.727.44978.686.90393-.042.45415-.416.78464-.837.74087l-11.854-1.26506c-.52099-.05581-.98501.35676-1.03701.91815l-1.427 15.61078h.97601l.917-10.0318c.068-.7442.51-1.368 1.153-1.6306.855-.348 1.596-.99804 2.086-1.83084.365-.62049 1.014-.95863 1.695-.88641l5.866.62597c.421.04487.728.44867.686.90391-.041.45417-.415.78467-.836.74087l-5.866-.62595c-.103-.01094-.202.03939-.255.12913-.666 1.13152-1.674 2.01572-2.836 2.48962-.094.0383-.161.1346-.171.2462l-.902 9.8699h3.74l13.441-21.31008c.373-.590947.936-.990389 1.586-1.1238987.65-.132415 1.309.0164102 1.856.4191267l15.573 11.465352c1.128.8317 1.421 2.5006.652 3.7197l-2.295 3.6387h.6c1.429 0 2.591 1.2563 2.591 2.8004v1.0637c.871.6664 1.441 1.763 1.441 2.9996v7.8179h.803c.949 0 1.72.8339 1.72 1.8582v8.8204c0 1.0243-.771 1.8581-1.72 1.8581zm-48.75 7.818c0 1.114.83799 2.0202 1.86999 2.0202h42.67701c1.032 0 1.87-.9062 1.87-2.0202v-2.2926h-46.417zm3.04501-33.3839c-.586 0-1.06201.5155-1.06201 1.148v.3907h2.729l.141-1.5387zm41.30099-6.2224c.294-.4651.182-1.1042-.25-1.4226l-15.572-11.46542c-.159-.11709-.343-.17837-.532-.17837-.059 0-.119.00547-.178.0186-.249.05144-.464.20355-.607.42898l-12.854 20.37991h1.175l9.614-15.24308c.383-.60736 1.064-.93457 1.735-.8328.905.1357 1.843-.05033 2.643-.52746.595-.35457 1.315-.31736 1.881.09849l8.072 5.94445c.566.4158.862 1.1272.774 1.8549-.118.9794.064 1.9917.512 2.8507.338.6479.306 1.4325-.083 2.0497l-2.4 3.8051h1.175zm-16.802 1.4161c3.331 0 6.065 2.8059 6.288 6.345h2.593l2.987-4.7352c.058-.0931.064-.2123.015-.3076-.61-1.1687-.858-2.5454-.697-3.8761.013-.105-.034-.2134-.118-.2758l-8.073-5.94332c-.085-.06347-.195-.07005-.28-.01861-1.087.64784-2.364.90284-3.595.7168-.011-.00109-.023-.0022-.035-.0022-.087 0-.172.04815-.223.13023l-9.027 14.3118h3.877c.223-3.5391 2.957-6.345 6.288-6.345zm-4.754 6.345h9.508c-.219-2.6275-2.267-4.6926-4.754-4.6926s-4.535 2.0651-4.754 4.6926zm22.186-.3907c0-.6325-.476-1.148-1.061-1.148h-1.643l-.97 1.5387h3.245c.146 0 .289.0109.429.0306zm1.441 4.0633c0-1.1141-.838-2.0202-1.87-2.0202h-42.67701c-1.032 0-1.86999.9061-1.86999 2.0202v2.2937h46.417zm0 3.9472h-46.417v20.2792h46.417v-3.8718h-7.272c-3.199 0-5.801-2.8113-5.801-6.2683 0-.6479.091-1.2716.26-1.8593l.001-.0022c.079-.2747.177-.5417.289-.7989.007-.0186.014-.0361.022-.0547.004-.0076.007-.0131.01-.0208.942-2.088 2.927-3.5325 5.219-3.5325h7.272zm2.523 5.7289c0-.1127-.085-.2046-.19-.2046h-9.605c-1.619 0-3.031.9783-3.755 2.4174-.033.0645-.065.1313-.095.198-.06.1346-.114.2736-.162.4148-.168.4946-.26 1.0276-.26 1.5846s.092 1.091.26 1.5857c.048.1412.102.279.162.4136.03.0668.062.1336.095.1992.724 1.4391 2.136 2.4163 3.755 2.4163h9.605c.105 0 .19-.0919.19-.2046zm-9.616 7.7632c-1.711 0-3.103-1.5047-3.103-3.353 0-1.8484 1.392-3.352 3.103-3.352s3.103 1.5036 3.103 3.352c0 1.8483-1.392 3.353-3.103 3.353zm0-5.0525c-.868 0-1.574.7627-1.574 1.6995 0 .9378.706 1.7006 1.574 1.7006s1.574-.7628 1.574-1.7006c0-.9368-.706-1.6995-1.574-1.6995z" fill="#387fbf" fill-rule="evenodd"/></svg>