<svg fill="none" height="60" viewBox="0 0 60 60" width="60" xmlns="http://www.w3.org/2000/svg"><path clip-rule="evenodd" d="m52.925 49.352 1.566-.612c.5-.195 1.063.052 1.259.551.196.5-.051 1.064-.551 1.259l-5.356 2.093c-.114.046-.234.068-.353.068-.219 0-.435-.074-.611-.216-.271-.219-.404-.566-.349-.911l.915-5.677c.086-.529.585-.891 1.114-.804.53.085.89.584.805 1.114l-.389 2.416c4.579-5.138 7.081-11.682 7.081-18.634 0-7.493-2.918-14.539-8.217-19.838s-12.345-8.21801-19.839-8.21801c-5.76 0-11.294 1.73201-16.005 5.01001-.44.307-1.046.19701-1.353-.24299-.306-.44-.197-1.04701.243-1.35201 5.038-3.506 10.956-5.358 17.115-5.358 8.013 0 15.547 3.12 21.213 8.786 5.667 5.666 8.787 13.2 8.787 21.213 0 7.178-2.494 13.949-7.075 19.353zm-33.227-21.361c0 3.509-2.405 4.737-4.337 5.724-1.57.802-2.589 1.384-2.926 2.57h6.291c.536 0 .972.435.971.972 0 .537-.435.972-.972.972h-7.386c-.537 0-.972-.436-.972-.972 0-3.174 2.279-4.338 4.11-5.273 2.032-1.038 3.277-1.786 3.277-3.993 0-1.786-1.221-3.24-2.722-3.24-1.5 0-2.721 1.454-2.721 3.24 0 .537-.435.972-.972.972s-.972-.435-.972-.972c0-2.858 2.093-5.184 4.665-5.184 2.573 0 4.666 2.326 4.666 5.184zm8.228-5.184c.537 0 .972.436.972.972v9.396h1.102c.537 0 .972.435.972.972 0 .536-.435.972-.972.972h-1.102v2.138c0 .537-.435.972-.972.972-.536 0-.972-.435-.972-.972v-2.138h-5.248c-.291 0-.567-.131-.752-.356-.184-.226-.258-.521-.201-.807l2.073-10.367c.106-.527.617-.868 1.144-.763.526.105.868.618.763 1.144l-1.841 9.205h4.063v-9.396c0-.536.435-.972.971-.972zm5.184 17.495c-.102 0-.205-.016-.307-.05-.51-.17-.785-.72-.615-1.229l6.22-18.661c.17-.509.721-.785 1.23-.615s.784.72.614 1.229l-6.22 18.661c-.136.407-.515.665-.922.665zm8.359-16.523c0-.536.435-.972.972-.972h7.256c.332 0 .641.169.819.449.179.279.203.63.064.931l-6.22 13.477c-.164.356-.516.565-.883.565-.137 0-.275-.029-.407-.09-.487-.224-.7-.802-.475-1.289l5.584-12.099h-5.738c-.537 0-.972-.435-.972-.972zm-31.90101-8.693c-.052 0-.104-.004-.156-.013-.53-.085-.89-.584-.805-1.114l.41803-2.593c-4.579 5.138-7.08105 11.682-7.08105 18.633 0 7.495 2.91804 14.54 8.21703 19.839 5.299 5.299 12.345 8.218 19.839 8.218 5.76 0 11.294-1.732 16.004-5.009.44-.307 1.046-.198 1.353.242.306.441.198 1.047-.243 1.354-5.037 3.504-10.955 5.357-17.114 5.357-8.013 0-15.547-3.122-21.21301-8.787-5.667-5.667-8.78699-13.2-8.78699-21.214 0-7.176 2.49401-13.948 7.07501-19.353l-1.73303.679c-.5.195-1.06297-.052-1.25897-.552-.195-.5.05196-1.06299.55096-1.25899l5.52203-2.15901c.325-.127.693-.07.965.149.271.219.404.56699.349.91099l-.944 5.85401c-.077.477-.49.817-.95801.817z" fill="#387fbf" fill-rule="evenodd"/></svg>