<svg fill="none" height="61" viewBox="0 0 61 61" width="61" xmlns="http://www.w3.org/2000/svg"><path clip-rule="evenodd" d="m59.7205 30.189-5.818 5.625c-.187.181-.433.272-.678.272s-.49-.091-.678-.272l-.502-.485-2.859 2.763c-.387.374-.64.833-.732 1.327-.548 2.948-1.995 5.626-4.187 7.746l-.768.743c.385.523.594 1.147.594 1.803 0 .832-.335 1.614-.943 2.202-.453.437-1.017.729-1.63.849.059.239.09.486.09.737 0 .833-.335 1.615-.943 2.203-.629.607-1.454.911-2.279.911-.666 0-1.331-.198-1.894-.593-.159.415-.409.796-.743 1.119-.628.607-1.453.91-2.278.91s-1.65-.303-2.278-.91l-.098-.095c-.159.4-.405.768-.728 1.08-.607.589-1.416.913-2.278.913-.363 0-.721-.061-1.061-.175-.05.055-.102.11-.157.163-.651.63-1.517.976-2.439.976-.921 0-1.787-.346-2.439-.976-.691-.669-1.026-1.552-1.006-2.43-.026 0-.052.001-.077.001-.922 0-1.788-.347-2.439-.976-.716-.693-1.051-1.616-1.004-2.525-.058.003-.115.004-.173.004-.883 0-1.766-.325-2.438-.974-.652-.63-1.011-1.468-1.011-2.359 0-.86.336-1.671.947-2.293l-.318-.307c-2.166-2.096-3.607-4.741-4.168-7.651-.108-.561-.39098-1.075-.81698-1.488l-1.68902-1.633-.34699.336c-.18.174-.42398.271-.67798.271s-.49804-.097-.67804-.271l-5.81799-5.625c-.374-.362-.374-.948 0-1.31l12.953-12.524c.375-.362.981-.362 1.356 0l5.818 5.625c.18.174.281.409.281.655s-.101.482-.281.655l-.285.277 2.395 2.315c.821.794 2.034 1.04 3.165.643.708-.25 1.45-.375 2.206-.375.523 0 1.04.061 1.545.181 1.209-.64 2.57-.978 3.962-.978 1.173 0 2.355.247 3.418.713 1.133.497 2.477.269 3.343-.567l1.334-1.29-.581-.561c-.179-.174-.28-.409-.28-.655s.101-.482.28-.655l5.819-5.625c.374-.363.981-.363 1.355 0l11.637 11.25c.18.174.281.409.281.655s-.101.481-.281.655zm-36.37 27.526c.289.28.674.434 1.083.434s.794-.154 1.084-.434c.597-.578.597-1.517 0-2.095-.299-.289-.692-.434-1.084-.434-.393 0-.785.145-1.083.434-.598.578-.598 1.517 0 2.095zm-3.523-3.405c.289.279.674.434 1.083.434.41 0 .795-.155 1.084-.434.598-.578.598-1.518 0-2.096-.299-.288-.691-.433-1.083-.433-.393 0-.785.145-1.084.433-.598.578-.598 1.518 0 2.096zm-3.615-3.495c.598.577 1.57.577 2.167 0 .597-.578.597-1.518 0-2.095-.299-.289-.691-.434-1.084-.434-.392 0-.784.145-1.083.434-.29.279-.449.651-.449 1.047 0 .395.159.768.449 1.048zm-2.301-31.578-11.59798 11.213 4.46301 4.315 11.59797-11.214zm12.425 9.945c-.56.196-1.141.292-1.716.292-1.284 0-2.537-.476-3.458-1.366l-2.395-2.316-9.61096 9.291 1.68896 1.634c.701.678 1.167 1.527 1.346 2.458.49 2.541 1.748 4.851 3.64 6.68l.687.665c1.12-.25 2.345.047 3.216.889.716.692 1.05 1.614 1.004 2.522.058-.003.115-.003.172-.003.922 0 1.788.346 2.439.976.692.668 1.027 1.552 1.007 2.43.026-.001.051-.002.077-.002.921 0 1.788.348 2.439.977.802.776 1.126 1.842.97 2.851.081.015.164.023.248.023.349 0 .676-.131.922-.369.247-.24.383-.557.383-.893 0-.337-.135-.653-.382-.891-.001-.001-.003-.002-.005-.004l-6.262-6.055c-.374-.361-.374-.948 0-1.31.375-.362.981-.362 1.356 0l8.447 8.167c.509.492 1.337.492 1.845 0 .247-.238.383-.554.383-.892 0-.33-.132-.643-.37-.879l-7.791-7.532c-.374-.362-.374-.949 0-1.31.375-.362.981-.362 1.356 0l7.766 7.508c.002.002.006.005.008.008.01.009.019.018.029.028l1.689 1.633c.509.492 1.337.492 1.847 0 .246-.238.381-.555.381-.893 0-.337-.135-.654-.382-.892l-10.014-9.68c-.374-.362-.374-.948 0-1.31s.981-.362 1.355 0l9.297 8.986c.247.238.574.37.923.37.348 0 .676-.132.922-.37.247-.239.382-.555.382-.893 0-.337-.135-.653-.382-.892l-11.236-10.863c-.009-.008-.018-.017-.027-.025l-.001-.001s0 0-.001 0l-.065-.063c-.001-.001-.001-.001-.001-.001l-.807-.781-2.98 2.881c-.749.724-1.733 1.087-2.718 1.087-.984 0-1.968-.362-2.717-1.087-.726-.701-1.126-1.634-1.126-2.627 0-.992.4-1.926 1.126-2.628l5.933-5.736c-.284.044-.565.112-.837.208zm15.175-1.457c-1.427 1.379-3.634 1.758-5.49.944-.816-.358-1.724-.547-2.626-.547-1.181 0-2.332.315-3.328.91-.419.25-.81.549-1.161.888l-6.311 6.101c-.364.352-.564.82-.564 1.318 0 .497.2.965.564 1.317.751.726 1.974.726 2.725 0l3.656-3.535c.001-.001.001-.002.002-.002.001-.001.001-.001.002-.001l1.59-1.538c.374-.362.981-.362 1.355 0 .375.362.375.948 0 1.31l-.914.884.806.782h.001l.029.028.035.033c.005.005.011.01.016.016.33.31 3.287 2.998 5.753 2.022.49-.193 1.049.033 1.25.507.2.473-.035 1.015-.524 1.209-.626.246-1.254.351-1.868.351-.133 0-.265-.007-.397-.016l6.062 5.861.737-.712c1.913-1.851 3.177-4.189 3.655-6.764.161-.867.598-1.666 1.263-2.309l2.859-2.764-7.843-7.583zm5.894-8.131-4.463 4.315 10.282 9.94 4.463-4.315zm6.784 9.722c.529 0 .958.415.958.926 0 .512-.429.927-.958.927s-.958-.415-.958-.927c0-.511.429-.926.958-.926zm-48.87 1.842c0-.512.42901-.927.95801-.927s.95801.415.95801.927c0 .511-.42901.926-.95801.926s-.95801-.415-.95801-.926zm38.692-21.48597.401 2.24297c.063.35-.084.698-.384.906-.3.21-.69.236-1.018.071l-2.1-1.059-2.101 1.059c-.143.072-.297.107-.451.107-.199 0-.397-.06-.567-.178-.299-.209-.447-.556-.384-.906l.401-2.24297-1.7-1.58902c-.265-.249-.359-.61299-.244-.95099.114-.338.413-.58001.78-.63001l2.349-.328 1.05-2.04199c.164-.318.496-.51599.867-.51599.37 0 .702.19799.866.51599l1.05 2.04199 2.349.328c.367.05.666.29301.78.63001.115.338.021.70199-.244.95099zm-1.765-2.21802c-.567-.225-.616-.32899-.757-.60199l-.63-.96402-.451.996c-.141.274-.496.52701-.81.57001l-1.387.36099 1.008 1.086c.228.212.171.60402.117.90402l-.117 1.14398 1.241-.612c.281-.142.617-.142.899.001l1.391.611-.126-1.20498c-.054-.301-.102-.57099.126-1.08499l.883-.96302zm-9.205-1.39801.401 2.24402c.063.35-.084.697-.384.906-.3.21-.69.23599-1.018.07099l-2.1-1.06-2.101 1.06c-.143.071-.297.10699-.451.10699-.199 0-.397-.05998-.567-.17798-.3-.209-.447-.556-.384-.906l.401-2.24402-1.7-1.58899c-.265-.248-.359-.61198-.244-.94998.059-.174.169-.31902.31-.42902.136-.114.304-.194.493-.22l-.006.01599 2.332-.32498 1.05-2.041991c.164-.318.496-.517029.866-.517029.371 0 .703.199029.867.517029l1.05 2.041991 2.349.328c.367.05.666.29201.78.63001.115.338.021.70198-.244.94998zm-1.765-2.21698c-.567-.224-.616-.32902-.757-.60202l-.63-.965-.451.99701c-.141.274-.496.52601-.81.57001l-1.387.36099 1.008 1.08499c.228.213.171.605.117.905l-.117 1.14401 1.241-.61199c.281-.142.617-.142.899 0l1.391.61199-.126-1.20498c-.054-.301-.102-.57102.126-1.08502l.883-.96399zm-9.079 5.83301.401 2.24297c.063.35-.084.698-.384.906-.3.21-.69.236-1.018.071l-2.1-1.059-2.101 1.059c-.143.072-.297.107-.451.107-.199 0-.398-.06-.567-.178-.3-.209-.447-.556-.384-.906l.401-2.24297-1.7-1.58902c-.265-.249-.359-.61299-.244-.95099.114-.338.413-.58001.78-.63001l2.349-.328 1.05-2.04199c.164-.318.496-.51599.866-.51599.371 0 .703.19799.867.51599l1.05 2.04199 2.349.328c.367.05.666.29301.78.63001.115.338.021.70199-.244.95099zm-1.765-2.21802c-.567-.225-.616-.32899-.757-.60199l-.63-.96402-.451.996c-.141.274-.496.52701-.81.57001l-1.387.36099 1.008 1.086c.228.212.171.60402.117.90402l-.117 1.14398 1.241-.612c.281-.142.617-.142.899.001l1.391.611-.126-1.20498c-.054-.301-.102-.57099.126-1.08499l.883-.96302z" fill="#387fbf" fill-rule="evenodd"/></svg>