<svg fill="none" height="56" viewBox="0 0 57 56" width="57" xmlns="http://www.w3.org/2000/svg"><g fill="#387fbf"><path d="m22.124 51.1341h1.8419v-1.934h-1.8419z"/><path d="m25.8069 51.1341h1.8409v-1.934h-1.8409z"/><path d="m29.4888 51.1341h1.8409v-1.934h-1.8409z"/><path d="m33.1707 51.1341h1.8409v-1.934h-1.8409z"/><path d="m36.8535 51.1341h1.841v-1.934h-1.841z"/><path d="m40.5354 51.1341h1.841v-1.934h-1.841z"/><path clip-rule="evenodd" d="m56.185 55.0011v-1.934h-2.7619v-12.567h.9209c.4391 0 .8162-.325.9019-.776l.92-4.834c.0543-.285-.0162-.58-.1905-.803-.1742-.223-.4352-.353-.7114-.353h-1.8409v-2.9c0-.535-.4115-.967-.921-.967h-.92v-2.9h-1.841v2.9h-.9209c-.5086 0-.92.432-.92.967v2.9h-1.8419c-.2762 0-.5362.13-.7114.353-.1743.223-.2448.518-.1905.803l.9209 4.834c.0857.451.4629.776.9019.776h.921v12.567h-1.8419v-6.767c0-.534-.4114-.966-.92-.966h-25.7752c-.5086 0-.921.432-.921.966v1.934h-10.12573c-.50857 0-.92094.432-.92094.966v3.867h-6.443813v1.934zm-46.94862-4.834h9.20572v2.9h-9.20572zm11.04662-2.9h23.9343v5.8h-23.9343zm31.2991 5.8h-1.841v-12.567h1.841zm-1.841-21.267h1.841v1.934h-1.841zm4.4001 3.867-.5524 2.899h-5.8562l-.5514-2.899z" fill-rule="evenodd"/><path d="m42.8688 8.12612.6723 1.798 1.7124-.658-.6724-1.84599z"/><path d="m39.445 9.54712.6809 1.79698 1.7124-.705-.681-1.79798z"/><path d="m36.0297 10.9581.6714 1.798 1.7124-.725-.6714-1.798z"/><path clip-rule="evenodd" d="m52.9878 11.8591c.0038-.003.0086-.005.0133-.007 1.3734-.601 2.2505-1.99999 2.2324-3.56299-.02-1.559-.9676-2.96999-2.3552-3.51199-3.8362-1.516-8.0305-1.43299-11.7886.22701l-8.0047 3.27699-19.4848-8.134004c-.2343-.15199978-.521-.1889918-.7829-.0979918l-5.54854 1.9389958c-.31333.111-.54762.387-.61429.726-.06571.34.04667.691.29334.921l12.92189 10.05898-7.8067 3.196-6.97328-4.575c-.21143-.14-.46762-.182-.71048-.118l-3.681907.966c-.282857.075-.515235.286-.626664.568-.112381.283-.0895276.604.059996.866l5.523805 9.668c.16572.289.46572.468.78858.468h11.84915l-2.8853 5.213c-.1515.307-.1372.678.038.974.1762.296.4858.471.8134.461l5.7914-.196c.2734-.01.5267-.149.6924-.377l9.3149-10.6901zm-33.7234 11.1175-12.29945-.1765-4.61524-8.079 2.09715-.55 7.03234 4.614c.2072.1355-1.55789.9223-1.98154 1.1112-.08286.0369-.11441.051-.06985.0328l32.35329-13.13597c3.3419-1.474 7.0524-1.55 10.4515-.207.6838.266 1.1495.95999 1.1581 1.72599.0095.767-.4191 1.453-1.0934 1.75098 0 0-10.0258 4.1373-18.7377 7.7329l-1.1585-.9439-10.859 12.401-3.7724.128 6.1705-10.995-1.6248-.922zm-9.88896-19.68048 3.61426-1.262 17.601 7.269-8.7029 3.56398z" fill-rule="evenodd"/></g></svg>