<svg fill="none" height="54" viewBox="0 0 46 54" width="46" xmlns="http://www.w3.org/2000/svg"><path clip-rule="evenodd" d="m30.077 29.151v19.958c0 2.145-1.748 3.892-3.898 3.892h-22.282c-2.149 0-3.897-1.747-3.897-3.892v-45.217c0-2.145 1.748-3.892 3.897-3.892h22.283c2.149 0 3.897 1.747 3.897 3.892v6.708h15.923v18.551zm-28.30799 19.958c0 1.171.95499 2.125 2.12799 2.125h22.283c1.173 0 2.128-.954 2.128-2.125v-6.708h-26.53899zm26.53899-45.217c0-1.172-.955-2.125-2.129-2.125h-22.282c-1.173 0-2.12799.953-2.12799 2.125v1.40802h26.53899zm0 3.17502h-26.53899v33.56698h26.53899v-11.483h-4.129l-8.256 6.183v-6.183h-3.538v-18.551h15.923zm15.923 5.29998h-30.077v15.017h3.538v4.416l5.898-4.416h20.641zm-26.539 9.717c0-.489.397-.884.885-.884h21.231c.488 0 .884.395.884.884 0 .488-.396.883-.884.883h-21.231c-.488 0-.885-.395-.885-.883zm21.731-3.533h-20.846c-.488 0-.885-.396-.885-.884s.397-.883.885-.883h20.846c.488 0 .885.395.885.883s-.397.884-.885.884zm-27.923-15.9h3.538c.489 0 .885.39402.885.88202 0 .49-.396.88397-.885.88397h-3.538c-.488 0-.885-.39397-.885-.88397 0-.488.397-.88202.885-.88202zm6.192 0h.885c.488 0 .885.39402.885.88202 0 .49-.397.88397-.885.88397h-.885c-.488 0-.884-.39397-.884-.88397 0-.488.396-.88202.884-.88202zm-3.538 47.699c-1.952 0-3.539-1.584-3.539-3.533 0-1.948 1.587-3.534 3.539-3.534 1.951 0 3.538 1.586 3.538 3.534 0 1.949-1.587 3.533-3.538 3.533zm0-5.3c-.976 0-1.769.793-1.769 1.767s.793 1.766 1.769 1.766c.975 0 1.769-.792 1.769-1.766s-.794-1.767-1.769-1.767z" fill="#387fbf" fill-rule="evenodd"/></svg>