<svg fill="none" height="60" viewBox="0 0 41 60" width="41" xmlns="http://www.w3.org/2000/svg"><path clip-rule="evenodd" d="m39.794 22.5h-4.824c-.665 0-1.206-.559-1.206-1.249s.541-1.25 1.206-1.25h4.824c.666 0 1.206.56 1.206 1.25s-.54 1.249-1.206 1.249zm-8.207-10.972c-.237.242-.545.365-.854.365s-.617-.123-.854-.365c-.47-.487-.47-1.28 0-1.76799l3.41-3.535c.471-.487 1.235-.487 1.706 0 .47.488.47 1.281 0 1.768zm-3.852 10.973c-.665 0-1.206-.56-1.206-1.25 0-3.446-2.706-6.251-6.029-6.251s-6.029 2.805-6.029 6.251c0 .69-.541 1.249-1.206 1.249-.666 0-1.206-.559-1.206-1.249 0-4.826 3.786-8.75 8.441-8.75s8.441 3.924 8.441 8.75c0 .69-.54 1.25-1.206 1.25zm-7.235-15.001c-.666 0-1.206-.56-1.206-1.25v-4.99899c0-.690003.54-1.25101 1.206-1.25101s1.206.561007 1.206 1.25101v4.99899c0 .69-.54 1.25-1.206 1.25zm-10.233 4.393c-.309 0-.617-.123-.851-.365l-3.411-3.53499c-.47-.487-.47-1.28 0-1.768.471-.487 1.235-.487 1.706 0l3.41 3.535c.47.48799.47 1.28099 0 1.76799-.237.242-.545.365-.854.365zm-3.032 9.358c0 .69-.53999 1.249-1.20599 1.249h-4.82302c-.665996 0-1.20599-.559-1.20599-1.249s.539994-1.25 1.20599-1.25h4.82302c.666 0 1.20599.56 1.20599 1.25zm6.638 14.775 3.009 1.387v-16.162c0-2.068 1.623-3.751 3.618-3.751s3.618 1.683 3.618 3.751v3.962c.376-.137.783-.213 1.206-.213 1.664 0 3.072 1.173 3.489 2.763.415-.168.864-.262 1.334-.262 1.664 0 3.073 1.171 3.49 2.762.415-.167.863-.262 1.333-.262 1.995 0 3.618 1.682 3.618 3.749v10.001c0 3.818-1.687 6.923-4.376 8.75h.758c.666 0 1.206.56 1.206 1.25v4.999c0 .229-.075.432-.179.616v.634h-18.995v-.726c-.073-.16-.12-.335-.12-.524v-4.999c0-.604.422-1.084.971-1.201-.133-.125-.268-.242-.394-.385l-9.761-11.04c-1.174-1.332-1.271-3.342-.226-4.785 1.736-2.402 3.987-1.98 6.401-.314zm4.708 21.977h15.897v-3.717h-15.897zm-9.66801-18.359 9.98301 11.071c1.138 1.29 3.102 1.786 4.787 1.786h4.052c4.655 0 8.987-4.104 8.987-8.929v-10c0-.69-1.086-1.428-1.752-1.428-.665 0-1.206.559-1.206 1.249v1.608c0 .69-.54 1.25-1.205 1.25-.666 0-1.206-.56-1.206-1.25v-4.465c0-.69-.54-1.25-1.206-1.25s-1.206.56-1.206 1.25v4.465c0 .69-.54 1.25-1.206 1.25s-1.206-.56-1.206-1.25v-6.608c0-.69-.54-1.25-1.206-1.25-.665 0-1.205.56-1.205 1.25v6.608c0 .69-.279 1.071-.944 1.071-.666 0-1.07-.381-1.07-1.071v-14.286c0-.69-.938-1.429-1.604-1.429s-1.604.739-1.604 1.429v18.5c0 .463.15 1.061-.241 1.278s-.868.193-1.237-.062l-5.227-3.002c-1.348-.928-2.30601-.914-3.27801.428-.347.48-.393 1.343 0 1.787z" fill="#387fbf" fill-rule="evenodd"/></svg>