<svg xmlns="http://www.w3.org/2000/svg" width="36" height="35">
    <path fill="#387FBF" fill-rule="evenodd" d="M35.079 34.952L.951 35H.949a.918.918 0 0 1-.651-.272.943.943 0 0 1-.271-.659L0 13.854l.001-.017a.938.938 0 0 1 .397-.754l5.179-3.62V5.624c0-.514.412-.932.922-.932h5.902l5.077-3.549a.913.913 0 0 1 1.05.002l5.044 3.547h5.929c.509 0 .922.418.922.932v3.885l5.153 3.623c.184.13.307.315.363.518a.546.546 0 0 1 .033.185l.027 20.184a.926.926 0 0 1-.92.933zm-2.751-1.861L18.014 21.86 3.647 33.131l28.681-.04zM5.577 11.73l-3.034 2.121 3.034 2.121V11.73zm-3.731 3.902l.023 16.535 11.133-8.736-11.156-7.799zM18.001 3.045l-2.356 1.647h4.698l-2.342-1.647zm10.578 3.512H7.42v10.704l7.111 4.971 2.917-2.289a.913.913 0 0 1 1.118-.009l.013.009 2.896 2.272 7.104-4.995V6.557zm1.844 5.223v4.143l2.946-2.072-2.946-2.071zm3.707 3.807l-11.128 7.826 11.151 8.75-.023-16.576zm-23.294.482c0-.515.413-.933.922-.933h12.483c.509 0 .922.418.922.933a.928.928 0 0 1-.922.933H11.758a.928.928 0 0 1-.922-.933zm13.405-3.917H11.758a.927.927 0 0 1-.922-.932c0-.515.413-.933.922-.933h12.483c.509 0 .922.418.922.933a.927.927 0 0 1-.922.932z"/>
</svg>
