<svg fill="none" height="197" viewBox="0 0 600 197" width="600" xmlns="http://www.w3.org/2000/svg" xmlns:xlink="http://www.w3.org/1999/xlink"><radialGradient id="a" cx="0" cy="0" gradientTransform="matrix(0 18.8811 -300 0 300 177.838)" gradientUnits="userSpaceOnUse" r="1"><stop offset="0" stop-color="#b1b5c5"/><stop offset=".0001" stop-color="#b2b9c0"/><stop offset="1" stop-color="#c3ccd5" stop-opacity=".54"/></radialGradient><linearGradient id="b" gradientUnits="userSpaceOnUse" x1="542.792" x2="507.466" y1=".001824" y2="82.8067"><stop offset="0" stop-color="#d5d7dd"/><stop offset="1" stop-color="#babec6"/></linearGradient><linearGradient id="c" gradientUnits="userSpaceOnUse" x1="236.645" x2="228.253" y1="132.524" y2="64.5521"><stop offset="0" stop-color="#cecfd6"/><stop offset="1" stop-color="#dadde2"/></linearGradient><linearGradient id="d" gradientUnits="userSpaceOnUse" x1="413.652" x2="411.651" y1="125.593" y2="97.0725"><stop offset="0" stop-color="#686b73"/><stop offset=".670806" stop-color="#babec6"/></linearGradient><linearGradient id="e" gradientUnits="userSpaceOnUse" x1="156.376" x2="157.877" y1="134.597" y2="144.104"><stop offset="0" stop-color="#9ea3b7" stop-opacity=".5"/><stop offset="1" stop-color="#9ea3b7"/></linearGradient><linearGradient id="f"><stop offset="0" stop-color="#a2a2a2"/><stop offset=".0377879" stop-color="#e2edf3"/><stop offset=".1199" stop-color="#98c0d3"/><stop offset=".2039" stop-color="#767981"/><stop offset="1" stop-color="#e4e4e4"/></linearGradient><linearGradient id="g" gradientUnits="userSpaceOnUse" x1="184.876" x2="184.876" xlink:href="#f" y1="75.1809" y2="119.65"/><linearGradient id="h" gradientUnits="userSpaceOnUse" x1="205.017" x2="205.017" xlink:href="#f" y1="75.1809" y2="119.65"/><linearGradient id="i" gradientUnits="userSpaceOnUse" x1="225.155" x2="225.155" xlink:href="#f" y1="75.1809" y2="119.65"/><linearGradient id="j" gradientUnits="userSpaceOnUse" x1="245.296" x2="245.296" xlink:href="#f" y1="75.1809" y2="119.65"/><linearGradient id="k" gradientUnits="userSpaceOnUse" x1="265.437" x2="265.437" xlink:href="#f" y1="75.1809" y2="119.65"/><linearGradient id="l" gradientUnits="userSpaceOnUse" x1="285.575" x2="285.575" xlink:href="#f" y1="75.1809" y2="119.65"/><linearGradient id="m" gradientUnits="userSpaceOnUse" x1="305.716" x2="305.716" xlink:href="#f" y1="75.1809" y2="119.65"/><linearGradient id="n" gradientUnits="userSpaceOnUse" x1="325.855" x2="325.855" xlink:href="#f" y1="75.1809" y2="119.65"/><linearGradient id="o" gradientUnits="userSpaceOnUse" x1="345.997" x2="345.997" xlink:href="#f" y1="75.1809" y2="119.65"/><linearGradient id="p" gradientUnits="userSpaceOnUse" x1="366.136" x2="366.136" xlink:href="#f" y1="75.1809" y2="119.65"/><linearGradient id="q" gradientUnits="userSpaceOnUse" x1="386.274" x2="386.274" xlink:href="#f" y1="75.1809" y2="119.65"/><linearGradient id="r" gradientUnits="userSpaceOnUse" x1="406.415" x2="406.415" xlink:href="#f" y1="75.1809" y2="119.65"/><linearGradient id="s" gradientUnits="userSpaceOnUse" x1="426.554" x2="426.554" xlink:href="#f" y1="75.1809" y2="119.65"/><linearGradient id="t" gradientUnits="userSpaceOnUse" x1="446.696" x2="446.696" xlink:href="#f" y1="75.1809" y2="119.65"/><linearGradient id="u" gradientUnits="userSpaceOnUse" x1="75.0386" x2="75.0386" xlink:href="#f" y1="75.7778" y2="116.33"/><linearGradient id="v" gradientUnits="userSpaceOnUse" x1="96.3284" x2="96.3284" xlink:href="#f" y1="75.8228" y2="116.301"/><linearGradient id="w" gradientUnits="userSpaceOnUse" x1="373.109" x2="355.101" y1="51.5377" y2="90.5705"><stop offset="0" stop-color="#cecfd6"/><stop offset="1" stop-color="#babec6"/></linearGradient><g opacity=".5"><ellipse cx="300" cy="177.838" fill="url(#a)" fill-opacity=".7" rx="300" ry="18.8811"/><path d="m209.336 128.88c1.46 2.825 3.679 4.241 6.215 4.982 2.741.798 5.849.806 8.769.928 3.271.139 56.574-6.375 64.845-8.98 2.896-.912 43.793-16.462 43.793-16.462l-60.636 14.956z" fill="#f6f6f6"/><path d="m345.641 54.5215s-33.043 40.9933-44.169 44.592c-14.412 2.1735-34.413 6.0005-48.809 8.2635-20.155 3.167-40.392 5.919-60.531 9.152-6.435 1.034-17.014 4.73-12.765 11.854 2.929 4.917 12.594 4.738 18.206 4.942 3.271.114 56.574-5.284 64.845-7.442 5.049-1.319 68.859-20.924 70.253-23.497l25.939-47.8564h-12.969z" fill="#cecfd6"/><path d="m569.526 87.9023h-22.928v8.7523h22.928z" fill="#444445"/><path d="m567.413 87.9023h-20.815v8.7523h20.815z" fill="#444445"/><path d="m447.982 68.1668c3.712-1.2539 18.443-9.1757 18.443-9.1757l82.887-57.10575s11.885-2.287815 17.594-1.555064c0 0-6.313 12.758014-9.445 20.679914-3.132 7.9137-22.553 61.7872-22.553 61.7872z" fill="url(#b)"/><path d="m557.461 21.0027c.383-.9607.807-1.9947 1.264-3.0613l-104.837 47.5474c-2.357 1.2376-4.364 2.1576-5.906 2.6786l103.337-30.6534c2.863-7.7997 5.212-14.1665 6.142-16.5113z" fill="#caccd3"/><path d="m112.575 161.079c-.066 0-.131-.016-.196-.049-.188-.105-.261-.35-.147-.537 2.145-3.794 2.496-7.319 1.052-10.47-1.084-2.361-2.83-3.623-2.846-3.639-.18-.131-.221-.375-.09-.554.13-.179.375-.22.555-.09.081.057 1.916 1.376 3.091 3.917.693 1.489 1.011 3.093.946 4.762-.081 2.068-.758 4.242-2.006 6.457-.082.138-.221.203-.359.203z" fill="#5b5b5a"/><path d="m98.2578 154.395c-.1387 0-.2773-.073-.3507-.203-1.819-3.314-2.1208-6.237-.9054-8.687 1.0195-2.052 3.1563-3.778 6.1743-4.983 2.26-.896 4.185-1.197 4.266-1.205.212-.033.416.114.449.334.032.212-.114.415-.335.448-.073.008-7.5935 1.196-9.861 5.756-1.093 2.206-.7912 4.877.8972 7.954.106.187.0326.432-.155.538-.0489.032-.1142.048-.1794.048z" fill="#6f6f6f"/><path d="m90.461 166.943-2.3165-1.58 18.4665-27.657.677-.049c.025 0 18.883-1.229 18.883-1.229l-1.338 4.746s-12.39 1.767-16.052 2.019z" fill="#636464"/><path d="m90.461 166.943-2.3165-1.58 18.4665-27.657.677-.049c.025 0 18.883-1.229 18.883-1.229l-1.338 4.746s-12.39 1.767-16.052 2.019z" fill="#636464"/><path d="m101.628 149.815 2.284-2.434-1.11-1.042-.669.708-.946-.896.661-.708-.253-.236-1.329 2.003.913.855-.669.708z" fill="#6f6f6f"/><path d="m94.742 139.874-.9608 1.021 5.8436 5.48.9602-1.02z" fill="#6f6f6f"/><path d="m97.0351 142.023-.9609 1.02 5.8418 5.481.961-1.02z" fill="#6f6f6f"/><path d="m91.9417 136.408-1.7874 1.899 3.4771 3.261 1.7874-1.898z" fill="#c1bcbc"/><path d="m92.9578 137.97c-.3508-.326-.8973-.31-1.2317.041-.3262.35-.3099.895.0408 1.229.3507.326.8972.309 1.2317-.041.3262-.358.3099-.903-.0408-1.229z" fill="#6f6f6f"/><path d="m100.689 144.12-2.2906 2.433 1.1115 1.042 2.2901-2.432z" fill="#6f6f6f"/><path d="m102.763 146.064-2.29 2.432 1.111 1.043 2.291-2.433z" fill="#6f6f6f"/><path d="m91.0641 163.621-.6403 2.727 15.5812 3.645.64-2.727z" fill="#9e6667"/><path d="m106.251 158.017-1.077-2.231 1.395-2.044 2.471.179 1.085 2.231-1.395 2.052z" fill="#6f6f6f"/><path d="m109.58 155.029-.538-1.108-2.472-.179-.693 1.018z" fill="#6f6f6f"/><path d="m105.314 150.741-.253 3.45 5.311.39.254-3.451z" fill="#6f6f6f"/><path d="m104.806 157.68-.253 3.451 5.312.389.253-3.451z" fill="#6f6f6f"/><path d="m107.371 132.643-.348 4.726 3.873.284.347-4.726z" fill="#c1bcbc"/><path d="m104.806 147.014-.154 2.095 6.557.481.154-2.095z" fill="#aaa9a9"/><path d="m107.357 142.199-.421 5.733 2.31.169.421-5.733z" fill="#aaa9a9"/><path d="m106.584 135.929-.529 7.194 4.946.362.529-7.194z" fill="#6f6f6f"/><path d="m108.091 142.307-.517 7.015 1.033.076.517-7.015z" fill="#6f6f6f"/><path d="m110.043 142.446-.518 7.015 1.033.076.518-7.015z" fill="#6f6f6f"/><path d="m106.129 142.164-.516 7.016 1.033.075.516-7.015z" fill="#6f6f6f"/><path d="m105.319 150.743-.09 1.226 5.311.389.091-1.226z" fill="#6f6f6f"/><path d="m103.723 148.608-.207 2.818 8.793.644.207-2.817z" fill="#c1bcbc"/><path d="m107.971 150.936-.016.268z" fill="#9e6667"/><path d="m112.393 140.944-7.325-.537.18-2.483 8.336.016z" fill="#c1bcbc"/><path d="m110.654 134.098c.025-.383-.261-.716-.644-.749-.384-.024-.718.261-.751.643-.024.383.261.717.645.749.391.033.726-.252.75-.643z" fill="#6f6f6f"/><path d="m105.752 150.17c.024-.382-.261-.716-.645-.749-.383-.024-.717.261-.75.644-.025.382.261.716.644.749.384.032.718-.261.751-.644z" fill="#6f6f6f"/><path d="m110.788 162.862c-.082 0-.155-.024-.228-.073-.18-.122-.221-.375-.098-.554 2.52-3.582 3.222-7.058 2.071-10.348-.848-2.45-2.447-3.859-2.463-3.867-.163-.147-.179-.391-.041-.554.147-.162.392-.179.555-.04.073.065 1.77 1.563 2.692 4.201.538 1.555.701 3.183.465 4.836-.286 2.052-1.175 4.152-2.643 6.228-.065.114-.188.171-.31.171z" fill="#6f6f6f"/><path d="m87.7686 159.758-1.6084 2.871 2.8761 1.605 1.6084-2.87z" fill="#6f6f6f"/><path d="m92.1451 162.2-2.3365 4.171 6.8699 3.834 2.3366-4.171z" fill="#6f6f6f"/><path d="m94.2755 162.335c.2692.155.367.497.2202.765l-1.2072 6.774c-.155.269-.4975.367-.7667.22l-4.8369-5.064c-.2692-.155-.367-.497-.2202-.765l2.1696-3.868c.155-.268.4976-.366.7668-.22z" fill="#c1bcbc"/><path d="m117.695 168.269c0-.114-.081-.204-.196-.212l-.244-.008c0-.016 0-.033 0-.049l.244-.016c.115-.008.196-.106.188-.212l-.024-.415c0-.016 0-.033 0-.041l-.009-.073-.008-.073c0-.017-.008-.033-.008-.041l-.049-.415c-.008-.114-.114-.188-.22-.179l-.245.024c0-.016-.008-.033-.008-.049l.245-.049c.106-.024.179-.13.155-.244l-.09-.407c0-.016 0-.033-.008-.041l-.016-.073-.017-.073c0-.017-.008-.033-.016-.041l-.106-.407c-.025-.106-.139-.171-.245-.147l-.236.057c-.009-.016-.008-.032-.017-.049l.229-.081c.106-.041.163-.155.122-.26l-.139-.391c0-.017-.008-.025-.008-.041l-.024-.065-.025-.065c-.008-.017-.008-.025-.016-.041l-.155-.391c-.041-.106-.163-.154-.261-.114l-.228.09c-.009-.016-.017-.033-.025-.049l.22-.114c.098-.049.139-.171.082-.277l-.196-.366c0-.016-.008-.025-.016-.041l-.041-.065-.033-.065c-.008-.016-.016-.025-.024-.033l-.212-.358c-.057-.098-.18-.13-.277-.073l-.212.122c-.009-.016-.017-.033-.025-.041l.196-.146c.09-.066.114-.196.049-.285l-.245-.342c-.008-.017-.016-.025-.024-.041l-.049-.057-.041-.057c-.008-.008-.016-.024-.033-.033l-.261-.325c-.073-.09-.196-.106-.285-.033l-.196.155c-.008-.016-.024-.025-.033-.041l.18-.171c.081-.081.081-.203.008-.285l-.294-.301c-.008-.008-.016-.024-.024-.033l-.057-.048-.049-.049c-.008-.008-.025-.017-.033-.025l-.302-.285c-.081-.081-.212-.073-.285.009l-.171.179c-.017-.008-.025-.025-.041-.033l.155-.195c.065-.09.049-.212-.033-.285l-.326-.253c-.008-.008-.025-.016-.033-.032l-.057-.041-.057-.041c-.008-.008-.024-.016-.041-.024l-.342-.244c-.09-.065-.22-.041-.286.049l-.147.203c-.016-.008-.032-.016-.04-.024l.122-.212c.057-.098.024-.22-.073-.277l-.359-.212c-.008-.008-.025-.016-.041-.024l-.065-.033-.066-.032c-.016-.008-.024-.016-.04-.016l-.367-.196c-.098-.049-.221-.016-.278.09l-.114.22c-.016-.009-.033-.017-.049-.025l.09-.228c.041-.106-.008-.22-.114-.26l-.392-.155c-.016-.008-.024-.016-.041-.016l-.073-.025-.065-.024c-.017-.008-.025-.008-.041-.008l-.392-.139c-.106-.04-.22.017-.261.122l-.081.228c-.017-.008-.033-.008-.049-.016l.057-.236c.024-.106-.041-.22-.147-.244l-.408-.098c-.016-.008-.024-.008-.04-.016l-.074-.017-.073-.016c-.017 0-.033-.008-.041-.008l-.408-.081c-.114-.025-.22.048-.236.154l-.049.245c-.017 0-.033-.009-.049-.009l.024-.244c.008-.114-.073-.212-.179-.22l-.604-.057c-.114-.008-.212.074-.22.179l-.025.245c-.016 0-.032 0-.049 0v-.245c0-.114-.089-.203-.203-.203h-.416c-.017 0-.033-.008-.041 0h-.074-.073c-.016 0-.033 0-.041.008l-.416.016c-.114.009-.196.098-.196.212l.009.244c-.017 0-.033 0-.049.008l-.033-.244c-.016-.114-.122-.187-.228-.171l-.416.057c-.017 0-.033 0-.041 0l-.074.016-.073.009c-.016 0-.033.008-.041.008l-.408.073c-.114.016-.179.122-.163.236l.041.244c-.016 0-.033.009-.049.009l-.065-.237c-.033-.105-.147-.171-.253-.138l-.4.114c-.016 0-.032 0-.04.008l-.074.025-.073.016c-.017.008-.025.008-.041.016l-.4.13c-.106.033-.163.147-.13.253l.081.236c-.016.008-.032.016-.049.016l-.097-.22c-.049-.105-.164-.146-.27-.105l-.383.171c-.016 0-.024.008-.041.016l-.065.032-.065.033c-.017.008-.025.016-.041.024l-.375.188c-.098.048-.139.171-.09.268l.106.22c-.016.008-.033.016-.049.025l-.13-.212c-.058-.098-.188-.122-.278-.065l-.35.22c-.017.008-.025.008-.041.024l-.066.041-.065.04c-.016.009-.024.017-.032.025l-.343.236c-.0897.065-.1142.187-.0489.285l.1389.203c-.017.009-.0247.025-.041.033l-.1632-.187c-.0734-.082-.2039-.098-.2854-.025l-.3182.269c-.0081.008-.0244.016-.0326.024l-.0571.049-.0571.049c-.0081.008-.0244.025-.0326.033l-.31.285c-.0815.073-.0897.203-.0081.285l.1713.179c-.0163.008-.0245.024-.0326.032l-.1876-.163c-.0816-.073-.2121-.065-.2855.017l-.2774.309c-.0081.008-.0244.016-.0326.033l-.0489.057-.049.057c-.0081.008-.0163.024-.0244.032l-.2692.326c-.0734.089-.0571.212.0245.285l.1957.155c-.0081.016-.0244.024-.0326.04l-.2039-.138c-.0897-.065-.2202-.033-.2855.057l-.2284.35c-.0081.008-.0163.024-.0245.032l-.0407.066-.0408.057c-.0082.016-.0163.024-.0163.04l-.2203.359c-.0571.097-.0244.219.0653.276l.2121.131c-.0082.016-.0164.032-.0245.048l-.2202-.105c-.0979-.049-.2203-.008-.2692.097l-.1795.375c-.0081.008-.0163.024-.0244.041l-.0326.065-.0327.065c-.0081.016-.0081.024-.0163.041l-.1631.382c-.0408.106 0 .22.106.269l.2284.098c-.0082.016-.0082.032-.0163.048l-.2366-.073c-.106-.032-.2202.025-.2528.13l-.1224.399c-.0081.017-.0163.025-.0163.041l-.0163.073-.0245.074c-.0081.016-.0081.032-.0081.04l-.1061.407c-.0326.106.0327.22.1469.253l.2365.065c-.0081.016-.0081.032-.0081.049l-.2447-.041c-.1142-.016-.2121.057-.2366.163l-.0652.415c-.0082.016-.0082.025-.0082.041l-.0082.073-.0081.073v.041l-.049.415c-.0163.114.0653.212.1795.228l.2447.033v.049l-.2447-.008c-.1142 0-.2039.081-.2039.195l-.0082.415c0 .016-.0081.033 0 .041v.073.073.041l.0082.415c0 .114.0979.204.2039.196l.2447-.008v.048l-.2447.025c-.1142.016-.1876.114-.1795.228l.049.415v.041l.0081.073.0082.073c0 .017.0082.033.0082.041l.0652.415c.0163.114.1224.188.2366.171l.2447-.04c0 .016.0081.032.0081.048l-.2365.066c-.1061.024-.1713.138-.1469.244l.1061.407c0 .016 0 .032.0081.041l.0245.073.0163.065c0 .016.0082.024.0163.041l.1224.399c.0326.106.1468.163.2528.138l.2366-.073c.0081.016.0081.032.0163.049l-.2284.097c-.106.041-.155.163-.106.269l.1631.383c0 .016.0082.024.0163.04l.0327.066.0244.065c.0082.016.0163.024.0245.04l.1794.375c.049.098.1713.146.2692.098l.2202-.106c.0082.016.0163.032.0245.04l-.2121.123c-.0978.057-.1305.179-.0734.276l.2121.359c.0082.016.0082.024.0163.04l.0408.065.0408.066c.0081.016.0163.024.0244.032l.2284.35c.0571.098.1876.122.2774.057l.2039-.138c.0081.016.0244.024.0326.041l-.1958.154c-.0897.074-.0978.196-.0326.285l.261.326c.0082.016.0163.024.0245.032l.0489.057.049.057c.0081.009.0163.025.0326.033l.2773.318c.0734.081.2039.089.2855.016l.1876-.163c.0163.008.0245.024.0326.033l-.1712.179c-.0735.081-.0735.211.0081.285l.31.285c.0081.008.0163.024.0326.032l.0571.049.0571.049c.0081.008.0244.016.0326.024l.3181.269c.0816.073.2121.065.2855-.024l.1631-.188c.0163.008.0245.025.0408.033l-.1386.203c-.0653.09-.0408.22.0489.285l.3429.236c.008.009.024.017.032.025l.066.041.057.04c.016.008.024.017.04.025l.351.228c.098.057.22.032.277-.057l.131-.204c.016.008.033.016.041.025l-.114.219c-.049.098-.009.22.089.269l.376.187c.008.008.024.017.04.025l.066.032.065.033c.016.008.024.008.041.016l.383.171c.098.049.22 0 .269-.098l.106-.219c.016.008.033.016.049.016l-.081.228c-.033.106.016.22.13.26l.392.139c.016.008.024.016.04.016l.074.025.065.024c.016.008.024.008.041.008l.399.122c.106.033.221-.032.253-.138l.074-.236c.016 0 .032.008.049.008l-.049.244c-.025.114.049.22.163.236l.408.082c.016.008.024.008.04.008l.074.008.073.016h.041l.416.065c.114.017.212-.057.228-.171l.041-.244c.017 0 .033 0 .049.008l-.008.244c-.008.114.082.204.196.212l.416.025c.016 0 .024.008.041.008h.073.073.041.416c.114 0 .204-.09.204-.204v-.244h.049l.024.244c.009.114.107.196.221.179l.416-.04h.04l.074-.009.073-.008c.017 0 .033 0 .041-.008l.416-.057c.114-.016.188-.114.171-.228l-.032-.244c.016 0 .032-.008.049-.008l.057.236c.024.106.138.179.244.155l.408-.098c.017 0 .033 0 .041-.008l.073-.017.074-.016c.016-.008.024-.008.041-.016l.399-.114c.106-.033.172-.138.139-.252l-.065-.237c.016-.008.032-.008.049-.016l.089.228c.041.106.155.155.261.114l.392-.155c.016 0 .024-.008.041-.016l.065-.032.065-.025c.017-.008.025-.008.041-.016l.383-.171c.106-.049.147-.163.106-.269l-.097-.228.048-.024.123.211c.057.098.179.131.277.074l.367-.204c.017-.008.025-.008.041-.016l.065-.041.066-.032c.016-.008.024-.017.032-.025l.359-.22c.098-.057.122-.187.065-.276l-.13-.212c.016-.008.024-.016.041-.033l.146.196c.066.089.196.106.286.04l.334-.252c.017-.008.025-.016.033-.024l.057-.049.057-.041c.008-.008.025-.016.033-.032l.318-.269c.09-.073.098-.204.024-.285l-.155-.187c.017-.009.025-.025.041-.033l.18.171c.081.081.212.073.285 0l.294-.301c.008-.008.024-.016.032-.033l.049-.057.049-.049c.008-.008.016-.024.025-.032l.277-.31c.073-.081.065-.211-.016-.285l-.188-.162c.008-.017.025-.025.033-.041l.195.146c.09.066.221.049.286-.04l.245-.334c.008-.008.016-.024.032-.033l.041-.057.041-.057c.008-.016.016-.024.024-.04l.237-.342c.065-.09.041-.22-.057-.285l-.204-.139c.008-.016.016-.032.024-.04l.212.114c.098.057.221.016.278-.082l.195-.366c.009-.008.017-.025.025-.041l.033-.065.032-.065c.008-.016.016-.025.016-.041l.188-.374c.049-.098.008-.22-.09-.269l-.22-.106c.008-.016.016-.032.025-.049l.228.082c.106.04.22-.017.261-.122l.147-.391c.008-.008.016-.025.016-.041l.025-.073.024-.065c.008-.017.008-.025.008-.041l.131-.399c.032-.106-.025-.22-.131-.252l-.236-.074c.008-.016.008-.032.016-.048l.237.048c.106.025.22-.048.244-.154l.09-.407c.008-.017.008-.025.016-.041l.017-.073.016-.074c0-.016.008-.032.008-.04l.073-.416c.017-.114-.057-.211-.163-.236l-.244-.04c0-.017.008-.033.008-.049l.245.016c.114.008.212-.073.22-.187l.032-.415c.009-.017.009-.025.009-.041v-.073l.008-.074c0-.016 0-.032 0-.04z" fill="#343433"/><path d="m106.504 174.4c3.426 0 6.216-2.784 6.216-6.204 0-3.419-2.79-6.204-6.216-6.204-3.425 0-6.215 2.785-6.215 6.204 0 3.428 2.79 6.204 6.215 6.204z" fill="#8cc241"/><path d="m106.505 174.644c3.556 0 6.452-2.89 6.452-6.44s-2.896-6.44-6.452-6.44c-3.557 0-6.452 2.89-6.452 6.44-.008 3.55 2.887 6.44 6.452 6.44z" fill="#21201f"/><path d="m106.505 174.644c3.556 0 6.452-2.89 6.452-6.44s-2.896-6.44-6.452-6.44c-3.557 0-6.452 2.89-6.452 6.44-.008 3.55 2.887 6.44 6.452 6.44z" fill="#2b2b2b"/><path d="m106.505 174.092c3.254 0 5.897-2.646 5.897-5.887 0-3.248-2.651-5.894-5.897-5.894-3.255 0-5.898 2.637-5.898 5.894-.008 3.249 2.643 5.887 5.898 5.887z" fill="#fff"/><path d="m106.506 172.649c2.455 0 4.454-1.995 4.454-4.446 0-2.45-1.999-4.445-4.454-4.445s-4.453 1.995-4.453 4.445c0 2.451 1.998 4.446 4.453 4.446z" fill="#6f6f6f"/><path d="m106.653 172.021c2.113-.081 3.76-1.864 3.679-3.973-.082-2.109-1.868-3.753-3.981-3.672-2.112.081-3.76 1.864-3.678 3.973.081 2.109 1.868 3.753 3.98 3.672z" fill="#9b9b95"/><path d="m106.505 170.166c1.085 0 1.966-.879 1.966-1.962s-.881-1.962-1.966-1.962-1.966.879-1.966 1.962c-.008 1.083.881 1.962 1.966 1.962z" fill="#6f6f6f"/><path d="m106.506 169.963c.971 0 1.762-.79 1.762-1.759s-.791-1.759-1.762-1.759-1.762.79-1.762 1.759.791 1.759 1.762 1.759z" fill="#9b9b95"/><g fill="#141414"><path d="m106.09 168.204c0 .228.187.416.416.416.228 0 .416-.188.416-.416s-.188-.415-.416-.415c-.229 0-.416.187-.416.415z"/><path d="m106.326 167.031c0 .097.082.179.18.179.097 0 .179-.082.179-.179 0-.098-.082-.179-.179-.179-.106 0-.18.081-.18.179z"/><path d="m107.207 167.25c-.073.074-.073.188 0 .253.074.073.188.073.253 0 .074-.074.074-.188 0-.253-.073-.073-.187-.073-.253 0z"/><path d="m107.672 168.023c-.098 0-.18.082-.18.18 0 .097.082.179.18.179s.179-.082.179-.179c0-.098-.081-.18-.179-.18z"/><path d="m107.46 168.905c-.073-.074-.187-.074-.253 0-.073.065-.073.179 0 .252.074.073.188.073.253 0 .066-.073.066-.187 0-.252z"/><path d="m106.685 169.369c0-.098-.082-.18-.179-.18-.098 0-.18.082-.18.18 0 .097.082.179.18.179.097 0 .179-.074.179-.179z"/><path d="m105.806 169.157c.073-.073.073-.187 0-.252-.073-.074-.179-.074-.253 0-.073.065-.073.179 0 .252.065.065.18.065.253 0z"/><path d="m105.33 168.382c.098 0 .179-.082.179-.179 0-.098-.081-.18-.179-.18s-.18.082-.18.18c0 .097.082.179.18.179z"/><path d="m105.543 167.503c.073.073.188.073.253 0 .073-.074.073-.188 0-.253-.073-.073-.18-.073-.253 0-.065.065-.065.179 0 .253z"/><path d="m106.09 165.386c0 .228.187.415.416.415.228 0 .416-.187.416-.415s-.188-.415-.416-.415c-.229.008-.416.187-.416.415z"/><path d="m104.222 166.511c.163.163.424.163.587 0s.163-.423 0-.586-.424-.163-.587 0-.163.423 0 .586z"/><path d="m103.684 168.62c.228 0 .416-.188.416-.416s-.188-.415-.416-.415c-.229 0-.416.187-.416.415s.187.416.416.416z"/><path d="m104.801 170.484c.164-.163.164-.424 0-.586-.163-.163-.424-.163-.587 0-.163.162-.163.423 0 .586s.424.163.587 0z"/><path d="m106.914 171.013c0-.228-.188-.415-.416-.415s-.416.187-.416.415.188.415.416.415c.237 0 .416-.187.416-.415z"/><path d="m108.79 169.898c-.163-.163-.424-.163-.588 0-.163.162-.163.423 0 .586.164.163.425.163.588 0 .155-.163.155-.424 0-.586z"/><path d="m109.32 167.789c-.228 0-.416.187-.416.415s.188.416.416.416c.229 0 .416-.188.416-.416s-.187-.415-.416-.415z"/><path d="m108.202 165.925c-.163.163-.163.423 0 .586.164.163.425.163.588 0s.163-.423 0-.586-.424-.163-.588 0z"/></g><path d="m96.3577 157.685c0-.497-.4079-.904-.9054-.904-.4976 0-.9054.407-.9054.904s.4078.904.9054.904c.5057-.008.9054-.407.9054-.904z" fill="#c1bcbc"/><path d="m99.1565 154.005c0-.496-.4079-.903-.9054-.903-.4976 0-.9054.407-.9054.903 0 .497.4078.904.9054.904.5057-.008.9054-.407.9054-.904z" fill="#c1bcbc"/><path d="m310.445 174.481 1.77-2.833-1.297-.806-.514.822-1.109-.692.514-.822-.286-.179-.921 2.222 1.06.66-.514.822z" fill="#6f6f6f"/><path d="m301.757 166.049-.743 1.187 6.8 4.241.743-1.187z" fill="#6f6f6f"/><path d="m304.43 167.748-.744 1.188 6.797 4.244.744-1.188z" fill="#6f6f6f"/><path d="m298.327 163.23-1.384 2.209 4.046 2.525 1.384-2.209z" fill="#c1bcbc"/><path d="m308.408 169.084-1.773 2.83 1.293.807 1.773-2.83z" fill="#6f6f6f"/><path d="m310.81 170.572-1.773 2.83 1.293.807 1.773-2.83z" fill="#6f6f6f"/><path d="m340.144 161.998c-.302 0-.604-.114-.84-.342l-6.566-6.554-15.147-.863c-.653 0-1.468-1.815-.816-1.815l16.452.317c.31 0 .612.122.84.342l6.909 6.896c.465.464.465 1.205 0 1.669-.229.236-.53.35-.832.35z" fill="#6f6f6f"/><path d="m320.235 161.079c-.065 0-.131-.016-.196-.049-.187-.105-.261-.35-.147-.537 2.145-3.794 2.496-7.319 1.053-10.47-1.085-2.361-2.831-3.623-2.847-3.639-.18-.131-.22-.375-.09-.554.131-.179.375-.22.555-.09.081.057 1.917 1.376 3.091 3.917.693 1.489 1.012 3.093.946 4.762-.081 2.068-.758 4.242-2.006 6.457-.082.138-.22.203-.359.203z" fill="#5b5b5a"/><path d="m305.918 154.395c-.139 0-.277-.073-.351-.203-1.819-3.314-2.121-6.237-.905-8.687 1.019-2.052 3.156-3.778 6.174-4.983 2.26-.896 4.185-1.197 4.266-1.205.212-.033.416.114.449.334.033.212-.114.415-.334.448-.074.008-7.594 1.196-9.862 5.756-1.093 2.206-.791 4.877.897 7.954.106.187.033.432-.155.538-.057.032-.122.048-.179.048z" fill="#6f6f6f"/><path d="m298.121 166.942-2.316-1.58 18.466-27.657.677-.049c.025 0 18.288.871 18.288.871l-.743 2.646s-12.39 1.767-16.052 2.02z" fill="#636464"/><path d="m298.121 166.942-2.316-1.58 18.466-27.657.677-.049c.025 0 18.288.871 18.288.871l-.743 2.646s-12.39 1.767-16.052 2.02z" fill="#6f6f6f"/><path d="m309.278 149.821 2.292-2.434-1.109-1.042-.669.708-.955-.896.669-.708-.253-.236-1.329 2.003.905.855-.66.708z" fill="#6f6f6f"/><path d="m302.384 139.862-.96 1.021 5.843 5.48.961-1.021z" fill="#6f6f6f"/><path d="m304.713 142.032-.961 1.021 5.842 5.482.961-1.02z" fill="#6f6f6f"/><path d="m299.614 136.414-1.788 1.898 3.477 3.263 1.788-1.899z" fill="#c1bcbc"/><path d="m300.616 137.974c-.351-.326-.897-.31-1.232.04-.326.351-.31.896.041 1.23.351.326.897.309 1.232-.041.326-.358.302-.904-.041-1.229z" fill="#6f6f6f"/><path d="m308.343 144.124-2.29 2.433 1.111 1.042 2.29-2.432z" fill="#6f6f6f"/><path d="m310.427 146.056-2.29 2.432 1.111 1.043 2.291-2.432z" fill="#6f6f6f"/><path d="m313.913 158.019-1.085-2.231 1.403-2.044 2.472.179 1.084 2.231-1.403 2.052z" fill="#6f6f6f"/><path d="m317.24 155.031-.538-1.108-2.472-.179-.693 1.018z" fill="#6f6f6f"/><path d="m318.765 152.466-1.982-.04c-.653 0 .163 1.815.816 1.815l1.027.057z" fill="#6f6f6f"/><path d="m312.974 150.742-.253 3.451 5.312.39.253-3.451z" fill="#6f6f6f"/><path d="m312.467 157.682-.254 3.451 5.312.389.254-3.451z" fill="#6f6f6f"/><path d="m315.031 132.645-.347 4.726 3.872.284.348-4.726z" fill="#c1bcbc"/><path d="m312.467 147.018-.155 2.095 6.557.481.154-2.095z" fill="#aaa9a9"/><path d="m315.017 142.203-.421 5.733 2.31.169.421-5.733z" fill="#aaa9a9"/><path d="m314.244 135.933-.529 7.194 4.946.362.529-7.194z" fill="#6f6f6f"/><path d="m315.753 142.305-.517 7.015 1.033.076.517-7.015z" fill="#6f6f6f"/><path d="m317.705 142.44-.517 7.015 1.033.076.518-7.015z" fill="#6f6f6f"/><path d="m313.791 142.164-.516 7.016 1.033.075.516-7.015z" fill="#6f6f6f"/><path d="m312.979 150.747-.09 1.226 5.312.389.09-1.226z" fill="#6f6f6f"/><path d="m311.383 148.61-.207 2.818 8.793.644.208-2.817z" fill="#c1bcbc"/><path d="m315.633 150.934-.016.268z" fill="#9e6667"/><path d="m320.054 140.944-7.333-.537.187-2.483 8.336.016z" fill="#c1bcbc"/><path d="m318.316 134.098c.025-.383-.261-.716-.644-.749-.384-.024-.718.261-.751.643-.024.383.261.717.645.749.391.033.726-.252.75-.643z" fill="#6f6f6f"/><path d="m313.406 150.17c.024-.382-.261-.716-.644-.749-.384-.024-.718.261-.751.644-.024.382.261.716.645.749.391.032.726-.261.75-.644z" fill="#6f6f6f"/><path d="m318.446 162.862c-.081 0-.155-.024-.228-.073-.18-.122-.22-.375-.098-.554 2.52-3.582 3.222-7.058 2.072-10.348-.849-2.45-2.447-3.859-2.464-3.867-.163-.147-.179-.391-.04-.554.146-.162.391-.179.554-.04.074.065 1.77 1.563 2.692 4.201.538 1.555.701 3.183.465 4.836-.286 2.052-1.175 4.152-2.643 6.228-.065.114-.188.171-.31.171z" fill="#6f6f6f"/><path d="m325.355 168.269c0-.114-.081-.204-.195-.212l-.245-.008c0-.016 0-.033 0-.049l.245-.016c.114-.008.195-.106.187-.212l-.024-.415c0-.016 0-.033 0-.041l-.008-.073-.009-.073c0-.017-.008-.033-.008-.041l-.049-.415c-.008-.114-.114-.188-.22-.179l-.245.024c0-.016-.008-.033-.008-.049l.245-.049c.106-.024.179-.13.155-.244l-.09-.407c0-.016 0-.033-.008-.041l-.016-.073-.017-.073c0-.017-.008-.033-.016-.041l-.106-.407c-.024-.106-.139-.171-.245-.147l-.236.057c-.008-.016-.008-.032-.017-.049l.229-.081c.106-.041.163-.155.122-.26l-.138-.391c0-.017-.009-.025-.009-.041l-.024-.065-.025-.065c-.008-.017-.008-.025-.016-.041l-.155-.391c-.041-.106-.163-.154-.261-.114l-.228.09c-.008-.016-.017-.033-.025-.049l.221-.114c.097-.049.138-.171.081-.277l-.196-.366c0-.016-.008-.025-.016-.041l-.041-.065-.032-.065c-.009-.016-.017-.025-.025-.033l-.212-.358c-.057-.098-.179-.13-.277-.073l-.212.122c-.008-.016-.017-.033-.025-.041l.196-.146c.09-.066.114-.196.049-.285l-.245-.342c-.008-.017-.016-.025-.024-.041l-.049-.057-.041-.057c-.008-.008-.016-.024-.033-.033l-.261-.325c-.073-.09-.195-.106-.285-.033l-.196.155c-.008-.016-.024-.025-.032-.041l.179-.171c.082-.081.082-.203.008-.285l-.294-.301c-.008-.008-.016-.024-.024-.033l-.057-.048-.049-.049c-.008-.008-.025-.017-.033-.025l-.301-.285c-.082-.081-.213-.073-.286.009l-.171.179c-.017-.008-.025-.025-.041-.033l.155-.195c.065-.09.049-.212-.033-.285l-.326-.253c-.008-.008-.024-.016-.033-.032l-.057-.041-.057-.041c-.008-.008-.024-.016-.041-.024l-.342-.244c-.09-.065-.22-.041-.286.049l-.146.203c-.017-.008-.033-.016-.041-.024l.122-.212c.057-.098.025-.22-.073-.277l-.359-.212c-.008-.008-.025-.016-.041-.024l-.065-.033-.065-.032c-.017-.008-.025-.016-.041-.016l-.367-.196c-.098-.049-.22-.016-.278.09l-.114.22c-.016-.009-.032-.017-.049-.025l.09-.228c.041-.106-.008-.22-.114-.26l-.392-.155c-.016-.008-.024-.016-.04-.016l-.074-.025-.065-.024c-.016-.008-.025-.008-.041-.008l-.391-.139c-.106-.04-.221.017-.261.122l-.082.228c-.016-.008-.033-.008-.049-.016l.057-.236c.025-.106-.041-.22-.147-.244l-.408-.098c-.016-.008-.024-.008-.04-.016l-.074-.017-.073-.016c-.016 0-.033-.008-.041-.008l-.408-.081c-.114-.025-.22.048-.236.154l-.049.245c-.017 0-.033-.009-.049-.009l.024-.244c.008-.114-.073-.212-.179-.22l-.604-.057c-.114-.008-.212.074-.22.179l-.024.245c-.017 0-.033 0-.049 0v-.245c0-.114-.09-.203-.204-.203h-.416c-.017 0-.033-.008-.041 0h-.073-.074c-.016 0-.033 0-.041.008l-.416.016c-.114.009-.195.098-.195.212l.008.244c-.017 0-.033 0-.049.008l-.033-.244c-.016-.114-.122-.187-.228-.171l-.416.057c-.017 0-.033 0-.041 0l-.073.016-.074.009c-.016 0-.032.008-.041.008l-.407.073c-.115.016-.18.122-.164.236l.041.244c-.016 0-.032.009-.049.009l-.065-.237c-.033-.105-.147-.171-.253-.138l-.399.114c-.017 0-.033 0-.041.008l-.074.025-.073.016c-.016.008-.025.008-.041.016l-.4.13c-.106.033-.163.147-.13.253l.082.236c-.017.008-.033.016-.049.016l-.098-.22c-.049-.105-.163-.146-.269-.105l-.384.171c-.016 0-.024.008-.041.016l-.065.032-.065.033c-.016.008-.025.016-.041.024l-.375.188c-.098.048-.139.171-.09.268l.106.22c-.016.008-.032.016-.049.025l-.13-.212c-.057-.098-.188-.122-.278-.065l-.35.22c-.017.008-.025.008-.041.024l-.065.041-.066.04c-.016.009-.024.017-.032.025l-.343.236c-.09.065-.114.187-.049.285l.139.203c-.016.009-.025.025-.041.033l-.163-.187c-.073-.082-.204-.098-.285-.025l-.319.269c-.008.008-.024.016-.032.024l-.057.049-.057.049c-.009.008-.025.025-.033.033l-.31.285c-.082.073-.09.203-.008.285l.171.179c-.016.008-.024.024-.032.032l-.188-.163c-.082-.073-.212-.065-.286.017l-.277.309c-.008.008-.024.016-.033.033l-.048.057-.049.057c-.009.008-.017.024-.025.032l-.269.326c-.073.089-.057.212.024.285l.196.155c-.008.016-.024.024-.032.04l-.204-.138c-.09-.065-.221-.033-.286.057l-.228.35c-.008.008-.017.024-.025.032l-.04.066-.041.057c-.008.016-.017.024-.017.04l-.22.359c-.057.097-.024.219.065.276l.213.131c-.009.016-.017.032-.025.048l-.22-.105c-.098-.049-.22-.008-.269.097l-.18.375c-.008.008-.016.024-.024.041l-.033.065-.033.065c-.008.016-.008.024-.016.041l-.163.382c-.041.106 0 .22.106.269l.228.098c-.008.016-.008.032-.016.048l-.236-.073c-.106-.032-.221.025-.253.13l-.123.399c-.008.017-.016.025-.016.041l-.016.073-.025.074c-.008.016-.008.032-.008.04l-.106.407c-.033.106.033.22.147.253l.236.065c-.008.016-.008.032-.008.049l-.244-.041c-.115-.016-.212.057-.237.163l-.065.415c-.008.016-.008.025-.008.041l-.009.073-.008.073v.041l-.049.415c-.016.114.066.212.18.228l.245.033v.049l-.245-.008c-.114 0-.204.081-.204.195l-.008.415c0 .016-.008.033 0 .041v.073.073.041l.008.415c0 .114.098.204.204.196l.245-.008v.048l-.245.025c-.114.016-.188.114-.18.228l.049.415v.041l.008.073.009.073c0 .017.008.033.008.041l.065.415c.016.114.122.188.237.171l.244-.04c0 .016.008.032.008.048l-.236.066c-.106.024-.171.138-.147.244l.106.407c0 .016 0 .032.008.041l.025.073.016.065c0 .016.008.024.016.041l.123.399c.032.106.147.163.253.138l.236-.073c.008.016.008.032.016.049l-.228.097c-.106.041-.155.163-.106.269l.163.383c0 .016.008.024.016.04l.033.066.025.065c.008.016.016.024.024.04l.179.375c.049.098.172.146.27.098l.22-.106c.008.016.016.032.024.04l-.212.123c-.098.057-.13.179-.073.276l.212.359c.008.016.008.024.016.04l.041.065.041.066c.008.016.016.024.024.032l.229.35c.057.098.187.122.277.057l.204-.138c.008.016.024.024.033.041l-.196.154c-.09.074-.098.196-.033.285l.261.326c.008.016.016.024.025.032l.049.057.049.057c.008.009.016.025.032.033l.277.318c.074.081.204.089.286.016l.188-.163c.016.008.024.024.032.033l-.171.179c-.074.081-.074.211.008.285l.31.285c.008.008.016.024.033.032l.057.049.057.049c.008.008.024.016.032.024l.319.269c.081.073.212.065.285-.024l.163-.188c.016.008.025.025.041.033l-.139.203c-.065.09-.04.22.049.285l.343.236c.008.009.024.017.032.025l.066.041.057.04c.016.008.024.017.041.025l.35.228c.098.057.221.032.278-.057l.13-.204c.016.008.033.016.041.025l-.114.219c-.049.098-.008.22.089.269l.376.187c.008.008.024.017.04.025l.066.032.065.033c.016.008.024.008.041.016l.383.171c.098.049.22 0 .269-.098l.106-.219c.017.008.033.016.049.016l-.081.228c-.033.106.016.22.13.26l.392.139c.016.008.024.016.04.016l.074.025.065.024c.016.008.025.008.041.008l.4.122c.106.033.22-.032.252-.138l.074-.236c.016 0 .033.008.049.008l-.049.244c-.025.114.049.22.163.236l.408.082c.016.008.024.008.041.008l.073.008.073.016h.041l.416.065c.114.017.212-.057.229-.171l.04-.244c.017 0 .033 0 .049.008l-.008.244c-.008.114.082.204.196.212l.416.025c.016 0 .024.008.041.008h.073.074.04.416c.114 0 .204-.09.204-.204v-.244h.049l.025.244c.008.114.106.196.22.179l.416-.04h.041l.073-.009.073-.008c.017 0 .033 0 .041-.008l.416-.057c.114-.016.188-.114.172-.228l-.033-.244c.016 0 .033-.008.049-.008l.057.236c.024.106.139.179.245.155l.407-.098c.017 0 .033 0 .041-.008l.074-.017.073-.016c.016-.008.025-.008.041-.016l.399-.114c.107-.033.172-.138.139-.252l-.065-.237c.016-.008.033-.008.049-.016l.09.228c.04.106.155.155.261.114l.391-.155c.016 0 .025-.008.041-.016l.065-.032.065-.025c.017-.008.025-.008.041-.016l.384-.171c.106-.049.146-.163.106-.269l-.098-.228c.016-.008.032-.016.049-.024l.122.211c.057.098.179.131.277.074l.367-.204c.017-.008.025-.008.041-.016l.065-.041.066-.032c.016-.008.024-.017.032-.025l.359-.22c.098-.057.123-.187.065-.276l-.13-.212c.016-.008.024-.016.041-.033l.147.196c.065.089.195.106.285.04l.334-.252c.017-.008.025-.016.033-.024l.057-.049.057-.041c.008-.008.025-.016.033-.032l.318-.269c.09-.073.098-.204.024-.285l-.155-.187c.017-.009.025-.025.041-.033l.18.171c.081.081.212.073.285 0l.294-.301c.008-.008.024-.016.032-.033l.049-.057.049-.049c.008-.008.017-.024.025-.032l.277-.31c.074-.081.065-.211-.016-.285l-.188-.162c.008-.017.025-.025.033-.041l.196.146c.089.066.22.049.285-.04l.245-.334c.008-.008.016-.024.032-.033l.041-.057.041-.057c.008-.016.016-.024.024-.04l.237-.342c.065-.09.041-.22-.057-.285l-.204-.139c.008-.016.016-.032.024-.04l.213.114c.097.057.22.016.277-.082l.196-.366c.008-.008.016-.025.024-.041l.033-.065.032-.065c.008-.016.017-.025.017-.041l.187-.374c.049-.098.008-.22-.089-.269l-.221-.106c.008-.016.017-.032.025-.049l.228.082c.106.04.22-.017.261-.122l.147-.391c.008-.008.016-.025.016-.041l.025-.073.024-.065c.008-.017.008-.025.008-.041l.131-.399c.033-.106-.025-.22-.131-.252l-.236-.074c.008-.016.008-.032.016-.048l.237.048c.106.025.22-.048.244-.154l.09-.407c.008-.017.008-.025.016-.041l.017-.073.016-.074c0-.016.008-.032.008-.04l.074-.416c.016-.114-.057-.211-.163-.236l-.245-.04c0-.017.008-.033.008-.049l.245.016c.114.008.212-.073.22-.187l.033-.415c.008-.017.008-.025.008-.041v-.073l.008-.074c0-.016 0-.032 0-.04z" fill="#343433"/><path d="m314.157 174.4c3.426 0 6.215-2.784 6.215-6.204 0-3.419-2.789-6.204-6.215-6.204s-6.216 2.785-6.216 6.204c.009 3.428 2.79 6.204 6.216 6.204z" fill="#8cc241"/><path d="m314.157 174.644c3.556 0 6.452-2.89 6.452-6.44s-2.896-6.44-6.452-6.44-6.452 2.89-6.452 6.44 2.896 6.44 6.452 6.44z" fill="#21201f"/><path d="m314.157 174.644c3.556 0 6.452-2.89 6.452-6.44s-2.896-6.44-6.452-6.44-6.452 2.89-6.452 6.44 2.896 6.44 6.452 6.44z" fill="#2b2b2b"/><path d="m314.155 174.09c3.255 0 5.897-2.646 5.897-5.887 0-3.248-2.651-5.894-5.897-5.894-3.254 0-5.897 2.638-5.897 5.894 0 3.249 2.643 5.887 5.897 5.887z" fill="#fff"/><path d="m314.157 172.65c2.455 0 4.453-1.994 4.453-4.445s-1.998-4.445-4.453-4.445c-2.456 0-4.454 1.994-4.454 4.445.008 2.451 1.998 4.445 4.454 4.445z" fill="#6f6f6f"/><path d="m314.311 172.021c2.113-.081 3.761-1.864 3.679-3.973-.081-2.109-1.868-3.753-3.98-3.672-2.113.081-3.761 1.864-3.679 3.973s1.868 3.753 3.98 3.672z" fill="#9b9b95"/><path d="m314.155 170.166c1.085 0 1.966-.879 1.966-1.962s-.881-1.962-1.966-1.962-1.966.879-1.966 1.962.881 1.962 1.966 1.962z" fill="#6f6f6f"/><path d="m314.158 169.963c.971 0 1.762-.79 1.762-1.759s-.791-1.759-1.762-1.759c-.97 0-1.762.79-1.762 1.759.009.969.792 1.759 1.762 1.759z" fill="#9b9b95"/><path d="m313.748 168.204c0 .228.188.416.416.416s.416-.188.416-.416-.188-.415-.416-.415c-.236 0-.416.187-.416.415z" fill="#141414"/><path d="m313.977 167.033c0 .097.081.179.179.179s.179-.082.179-.179c0-.098-.081-.179-.179-.179s-.179.081-.179.179z" fill="#141414"/><path d="m314.858 167.25c-.074.074-.074.188 0 .253.073.073.187.073.253 0 .073-.074.073-.188 0-.253-.066-.073-.18-.073-.253 0z" fill="#141414"/><path d="m315.332 168.027c-.098 0-.18.082-.18.179 0 .098.082.18.18.18s.179-.082.179-.18c0-.097-.081-.179-.179-.179z" fill="#141414"/><path d="m315.111 168.903c-.074-.074-.188-.074-.253 0-.074.065-.074.179 0 .252.073.073.187.073.253 0 .073-.073.073-.187 0-.252z" fill="#141414"/><path d="m314.335 169.369c0-.098-.081-.18-.179-.18s-.179.082-.179.18c0 .097.081.179.179.179s.179-.074.179-.179z" fill="#141414"/><path d="m313.456 169.155c.074-.073.074-.187 0-.252-.073-.074-.179-.074-.253 0-.073.065-.073.179 0 .252.074.065.188.065.253 0z" fill="#141414"/><path d="m312.99 168.386c.098 0 .179-.082.179-.18 0-.097-.081-.179-.179-.179s-.179.082-.179.179c0 .098.081.18.179.18z" fill="#141414"/><path d="m313.201 167.503c.074.073.188.073.253 0 .074-.074.074-.188 0-.253-.073-.073-.179-.073-.253 0-.065.065-.065.179 0 .253z" fill="#141414"/><path d="m313.748 165.386c0 .228.188.415.416.415s.416-.187.416-.415-.188-.415-.416-.415c-.236.008-.416.187-.416.415z" fill="#141414"/><path d="m311.873 166.509c.163.163.424.163.588 0 .163-.163.163-.423 0-.586-.164-.163-.425-.163-.588 0-.155.163-.163.423 0 .586z" fill="#141414"/><path d="m311.342 168.621c.228 0 .416-.187.416-.415s-.188-.415-.416-.415c-.229 0-.416.187-.416.415s.187.415.416.415z" fill="#141414"/><path d="m312.46 170.482c.163-.163.163-.424 0-.586-.163-.163-.425-.163-.588 0-.163.162-.163.423 0 .586s.425.163.588 0z" fill="#141414"/><path d="m314.572 171.013c0-.228-.187-.415-.416-.415-.228 0-.416.187-.416.415s.188.415.416.415c.229 0 .416-.187.416-.415z" fill="#141414"/><path d="m316.44 169.896c-.163-.163-.424-.163-.587 0-.163.162-.163.423 0 .586s.424.163.587 0 .163-.424 0-.586z" fill="#141414"/><path d="m316.978 167.791c-.228 0-.416.187-.416.415s.188.415.416.415c.229 0 .416-.187.416-.415s-.187-.415-.416-.415z" fill="#141414"/><path d="m315.863 165.923c-.164.163-.164.423 0 .586.163.163.424.163.587 0s.163-.423 0-.586-.432-.163-.587 0z" fill="#141414"/><path d="m304.018 157.685c0-.497-.408-.904-.906-.904-.497 0-.905.407-.905.904s.408.904.905.904c.506-.008.906-.407.906-.904z" fill="#c1bcbc"/><path d="m306.817 154.005c0-.496-.408-.903-.906-.903-.497 0-.905.407-.905.903 0 .497.408.904.905.904.506-.008.906-.407.906-.904z" fill="#c1bcbc"/><path d="m337.193 157.688-.254 3.451 5.312.389.254-3.451z" fill="#6f6f6f"/><path d="m350.078 168.269c0-.114-.082-.204-.196-.212l-.245-.008c0-.016 0-.033 0-.049l.245-.016c.114-.008.196-.106.188-.212l-.025-.415c0-.016 0-.033 0-.041l-.008-.073-.008-.073c0-.017 0-.033-.008-.041l-.049-.415c-.009-.114-.115-.188-.221-.179l-.244.024c0-.016-.008-.033-.008-.049l.244-.049c.106-.024.18-.13.155-.244l-.09-.407c0-.016 0-.033-.008-.041l-.016-.073-.016-.073c0-.017-.008-.033-.017-.041l-.106-.407c-.024-.106-.138-.171-.244-.147l-.237.057c-.008-.016-.008-.032-.016-.049l.228-.081c.106-.041.163-.155.123-.26l-.139-.391c0-.017-.008-.025-.008-.041l-.025-.065-.024-.065c-.008-.017-.008-.025-.017-.041l-.155-.391c-.04-.106-.163-.154-.261-.114l-.228.09c-.008-.016-.016-.033-.024-.049l.22-.114c.098-.049.139-.171.081-.277l-.195-.366c0-.016-.008-.025-.017-.041l-.04-.065-.033-.065c-.008-.016-.016-.025-.025-.033l-.212-.358c-.057-.098-.179-.13-.277-.073l-.212.122c-.008-.016-.016-.033-.024-.041l.203-.146c.09-.066.115-.196.049-.285l-.244-.342c-.008-.017-.017-.025-.025-.041l-.049-.057-.04-.057c-.009-.008-.017-.024-.033-.033l-.261-.325c-.074-.09-.196-.106-.286-.033l-.195.155c-.009-.016-.025-.025-.033-.041l.179-.171c.082-.081.082-.203.009-.285l-.294-.301c-.008-.008-.016-.024-.025-.033l-.057-.048-.049-.049c-.008-.008-.024-.017-.032-.025l-.302-.285c-.082-.081-.212-.073-.285.009l-.172.179c-.016-.008-.024-.025-.041-.033l.155-.195c.066-.09.049-.212-.032-.285l-.326-.253c-.009-.008-.025-.016-.033-.032l-.057-.041-.057-.041c-.008-.008-.025-.016-.041-.024l-.343-.244c-.089-.065-.22-.041-.285.049l-.147.203c-.016-.008-.033-.016-.041-.024l.123-.212c.057-.098.024-.22-.074-.277l-.359-.212c-.008-.008-.024-.016-.032-.024l-.066-.033-.065-.032c-.016-.008-.024-.016-.041-.016l-.375-.196c-.098-.049-.22-.016-.277.09l-.114.22c-.017-.009-.033-.017-.049-.025l.089-.228c.041-.106-.008-.22-.114-.26l-.391-.155c-.008-.008-.025-.016-.041-.016l-.073-.025-.066-.024c-.016-.008-.024-.008-.04-.008l-.392-.139c-.106-.04-.22.017-.261.122l-.082.228c-.016-.008-.032-.008-.048-.016l.057-.236c.024-.106-.041-.22-.147-.244l-.408-.098c-.016-.008-.025-.008-.041-.016l-.073-.017-.074-.016c-.016 0-.024-.008-.04-.008l-.408-.081c-.114-.025-.221.048-.237.154l-.049.245c-.016 0-.032-.009-.049-.009l.025-.244c.008-.114-.074-.212-.18-.22l-.603-.057c-.114-.008-.212.074-.22.179l-.025.245c-.016 0-.033 0-.049 0v-.245c0-.114-.09-.203-.204-.203h-.416c-.016 0-.032-.008-.041 0h-.073-.073c-.017 0-.033 0-.041.008l-.416.016c-.114.009-.196.098-.196.212l.008.244c-.016 0-.032 0-.049.008l-.032-.244c-.017-.114-.123-.187-.229-.171l-.416.057c-.016 0-.032 0-.041 0l-.073.016-.073.009c-.017 0-.033.008-.041.008l-.408.073c-.114.016-.179.122-.163.236l.041.244c-.017 0-.033.009-.049.009l-.065-.237c-.033-.105-.147-.171-.253-.138l-.4.114c-.016 0-.033 0-.041.008l-.073.025-.074.016c-.016.008-.024.008-.04.016l-.4.13c-.106.033-.163.147-.131.253l.082.236c-.016.008-.033.016-.049.016l-.098-.22c-.049-.105-.163-.146-.269-.105l-.383.171c-.017 0-.025.008-.041.016l-.065.032-.066.033c-.016.008-.024.016-.04.024l-.376.188c-.098.048-.138.171-.089.268l.106.22c-.017.008-.033.016-.049.025l-.131-.212c-.057-.098-.187-.122-.277-.065l-.351.22c-.016.008-.024.008-.041.024l-.065.041-.065.04c-.016.009-.025.017-.033.025l-.342.236c-.09.065-.115.187-.049.285l.138.203c-.016.009-.024.025-.04.033l-.164-.187c-.073-.082-.203-.098-.285-.025l-.318.269c-.016.008-.025.016-.033.024l-.057.049-.057.049c-.008.008-.024.025-.033.033l-.31.285c-.081.073-.089.203-.008.285l.172.179c-.017.008-.025.024-.033.032l-.188-.163c-.081-.073-.212-.065-.285.017l-.277.309c-.009.008-.025.016-.033.033l-.049.057-.049.057c-.008.008-.016.024-.024.032l-.27.326c-.073.089-.057.212.025.285l.196.155c-.009.016-.025.024-.033.04l-.204-.138c-.09-.065-.22-.033-.285.057l-.229.35c-.008.008-.016.024-.024.032l-.041.066-.041.057c-.008.016-.016.024-.016.04l-.22.359c-.057.097-.025.219.065.276l.212.131c-.008.016-.016.032-.024.048l-.221-.105c-.098-.049-.22-.008-.269.097l-.179.375c-.008.008-.017.024-.025.041l-.032.065-.033.065c-.008.016-.008.024-.016.041l-.164.382c-.04.106 0 .22.107.269l.228.098c-.008.016-.016.032-.016.048l-.237-.073c-.106-.032-.22.025-.253.13l-.122.399c-.008.017-.016.025-.016.041l-.017.073-.024.074c-.008.016-.008.032-.008.04l-.106.407c-.033.106.032.22.146.253l.237.065c-.008.016-.008.032-.008.049l-.245-.041c-.114-.016-.212.057-.236.163l-.066.415c-.008.016-.008.025-.008.041l-.008.073-.008.073v.041l-.049.415c-.016.114.065.212.179.228l.245.033v.049l-.245-.008c-.114 0-.204.081-.204.195l-.008.415c0 .016-.008.033 0 .041v.073.073.041l.008.415c0 .114.098.204.204.196l.245-.008v.048l-.245.025c-.114.016-.187.114-.179.228l.049.415v.041l.008.073.008.073c0 .017.008.033.008.041l.066.415c.016.114.122.188.236.171l.245-.04c0 .016.008.032.008.048l-.237.066c-.106.024-.171.138-.146.244l.106.407c0 .016 0 .032.008.041l.024.073.017.065c0 .016.008.024.016.041l.122.399c.033.106.147.163.253.138l.237-.073c.008.016.008.032.016.049l-.228.097c-.107.041-.155.163-.107.269l.164.383c0 .016.008.024.016.04l.033.066.024.065c.008.016.016.024.025.04l.179.375c.049.098.171.146.269.098l.22-.106c.009.016.017.032.025.04l-.212.123c-.098.057-.131.179-.074.276l.212.359c.009.016.009.024.017.04l.041.065.04.066c.008.016.017.024.025.032l.228.35c.065.098.188.122.277.057l.204-.138c.009.016.025.024.033.041l-.196.154c-.089.074-.098.196-.032.285l.261.326c.008.016.016.024.024.032l.049.057.049.057c.008.009.016.025.033.033l.277.318c.073.081.204.089.285.016l.188-.163c.016.008.025.024.033.033l-.172.179c-.073.081-.073.211.009.285l.309.285c.009.008.017.024.033.032l.057.049.057.049c.008.008.025.016.033.024l.318.269c.082.073.212.065.286-.024l.163-.188c.016.008.024.025.04.033l-.138.203c-.065.09-.041.22.049.285l.342.236c.008.009.025.017.033.025l.065.041.057.04c.017.008.025.017.041.025l.351.228c.098.057.22.032.277-.057l.131-.204c.016.008.032.016.04.025l-.114.219c-.049.098-.008.22.09.269l.375.187c.008.008.025.017.041.025l.065.032.065.033c.017.008.025.008.041.016l.384.171c.097.049.22 0 .269-.098l.106-.219c.016.008.032.016.049.016l-.082.228c-.032.106.016.22.131.26l.391.139c.016.008.025.016.041.016l.073.025.066.024c.016.008.024.008.04.008l.4.122c.106.033.22-.032.253-.138l.073-.236c.017 0 .033.008.049.008l-.049.244c-.024.114.049.22.163.236l.408.082c.017.008.025.008.041.008l.074.008.073.016h.041l.416.065c.114.017.212-.057.228-.171l.041-.244c.016 0 .032 0 .049.008l-.008.244c-.009.114.081.204.195.212l.416.025c.017 0 .025.008.041.008h.074.073.041.416c.114 0 .204-.09.204-.204v-.244h.049l.024.244c.008.114.106.196.22.179l.416-.04h.041l.073-.009.074-.008c.016 0 .033 0 .041-.008l.416-.057c.114-.016.187-.114.171-.228l-.033-.244c.017 0 .033-.008.049-.008l.057.236c.025.106.139.179.245.155l.408-.098c.016 0 .033 0 .041-.008l.073-.017.074-.016c.016-.008.024-.008.04-.016l.4-.114c.106-.033.171-.138.139-.252l-.066-.237c.017-.008.033-.008.049-.016l.09.228c.041.106.155.155.261.114l.392-.155c.016 0 .024-.008.04-.016l.066-.032.065-.025c.016-.008.024-.008.041-.016l.383-.171c.106-.049.147-.163.106-.269l-.098-.228c.016-.008.033-.016.049-.024l.122.211c.058.098.18.131.278.074l.367-.204c.016-.008.024-.008.041-.016l.065-.041.065-.032c.016-.008.025-.017.033-.025l.359-.22c.098-.057.122-.187.065-.276l-.131-.212c.017-.008.025-.016.041-.033l.147.196c.065.089.196.106.285.04l.335-.252c.016-.008.024-.016.033-.024l.057-.049.057-.041c.008-.008.024-.016.032-.032l.318-.269c.09-.073.098-.204.025-.285l-.155-.187c.016-.009.024-.025.041-.033l.179.171c.082.081.212.073.286 0l.293-.301c.008-.008.025-.016.033-.033l.049-.057.049-.049c.008-.008.016-.024.024-.032l.278-.31c.073-.081.065-.211-.017-.285l-.187-.162c.008-.017.024-.025.032-.041l.196.146c.09.066.22.049.286-.04l.244-.334c.008-.008.017-.024.033-.033l.041-.057.04-.057c.009-.016.017-.024.025-.04l.236-.342c.066-.09.041-.22-.057-.285l-.204-.139c.009-.016.017-.032.025-.04l.22.114c.098.057.22.016.277-.082l.196-.366c.008-.008.017-.025.025-.041l.032-.065.033-.065c.008-.016.016-.025.016-.041l.188-.374c.049-.098.008-.22-.09-.269l-.22-.106c.008-.016.016-.032.016-.049l.229.082c.106.04.22-.017.261-.122l.146-.391c.009-.008.017-.025.017-.041l.024-.073.025-.065c.008-.017.008-.025.008-.041l.13-.399c.033-.106-.024-.22-.13-.252l-.237-.074c.008-.016.008-.032.017-.048l.236.048c.106.025.22-.048.245-.154l.09-.407c.008-.017.008-.025.016-.041l.016-.073.017-.074c0-.016.008-.032.008-.04l.073-.416c.016-.114-.057-.211-.163-.236l-.245-.04c0-.017.008-.033.008-.049l.245.016c.114.008.212-.073.22-.187l.033-.415c.008-.017.008-.025.008-.041v-.073l.008-.074c0-.016 0-.032 0-.04z" fill="#343433"/><path d="m338.885 174.398c3.426 0 6.216-2.784 6.216-6.204 0-3.419-2.79-6.204-6.216-6.204-3.425 0-6.215 2.785-6.215 6.204 0 3.428 2.79 6.204 6.215 6.204z" fill="#8cc241"/><path d="m338.886 174.642c3.556 0 6.451-2.89 6.451-6.44s-2.895-6.44-6.451-6.44c-3.557 0-6.452 2.89-6.452 6.44s2.895 6.44 6.452 6.44z" fill="#21201f"/><path d="m338.886 174.642c3.556 0 6.451-2.89 6.451-6.44s-2.895-6.44-6.451-6.44c-3.557 0-6.452 2.89-6.452 6.44s2.895 6.44 6.452 6.44z" fill="#2b2b2b"/><path d="m338.886 174.09c3.254 0 5.897-2.646 5.897-5.887 0-3.248-2.651-5.894-5.897-5.894-3.255 0-5.898 2.638-5.898 5.894 0 3.249 2.643 5.887 5.898 5.887z" fill="#fff"/><path d="m338.885 172.647c2.455 0 4.454-1.995 4.454-4.446 0-2.45-1.999-4.445-4.454-4.445s-4.453 1.995-4.453 4.445c0 2.451 1.998 4.446 4.453 4.446z" fill="#6f6f6f"/><path d="m339.03 172.021c2.113-.081 3.76-1.864 3.679-3.973-.082-2.109-1.868-3.753-3.981-3.672-2.112.081-3.76 1.864-3.678 3.973.09 2.109 1.876 3.753 3.98 3.672z" fill="#9b9b95"/><path d="m338.886 170.165c1.085 0 1.965-.88 1.965-1.963 0-1.082-.88-1.962-1.965-1.962s-1.966.88-1.966 1.962c0 1.083.881 1.963 1.966 1.963z" fill="#6f6f6f"/><path d="m338.885 169.963c.971 0 1.762-.79 1.762-1.759s-.791-1.759-1.762-1.759-1.762.79-1.762 1.759.791 1.759 1.762 1.759z" fill="#9b9b95"/><path d="m338.471 168.202c0 .228.187.416.416.416.228 0 .416-.188.416-.416s-.188-.415-.416-.415c-.229 0-.416.187-.416.415z" fill="#141414"/><path d="m338.707 167.029c0 .097.082.179.179.179.098 0 .18-.082.18-.179 0-.098-.082-.179-.18-.179-.097 0-.179.081-.179.179z" fill="#141414"/><path d="m339.588 167.248c-.073.074-.073.188 0 .253.074.073.188.073.253 0 .074-.074.074-.188 0-.253-.073-.073-.179-.073-.253 0z" fill="#141414"/><path d="m340.062 168.023c-.098 0-.179.082-.179.18 0 .097.081.179.179.179s.18-.082.18-.179c0-.098-.082-.18-.18-.18z" fill="#141414"/><path d="m339.841 168.903c-.073-.074-.187-.074-.253 0-.073.065-.073.179 0 .252.074.073.188.073.253 0 .074-.073.074-.187 0-.252z" fill="#141414"/><path d="m339.066 169.367c0-.098-.082-.179-.18-.179-.097 0-.179.081-.179.179 0 .097.082.179.179.179.098 0 .18-.074.18-.179z" fill="#141414"/><path d="m338.183 169.155c.073-.073.073-.187 0-.252-.073-.074-.18-.074-.253 0-.073.065-.073.179 0 .252.065.065.18.065.253 0z" fill="#141414"/><path d="m337.711 168.382c.098 0 .179-.082.179-.179 0-.098-.081-.18-.179-.18s-.18.082-.18.18c0 .097.082.179.18.179z" fill="#141414"/><path d="m337.93 167.501c.073.073.188.073.253 0 .073-.074.073-.188 0-.253-.073-.073-.18-.073-.253 0-.073.065-.073.179 0 .253z" fill="#141414"/><path d="m338.471 165.386c0 .228.187.415.416.415.228 0 .416-.187.416-.415s-.188-.415-.416-.415c-.229 0-.416.187-.416.415z" fill="#141414"/><path d="m336.601 166.509c.163.163.424.163.587 0s.163-.423 0-.586-.424-.163-.587 0-.163.423 0 .586z" fill="#141414"/><path d="m336.072 168.618c.229 0 .416-.188.416-.416s-.187-.415-.416-.415c-.228 0-.416.187-.416.415s.188.416.416.416z" fill="#141414"/><path d="m337.188 170.482c.163-.163.163-.424 0-.586-.163-.163-.424-.163-.587 0-.163.162-.163.423 0 .586s.424.163.587 0z" fill="#141414"/><path d="m339.303 171.011c0-.228-.188-.415-.416-.415-.229 0-.416.187-.416.415s.187.415.416.415c.228 0 .416-.187.416-.415z" fill="#141414"/><path d="m341.169 169.896c-.164-.163-.425-.163-.588 0-.163.162-.163.423 0 .586s.424.163.588 0c.163-.163.163-.424 0-.586z" fill="#141414"/><path d="m341.699 167.787c-.228 0-.416.187-.416.415s.188.416.416.416c.229 0 .416-.188.416-.416s-.187-.415-.416-.415z" fill="#141414"/><path d="m340.581 165.923c-.163.163-.163.423 0 .586s.424.163.588 0c.163-.163.163-.423 0-.586-.164-.163-.425-.163-.588 0z" fill="#141414"/><path d="m105.24 144.072 5.146.383.441-5.887-23.3037-1.742-.6444 8.525 18.1651 1.351z" fill="#f2f2f2"/><path d="m87.5212 136.826-.1911 2.549 23.3029 1.741.192-2.549z" fill="#f2f2f2"/><path d="m466.433 58.9902h-325.034c-17.896 0-37.578 8.2394-55.0739 18.4247-3.752 3.2892-4.0865 12.9371-8.1403 15.6401-4.7064 3.1346-18.5319 6.4971-18.5319 6.4971s-20.204 7.8569-24.16 20.0529c-.5791 1.368.0326 2.353.1061 2.679 4.5921 21.038 155.188 17.928 197.35 16.641h155.71c62.79 0 177.929-41.8561 177.929-41.8561v-9.6805z" fill="#fff"/><path d="m466.433 58.9902h-325.034c-17.896 0-37.578 8.2394-55.0739 18.4247-3.752 3.2892-4.0865 12.9371-8.1403 15.6401-4.7064 3.1346-18.5319 6.4971-18.5319 6.4971s-20.204 7.8569-24.16 20.0529c-.5791 1.368.0326 2.353.1061 2.679 4.5921 21.038 155.188 17.928 197.35 16.641h155.71c62.79 0 177.929-41.8561 177.929-41.8561v-9.6805z" fill="url(#c)"/><path d="m506.692 70.4073-.4-.114h-406.4858c-.0408-.0081-.0734-.0081-.1061-.0081-.0815.0407-.1713.0814-.2528.1221z" fill="#fee6ca"/><path d="m442.412 68.176c0 .2687-.22.4885-.489.4885s-.489-.2198-.489-.4885.22-.4885.489-.4885.489.2198.489.4885z" fill="#efe4d7"/><path d="m58.8362 102.565c0 .268-.2202.488-.4894.488-.2691 0-.4894-.22-.4894-.488 0-.269.2203-.489.4894-.489.2692 0 .4894.22.4894.489z" fill="#f7f7f9"/><path d="m63.9339 109.649c0 .268-.2203.488-.4894.488-.2692 0-.4894-.22-.4894-.488 0-.269.2202-.489.4894-.489.2691 0 .4894.22.4894.489z" fill="#f7f7f9"/><path d="m66.0393 117.701c0 .269-.2202.489-.4894.489-.2691 0-.4894-.22-.4894-.489 0-.268.2203-.488.4894-.488.2774 0 .4894.22.4894.488z" fill="#f7f7f9"/><path d="m65.5511 125.272c0 .268-.2203.488-.4894.488-.2692 0-.4894-.22-.4894-.488 0-.269.2202-.489.4894-.489.2773 0 .4894.22.4894.489z" fill="#f7f7f9"/><path d="m464.19 68.176c0 .2687-.22.4885-.49.4885-.269 0-.489-.2198-.489-.4885s.22-.4885.489-.4885c.27 0 .49.2198.49.4885z" fill="#efe4d7"/><path d="m58.4458 133.21c.2203-.244.4405-.505.6526-.765 1.3621-1.71 2.4388-3.697 3.181-5.911.7749-2.288 1.1664-4.722 1.1664-7.238 0-2.508-.3915-4.942-1.1664-7.238-.7504-2.215-1.8189-4.201-3.181-5.911-1.3622-1.71-2.9527-3.045-4.7227-3.981-.0571-.033-.1224-.057-.1795-.09-.0816.041-.1631.09-.2528.13 5.4486 2.687 9.3148 9.331 9.3067 17.09 0 5.528-1.9658 10.494-5.0653 13.857.0897.024.1713.041.261.057z" fill="#f7f7f9"/><path d="m485.967 68.176c0 .2687-.22.4885-.489.4885s-.49-.2198-.49-.4885.221-.4885.49-.4885.489.2198.489.4885z" fill="#efe4d7"/><path d="m64.1714 126.951c-.6688-.057-1.3295-.114-1.9902-.18-.0163.074-.049.147-.0816.22.677.065 1.3622.122 2.0473.188 24.5515 2.141 57.1371 3.256 96.8931 3.297v-.228c-39.739-.049-72.3253-1.156-96.8686-3.297z" fill="#f7f7f9"/><path d="m178.112 139.871h.187v-8.321h30.457v7.979h.188v-8.158h-30.84v8.5z" fill="#f7f7f9"/><path d="m540.983 80.1367-239.944 29.9293v5.153h-31.754c-53.165 10.804-52.724 24.214-36.329 23.717h155.71.791.261c.18 0 .359 0 .539-.008h.31c.163 0 .334-.008.497-.008.106 0 .22 0 .326-.008.163 0 .327-.009.49-.009.114 0 .22-.008.334-.008.163 0 .326-.008.498-.016.106 0 .22-.008.326-.008.179-.008.351-.008.53-.016.098 0 .196-.009.294-.009.228-.008.457-.016.685-.024.049 0 .098 0 .139-.008.277-.008.554-.025.832-.033.081 0 .163-.008.244-.008.196-.008.392-.016.596-.024.106-.008.212-.008.318-.017.179-.008.351-.016.53-.024.114-.008.228-.008.343-.016.171-.008.342-.017.514-.025.114-.008.228-.016.35-.016.172-.008.343-.024.514-.033.114-.008.229-.016.343-.024.179-.008.359-.024.546-.033.106-.008.212-.016.318-.024.212-.016.424-.033.636-.041.074-.008.156-.008.229-.016.285-.024.579-.041.865-.065.065-.008.13-.008.195-.016.229-.017.449-.033.677-.049.106-.008.212-.017.318-.025.188-.016.376-.032.563-.049.114-.008.237-.016.351-.032.179-.016.359-.033.53-.049.122-.008.245-.024.359-.033.179-.016.351-.032.53-.048.123-.009.245-.025.359-.033.179-.016.367-.033.555-.049.114-.008.228-.024.342-.032.204-.017.408-.041.62-.057.09-.008.188-.017.278-.025.301-.032.595-.057.897-.089.032 0 .073-.008.106-.008.261-.025.53-.057.799-.082.106-.008.204-.024.31-.032.196-.025.4-.041.596-.066.122-.016.236-.024.358-.04.188-.025.367-.041.555-.065.122-.017.245-.025.375-.041.18-.025.367-.041.547-.065.122-.017.253-.033.375-.041.188-.024.375-.041.555-.065.122-.016.244-.033.359-.041.203-.024.399-.049.603-.073.106-.016.212-.025.318-.041.269-.032.53-.065.8-.098.04-.008.081-.008.122-.016.31-.04.612-.081.922-.122.098-.016.195-.024.293-.041.212-.024.424-.057.636-.081.123-.016.237-.033.359-.049.196-.024.384-.049.58-.081.13-.017.252-.033.383-.049.187-.025.375-.049.563-.082.13-.016.261-.032.391-.057.188-.024.375-.057.571-.081.122-.016.253-.033.375-.057.196-.033.4-.057.604-.09.114-.016.228-.032.343-.048.236-.033.481-.074.717-.106.074-.008.147-.025.221-.033.318-.049.628-.097.946-.146.089-.017.171-.025.261-.041.228-.033.465-.073.693-.106.122-.016.237-.041.359-.057.204-.032.4-.065.604-.098.13-.024.261-.04.391-.065.188-.032.383-.057.571-.089.131-.025.269-.041.4-.065.187-.033.383-.066.571-.09.13-.024.261-.041.391-.065.196-.033.4-.065.596-.098.122-.024.244-.041.375-.065.228-.041.448-.073.677-.114.098-.016.187-.032.285-.049.318-.057.645-.106.963-.163.065-.008.13-.024.196-.032.261-.041.513-.09.774-.13.123-.025.237-.041.359-.066.204-.032.408-.073.612-.105.131-.025.261-.049.392-.074.195-.032.391-.065.587-.106.13-.024.269-.048.4-.073.195-.032.391-.073.587-.106.13-.024.269-.048.4-.073.195-.032.399-.073.595-.106.13-.024.253-.049.383-.073.221-.041.433-.081.653-.122.106-.016.22-.041.326-.057.318-.057.636-.122.963-.179.016 0 .024-.008.04-.008.318-.057.637-.123.955-.18.114-.024.22-.04.334-.065.22-.04.432-.081.653-.122.13-.024.252-.049.383-.073.204-.041.4-.081.604-.114.13-.024.269-.049.399-.081.196-.041.392-.074.588-.114.138-.025.269-.057.407-.082.196-.041.4-.081.596-.122.13-.024.261-.049.399-.081.213-.041.425-.082.629-.131.122-.024.236-.049.358-.073.27-.057.531-.106.8-.163.065-.016.122-.024.187-.04.327-.066.661-.131.987-.204.098-.024.204-.041.302-.065.229-.049.457-.098.693-.147.123-.024.253-.049.376-.081.204-.041.407-.09.62-.13.138-.025.269-.057.407-.082.196-.041.4-.081.596-.122.139-.033.277-.057.408-.089.195-.041.399-.082.595-.131.131-.032.269-.057.4-.089.204-.041.416-.09.62-.131.122-.024.253-.057.375-.081.236-.049.481-.106.718-.155.089-.016.179-.04.277-.057.326-.073.661-.146.995-.22.082-.016.163-.032.245-.057.253-.057.506-.113.75-.162.123-.025.253-.057.375-.082.204-.049.416-.089.62-.138.139-.033.269-.057.408-.09.196-.04.4-.089.596-.13.138-.033.277-.065.416-.09.195-.04.391-.089.595-.13.139-.032.277-.065.416-.089.204-.049.408-.09.612-.139.13-.032.261-.057.391-.089.229-.049.457-.106.685-.155.106-.024.204-.049.31-.073.335-.074.661-.155.995-.228.049-.008.09-.025.139-.033.286-.065.579-.13.865-.203.114-.025.228-.049.334-.082.22-.049.441-.106.661-.154.13-.033.261-.066.391-.09.204-.049.4-.098.604-.138.139-.033.269-.066.408-.098.196-.049.399-.098.595-.139.139-.032.269-.065.408-.097.204-.049.408-.098.612-.147.13-.032.261-.065.391-.089.221-.049.441-.106.661-.155.114-.024.22-.057.334-.081.294-.074.58-.139.873-.212.041-.008.082-.025.123-.033.326-.081.66-.163.987-.244.106-.024.203-.049.309-.073.229-.057.457-.114.686-.171.122-.033.252-.065.375-.09.204-.049.408-.097.62-.154.13-.033.269-.066.399-.098.196-.049.4-.098.596-.147.139-.032.269-.065.408-.097.195-.049.399-.098.595-.147.131-.033.261-.065.4-.098.212-.049.416-.106.628-.154.122-.033.245-.057.359-.09.261-.065.514-.13.766-.195.074-.017.139-.033.213-.057.326-.082.652-.163.987-.253.089-.024.179-.049.269-.065.236-.065.481-.122.717-.187l.359-.09c.204-.057.416-.106.62-.163.131-.032.269-.065.4-.105.196-.049.391-.098.587-.155.139-.033.269-.073.408-.106.196-.049.392-.106.595-.155.131-.032.261-.065.392-.097.204-.057.408-.106.612-.163.122-.033.244-.065.367-.098.228-.057.448-.122.677-.179.098-.024.196-.049.293-.081.327-.082.645-.171.971-.253.049-.016.106-.024.155-.04.269-.074.547-.147.816-.22.106-.033.22-.057.326-.09.212-.057.424-.114.644-.171.123-.032.253-.065.376-.097.195-.057.399-.106.595-.163.13-.033.261-.074.392-.106.195-.049.391-.106.587-.155.13-.032.261-.073.391-.106.204-.057.4-.106.604-.163.122-.032.236-.065.359-.097.228-.065.448-.122.677-.188.09-.024.187-.048.277-.073.645-.171 1.281-.35 1.917-.521.098-.024.196-.057.294-.081.22-.057.44-.122.66-.179.123-.033.237-.066.359-.098.196-.057.4-.114.596-.163.122-.032.244-.065.367-.106.195-.057.391-.106.587-.163.122-.032.245-.065.375-.105.196-.057.392-.114.596-.163.114-.033.236-.065.35-.098.221-.057.433-.122.653-.179.098-.025.187-.057.285-.082.278-.073.547-.154.824-.227.041-.009.082-.025.122-.033.319-.09.629-.179.947-.269.073-.024.146-.04.22-.065.236-.065.473-.13.71-.203.106-.033.212-.057.318-.09.204-.057.407-.114.611-.171.115-.032.229-.065.343-.098.196-.057.391-.114.587-.171.114-.032.229-.065.343-.097.196-.057.391-.114.587-.171.114-.033.228-.065.343-.098.204-.057.416-.122.62-.179.097-.025.195-.057.293-.082.253-.073.506-.146.759-.219.049-.017.106-.033.155-.041.31-.09.62-.179.921-.269.049-.016.107-.032.155-.049.253-.073.506-.146.759-.219.09-.025.188-.057.277-.082.212-.065.416-.122.628-.179.106-.032.212-.057.31-.089.204-.057.4-.114.596-.18.106-.032.212-.065.318-.089.196-.057.391-.114.587-.171.106-.033.212-.065.318-.09.204-.057.408-.122.612-.179.09-.024.188-.057.277-.081.229-.065.465-.139.694-.204.065-.016.13-.04.195-.057.596-.179 1.191-.35 1.779-.529.073-.024.146-.041.228-.065.22-.065.44-.13.652-.195.09-.025.18-.057.27-.082.204-.057.407-.122.611-.179.098-.033.188-.057.286-.09.196-.057.391-.114.587-.179.114-.032.22-.065.335-.097.114-.033.236-.074.35-.106.131-.041.261-.082.392-.122.114-.033.236-.074.351-.106.13-.041.269-.082.399-.122.114-.033.229-.065.335-.106.155-.049.31-.098.473-.147.13-.04.253-.081.383-.114.196-.057.383-.114.579-.179.114-.032.229-.065.335-.106.13-.04.261-.081.391-.122.114-.032.229-.073.343-.106.13-.04.261-.081.383-.122.114-.032.229-.073.343-.106.122-.04.244-.073.367-.114.122-.04.236-.073.359-.114.122-.04.244-.073.359-.114.114-.032.228-.073.342-.105.147-.049.294-.09.441-.139.089-.024.171-.057.261-.081.228-.074.456-.139.677-.212.106-.032.203-.065.31-.098.13-.04.269-.081.399-.122.106-.032.212-.065.318-.097.131-.041.253-.082.376-.114.114-.033.228-.074.342-.106.114-.033.237-.074.351-.106.114-.033.228-.073.342-.106.123-.041.245-.073.359-.114.106-.033.221-.065.327-.098.13-.04.269-.081.399-.122.098-.032.188-.057.278-.089.22-.065.432-.139.652-.204.098-.032.188-.057.286-.089.13-.041.261-.082.391-.123.106-.032.212-.065.31-.097.122-.041.245-.082.367-.114.106-.033.204-.065.31-.098.122-.041.237-.073.359-.114.106-.032.212-.065.318-.098.122-.04.245-.073.367-.114.098-.032.196-.065.302-.097.122-.041.245-.082.367-.114.098-.033.196-.065.294-.098.138-.041.285-.09.424-.13.138-.041.277-.09.416-.131.147-.048.293-.089.432-.138.098-.032.188-.057.286-.089.114-.041.236-.074.35-.114.106-.033.204-.066.31-.098.114-.033.22-.073.335-.106.097-.033.204-.065.301-.098.115-.032.229-.073.343-.106.098-.032.196-.065.294-.089.114-.033.228-.073.334-.106.098-.033.196-.065.302-.098.13-.04.261-.081.391-.13.074-.024.147-.049.221-.073.195-.065.399-.13.595-.196.09-.032.179-.057.277-.089.115-.033.229-.073.335-.106.098-.033.196-.065.293-.098.106-.032.204-.065.31-.097.098-.033.196-.066.286-.09.114-.033.22-.073.334-.106.09-.032.18-.057.269-.089.106-.033.213-.074.319-.106.097-.033.195-.065.293-.098.106-.032.212-.065.318-.106.09-.032.18-.057.261-.089.188-.065.376-.122.563-.188.065-.024.139-.048.204-.065.131-.04.253-.081.383-.122.082-.024.164-.057.245-.081.106-.033.212-.065.318-.106.09-.033.188-.057.278-.09.097-.032.195-.065.293-.097.09-.033.18-.057.269-.09.106-.032.204-.065.31-.098.082-.024.163-.057.253-.081.106-.033.212-.073.318-.106.082-.024.163-.057.245-.081.13-.041.261-.09.391-.131.115-.04.221-.073.335-.114.114-.04.22-.073.334-.113.082-.025.172-.057.253-.082.098-.032.188-.065.286-.098.081-.024.171-.057.253-.081.097-.033.187-.065.285-.098.082-.024.163-.057.245-.081.098-.033.195-.065.293-.098.074-.024.147-.049.221-.073.114-.041.22-.073.334-.114.065-.025.13-.041.188-.065.122-.041.236-.082.358-.122.107-.033.204-.065.302-.098.115-.041.229-.073.343-.114.081-.024.155-.049.236-.081.09-.033.188-.066.278-.09.073-.024.147-.049.22-.073.09-.033.188-.065.277-.09.074-.024.147-.049.221-.073.089-.033.179-.057.269-.09.073-.024.147-.049.212-.073.098-.033.196-.065.293-.098.057-.024.123-.04.18-.065.098-.032.187-.065.285-.097.074-.025.139-.049.212-.074.147-.049.294-.097.441-.146.057-.017.106-.033.155-.057.098-.033.204-.065.302-.098.065-.024.138-.049.204-.065.081-.033.171-.057.252-.09.066-.024.131-.049.204-.065.082-.024.163-.057.245-.081.073-.025.139-.049.212-.074.082-.024.155-.057.237-.081.065-.024.13-.049.195-.065.082-.025.164-.057.253-.081.066-.025.131-.041.188-.066.139-.048.269-.089.408-.138.049-.016.098-.033.147-.049.089-.032.179-.065.269-.089.065-.025.122-.041.187-.066.074-.024.147-.048.229-.073.065-.024.138-.049.204-.065.065-.024.138-.049.204-.073.065-.025.13-.041.187-.065.073-.025.139-.049.212-.074.065-.024.131-.04.188-.065.065-.024.13-.049.196-.065.065-.024.13-.041.195-.065.106-.033.212-.073.318-.106.033-.008.074-.024.106-.032.106-.041.212-.074.319-.114.057-.017.114-.041.171-.057.065-.025.13-.049.196-.066.057-.016.114-.04.171-.057.065-.024.13-.04.196-.0647.057-.0163.114-.0407.171-.057.057-.0244.122-.0407.179-.0651.057-.0163.115-.0407.172-.057.065-.0245.138-.0489.204-.0733.04-.0163.089-.0326.13-.0489.09-.0325.171-.057.261-.0895.025-.0082.057-.0163.082-.0244.106-.0407.22-.0733.326-.114.041-.0163.082-.0326.13-.0407.066-.0245.131-.0407.188-.0652.057-.0163.106-.0407.163-.057.049-.0162.098-.0325.147-.0488.057-.0163.114-.0407.163-.057s.098-.0326.147-.0489c.049-.0162.106-.0325.155-.0569.049-.0163.098-.0326.155-.0489.049-.0163.09-.0326.139-.0488.065-.0245.122-.0408.187-.0652.033-.0163.074-.0244.106-.0407.09-.0326.188-.0651.278-.0977.032-.0163.073-.0244.106-.0407.057-.0163.106-.0407.163-.057.04-.0163.089-.0326.13-.0488.049-.0163.098-.0326.147-.0489.041-.0163.082-.0326.131-.0407.04-.0163.089-.0326.13-.0488.041-.0163.082-.0326.122-.0408.049-.0162.098-.0325.147-.0488.033-.0081.057-.0244.09-.0326.057-.0163.114-.0407.171-.057.025-.0081.057-.0162.082-.0325.049-.0163.106-.0326.155-.057.057-.0163.106-.0407.163-.057.049-.0163.098-.0326.139-.0489.024-.0081.048-.0162.073-.0244.049-.0163.106-.0326.155-.057.024-.0081.049-.0163.073-.0244.041-.0163.09-.0326.131-.0489.032-.0162.073-.0244.106-.0407.033-.0081.065-.0244.09-.0325.032-.0082.065-.0245.097-.0326.041-.0163.074-.0244.115-.0407.024-.0081.049-.0163.073-.0244.049-.0163.098-.0326.139-.0489.016-.0081.024-.0081.041-.0163.057-.0244.122-.0407.179-.0651.008 0 .008 0 .016-.0081.049-.0163.098-.0326.147-.0489.016-.0081.025-.0081.041-.0163.041-.0163.082-.0325.122-.0407.017-.0081.033-.0163.049-.0163.033-.0081.065-.0244.09-.0325.016-.0082.033-.0163.049-.0163.033-.0163.073-.0244.106-.0407.008 0 .024-.0082.033-.0082.032-.0081.057-.0244.089-.0325.025-.0082.057-.0163.082-.0245.032-.0081.057-.0244.09-.0325.008 0 .008 0 .016-.0082.065-.0244.13-.0488.187-.0651.025-.0081.041-.0163.066-.0244.008 0 .016-.0082.024-.0082.017-.0081.033-.0163.049-.0163.025-.0081.049-.0162.065-.0244h.009c.04-.0163.081-.0325.114-.0407.057-.0244.106-.0407.138-.0488.009 0 .017-.0082.025-.0082.008-.0081.024-.0081.032-.0081.009 0 .009 0 .009-.0082.008 0 .016-.0081.016-.0081v-9.6805z" fill="url(#d)" fill-opacity=".5"/><path d="m232.957 138.934h155.71c29.609 0 70.865-9.306 106.192-19.149-35.767 4.494-77.684 8.761-107.725 8.761l-143.664 2.049c-38.557.529-180.3508-.315-207.4798-7.203 9.5759 19.825 155.5558 16.804 196.9668 15.542z" fill="url(#e)" fill-opacity=".5"/><path d="m217.875 122.943c-3.629 2.125-5.473 4.51-5.473 7.067 0 2.32 1.509 4.486 4.486 6.456 1.836 1.213 4.242 2.361 7.178 3.42.123 0 .253-.009.376-.009-3.075-1.091-5.58-2.271-7.472-3.517-2.936-1.938-4.421-4.071-4.421-6.342 0-2.508 1.819-4.853 5.408-6.953 3.165-1.856 7.667-3.526 13.393-4.958l.318-.082v-.138l-.35.089c-5.751 1.425-10.27 3.102-13.443 4.967z" fill="#f4f4f4"/><path d="m191.326 97.3216c0 3.5584-2.888 5.0724-6.452 5.0724-3.565 0-6.452-1.514-6.452-5.0724v-10.055c0-3.5579 2.887-4.4697 6.452-4.4697 3.564 0 6.452.92 6.452 4.4697z" fill="#ccc"/><path d="m191.326 96.8587c0 3.5583-2.888 5.0723-6.452 5.0723-3.565 0-6.452-1.514-6.452-5.0723v-10.0549c0-3.5579 2.887-4.4698 6.452-4.4698 3.564 0 6.452.92 6.452 4.4698z" fill="#478eb0"/><path d="m191.326 96.8587c0 3.5583-2.888 5.0723-6.452 5.0723-3.565 0-6.452-1.514-6.452-5.0723v-10.0549c0-3.5579 2.887-4.4698 6.452-4.4698 3.564 0 6.452.92 6.452 4.4698z" fill="url(#g)"/><path d="m184.874 82.334c-3.565 0-6.452.92-6.452 4.4698v.9037c0-3.5579 2.887-4.4698 6.452-4.4698 3.564 0 6.452.92 6.452 4.4698v-.9037c0-3.5579-2.888-4.4698-6.452-4.4698z" fill="#ccc"/><path d="m184.873 102.288c-1.941 0-3.597-.439-4.771-1.27-1.338-.944-2.04-2.3852-2.04-4.1601v-10.0549c0-1.7831.694-3.0939 2.072-3.8836 1.11-.6432 2.659-.9526 4.739-.9526s3.63.3094 4.739.9526c1.371.7897 2.072 2.1005 2.072 3.8836v10.0549c0 1.7831-.71 3.2241-2.039 4.1601-1.175.831-2.822 1.27-4.772 1.27zm0-19.5966c-1.949 0-3.385.2768-4.38.8549-1.15.6595-1.705 1.726-1.705 3.2567v10.0549c0 1.5551.588 2.7601 1.738 3.5741 1.052.741 2.561 1.132 4.347 1.132 1.795 0 3.296-.391 4.348-1.132 1.15-.814 1.737-2.0109 1.737-3.5741v-10.0549c0-1.5307-.555-2.5891-1.705-3.2567-.995-.5781-2.43-.8549-4.38-.8549z" fill="#f2f2f2"/><path d="m211.466 97.3216c0 3.5584-2.887 5.0724-6.452 5.0724-3.564 0-6.452-1.514-6.452-5.0724v-10.055c0-3.5579 2.888-4.4697 6.452-4.4697 3.565 0 6.452.92 6.452 4.4697z" fill="#ccc"/><path d="m211.466 96.8587c0 3.5583-2.887 5.0723-6.452 5.0723-3.564 0-6.452-1.514-6.452-5.0723v-10.0549c0-3.5579 2.888-4.4698 6.452-4.4698 3.565 0 6.452.92 6.452 4.4698z" fill="#478eb0"/><path d="m211.466 96.8587c0 3.5583-2.887 5.0723-6.452 5.0723-3.564 0-6.452-1.514-6.452-5.0723v-10.0549c0-3.5579 2.888-4.4698 6.452-4.4698 3.565 0 6.452.92 6.452 4.4698z" fill="url(#h)"/><path d="m205.014 82.334c-3.564 0-6.452.92-6.452 4.4698v.9037c0-3.5579 2.888-4.4698 6.452-4.4698 3.565 0 6.452.92 6.452 4.4698v-.9037c0-3.5579-2.887-4.4698-6.452-4.4698z" fill="#ccc"/><path d="m205.014 102.288c-1.941 0-3.597-.439-4.772-1.27-1.337-.944-2.039-2.3852-2.039-4.1601v-10.0549c0-1.7831.693-3.0939 2.072-3.8836 1.109-.6432 2.659-.9526 4.739-.9526s3.63.3094 4.739.9526c1.37.7897 2.072 2.1005 2.072 3.8836v10.0549c0 1.7831-.71 3.2241-2.039 4.1601-1.175.831-2.823 1.27-4.772 1.27zm0-19.5966c-1.95 0-3.385.2768-4.38.8549-1.15.6595-1.705 1.726-1.705 3.2567v10.0549c0 1.5551.587 2.7601 1.737 3.5741 1.053.741 2.562 1.132 4.348 1.132 1.794 0 3.295-.391 4.347-1.132 1.15-.814 1.738-2.0109 1.738-3.5741v-10.0549c0-1.5307-.555-2.5891-1.705-3.2567-.995-.5781-2.431-.8549-4.38-.8549z" fill="#f2f2f2"/><path d="m231.605 97.3216c0 3.5584-2.887 5.0724-6.452 5.0724-3.564 0-6.452-1.514-6.452-5.0724v-10.055c0-3.5579 2.888-4.4697 6.452-4.4697 3.565 0 6.452.92 6.452 4.4697z" fill="#ccc"/><path d="m231.605 96.8587c0 3.5583-2.887 5.0723-6.452 5.0723-3.564 0-6.452-1.514-6.452-5.0723v-10.0549c0-3.5579 2.888-4.4698 6.452-4.4698 3.565 0 6.452.92 6.452 4.4698z" fill="#478eb0"/><path d="m231.605 96.8587c0 3.5583-2.887 5.0723-6.452 5.0723-3.564 0-6.452-1.514-6.452-5.0723v-10.0549c0-3.5579 2.888-4.4698 6.452-4.4698 3.565 0 6.452.92 6.452 4.4698z" fill="url(#i)"/><path d="m225.153 82.334c-3.564 0-6.452.92-6.452 4.4698v.9037c0-3.5579 2.888-4.4698 6.452-4.4698 3.565 0 6.452.92 6.452 4.4698v-.9037c0-3.5579-2.887-4.4698-6.452-4.4698z" fill="#ccc"/><path d="m225.153 102.288c-1.942 0-3.597-.439-4.772-1.27-1.338-.944-2.039-2.3852-2.039-4.1601v-10.0549c0-1.7831.693-3.0939 2.072-3.8836 1.109-.6432 2.659-.9526 4.739-.9526s3.629.3094 4.739.9526c1.37.7897 2.071 2.1005 2.071 3.8836v10.0549c0 1.7831-.709 3.2241-2.039 4.1601-1.174.831-2.822 1.27-4.771 1.27zm0-19.5966c-1.95 0-3.385.2768-4.381.8549-1.15.6595-1.704 1.726-1.704 3.2567v10.0549c0 1.5551.587 2.7601 1.737 3.5741 1.052.741 2.561 1.132 4.348 1.132 1.794 0 3.295-.391 4.347-1.132 1.15-.814 1.737-2.0109 1.737-3.5741v-10.0549c0-1.5307-.554-2.5891-1.704-3.2567-.995-.5781-2.431-.8549-4.38-.8549z" fill="#f2f2f2"/><path d="m251.746 97.3216c0 3.5584-2.888 5.0724-6.452 5.0724-3.565 0-6.452-1.514-6.452-5.0724v-10.055c0-3.5579 2.887-4.4697 6.452-4.4697 3.564 0 6.452.92 6.452 4.4697z" fill="#ccc"/><path d="m251.746 96.8587c0 3.5583-2.888 5.0723-6.452 5.0723-3.565 0-6.452-1.514-6.452-5.0723v-10.0549c0-3.5579 2.887-4.4698 6.452-4.4698 3.564 0 6.452.92 6.452 4.4698z" fill="#478eb0"/><path d="m251.746 96.8587c0 3.5583-2.888 5.0723-6.452 5.0723-3.565 0-6.452-1.514-6.452-5.0723v-10.0549c0-3.5579 2.887-4.4698 6.452-4.4698 3.564 0 6.452.92 6.452 4.4698z" fill="url(#j)"/><path d="m245.294 82.334c-3.565 0-6.452.92-6.452 4.4698v.9037c0-3.5579 2.887-4.4698 6.452-4.4698 3.564 0 6.452.92 6.452 4.4698v-.9037c0-3.5579-2.888-4.4698-6.452-4.4698z" fill="#ccc"/><path d="m245.293 102.288c-1.941 0-3.597-.439-4.771-1.27-1.338-.944-2.04-2.3852-2.04-4.1601v-10.0549c0-1.7831.694-3.0939 2.072-3.8836 1.11-.6432 2.659-.9526 4.739-.9526s3.63.3094 4.739.9526c1.371.7897 2.072 2.1005 2.072 3.8836v10.0549c0 1.7831-.71 3.2241-2.039 4.1601-1.175.831-2.822 1.27-4.772 1.27zm0-19.5966c-1.949 0-3.385.2768-4.38.8549-1.15.6595-1.705 1.726-1.705 3.2567v10.0549c0 1.5551.588 2.7601 1.738 3.5741 1.052.741 2.561 1.132 4.347 1.132 1.795 0 3.295-.391 4.348-1.132 1.15-.814 1.737-2.0109 1.737-3.5741v-10.0549c0-1.5307-.555-2.5891-1.705-3.2567-.995-.5781-2.43-.8549-4.38-.8549z" fill="#f2f2f2"/><path d="m271.886 97.3216c0 3.5584-2.887 5.0724-6.452 5.0724-3.564 0-6.452-1.514-6.452-5.0724v-10.055c0-3.5579 2.888-4.4697 6.452-4.4697 3.565 0 6.452.92 6.452 4.4697z" fill="#ccc"/><path d="m271.886 96.8587c0 3.5583-2.887 5.0723-6.452 5.0723-3.564 0-6.452-1.514-6.452-5.0723v-10.0549c0-3.5579 2.888-4.4698 6.452-4.4698 3.565 0 6.452.92 6.452 4.4698z" fill="#478eb0"/><path d="m271.886 96.8587c0 3.5583-2.887 5.0723-6.452 5.0723-3.564 0-6.452-1.514-6.452-5.0723v-10.0549c0-3.5579 2.888-4.4698 6.452-4.4698 3.565 0 6.452.92 6.452 4.4698z" fill="url(#k)"/><path d="m265.434 82.334c-3.564 0-6.452.92-6.452 4.4698v.9037c0-3.5579 2.888-4.4698 6.452-4.4698 3.565 0 6.452.92 6.452 4.4698v-.9037c0-3.5579-2.887-4.4698-6.452-4.4698z" fill="#ccc"/><path d="m265.434 102.288c-1.941 0-3.597-.439-4.772-1.27-1.337-.944-2.039-2.3852-2.039-4.1601v-10.0549c0-1.7831.693-3.0939 2.072-3.8836 1.109-.6432 2.659-.9526 4.739-.9526s3.63.3094 4.739.9526c1.37.7897 2.072 2.1005 2.072 3.8836v10.0549c0 1.7831-.71 3.2241-2.04 4.1601-1.174.831-2.822 1.27-4.771 1.27zm0-19.5966c-1.95 0-3.385.2768-4.38.8549-1.15.6595-1.705 1.726-1.705 3.2567v10.0549c0 1.5551.587 2.7601 1.737 3.5741 1.053.741 2.562 1.132 4.348 1.132 1.794 0 3.295-.391 4.347-1.132 1.15-.814 1.738-2.0109 1.738-3.5741v-10.0549c0-1.5307-.555-2.5891-1.705-3.2567-.995-.5781-2.431-.8549-4.38-.8549z" fill="#f2f2f2"/><path d="m292.025 97.3216c0 3.5584-2.888 5.0724-6.452 5.0724s-6.452-1.514-6.452-5.0724v-10.055c0-3.5579 2.888-4.4697 6.452-4.4697s6.452.92 6.452 4.4697z" fill="#ccc"/><path d="m292.025 96.8587c0 3.5583-2.888 5.0723-6.452 5.0723s-6.452-1.514-6.452-5.0723v-10.0549c0-3.5579 2.888-4.4698 6.452-4.4698s6.452.92 6.452 4.4698z" fill="#478eb0"/><path d="m292.025 96.8587c0 3.5583-2.888 5.0723-6.452 5.0723s-6.452-1.514-6.452-5.0723v-10.0549c0-3.5579 2.888-4.4698 6.452-4.4698s6.452.92 6.452 4.4698z" fill="url(#l)"/><path d="m285.573 82.334c-3.564 0-6.452.92-6.452 4.4698v.9037c0-3.5579 2.888-4.4698 6.452-4.4698s6.452.92 6.452 4.4698v-.9037c0-3.5579-2.888-4.4698-6.452-4.4698z" fill="#ccc"/><path d="m285.573 102.288c-1.942 0-3.598-.439-4.772-1.27-1.338-.944-2.039-2.3852-2.039-4.1601v-10.0549c0-1.7831.693-3.0939 2.072-3.8836 1.109-.6432 2.659-.9526 4.739-.9526 2.079 0 3.629.3094 4.739.9526 1.37.7897 2.071 2.1005 2.071 3.8836v10.0549c0 1.7831-.709 3.2241-2.039 4.1601-1.174.831-2.822 1.27-4.771 1.27zm0-19.5966c-1.95 0-3.385.2768-4.381.8549-1.15.6595-1.704 1.726-1.704 3.2567v10.0549c0 1.5551.587 2.7601 1.737 3.5741 1.052.741 2.561 1.132 4.348 1.132 1.794 0 3.295-.391 4.347-1.132 1.15-.814 1.737-2.0109 1.737-3.5741v-10.0549c0-1.5307-.554-2.5891-1.704-3.2567-.995-.5781-2.431-.8549-4.38-.8549z" fill="#f2f2f2"/><path d="m312.166 97.3216c0 3.5584-2.888 5.0724-6.452 5.0724-3.565 0-6.452-1.514-6.452-5.0724v-10.055c0-3.5579 2.887-4.4697 6.452-4.4697 3.564 0 6.452.92 6.452 4.4697z" fill="#ccc"/><path d="m312.166 96.8587c0 3.5583-2.888 5.0723-6.452 5.0723-3.565 0-6.452-1.514-6.452-5.0723v-10.0549c0-3.5579 2.887-4.4698 6.452-4.4698 3.564 0 6.452.92 6.452 4.4698z" fill="#478eb0"/><path d="m312.166 96.8587c0 3.5583-2.888 5.0723-6.452 5.0723-3.565 0-6.452-1.514-6.452-5.0723v-10.0549c0-3.5579 2.887-4.4698 6.452-4.4698 3.564 0 6.452.92 6.452 4.4698z" fill="url(#m)"/><path d="m305.714 82.334c-3.565 0-6.452.92-6.452 4.4698v.9037c0-3.5579 2.887-4.4698 6.452-4.4698 3.564 0 6.452.92 6.452 4.4698v-.9037c0-3.5579-2.888-4.4698-6.452-4.4698z" fill="#ccc"/><path d="m305.713 102.288c-1.941 0-3.597-.439-4.771-1.27-1.338-.944-2.04-2.3852-2.04-4.1601v-10.0549c0-1.7831.694-3.0939 2.072-3.8836 1.109-.6432 2.659-.9526 4.739-.9526s3.63.3094 4.739.9526c1.37.7897 2.072 2.1005 2.072 3.8836v10.0549c0 1.7831-.71 3.2241-2.039 4.1601-1.175.831-2.822 1.27-4.772 1.27zm0-19.5966c-1.949 0-3.385.2768-4.38.8549-1.15.6595-1.705 1.726-1.705 3.2567v10.0549c0 1.5551.588 2.7601 1.738 3.5741 1.052.741 2.561 1.132 4.347 1.132 1.795 0 3.295-.391 4.348-1.132 1.15-.814 1.737-2.0109 1.737-3.5741v-10.0549c0-1.5307-.555-2.5891-1.705-3.2567-.995-.5781-2.43-.8549-4.38-.8549z" fill="#f2f2f2"/><path d="m332.304 97.3216c0 3.5584-2.887 5.0724-6.452 5.0724-3.564 0-6.452-1.514-6.452-5.0724v-10.055c0-3.5579 2.888-4.4697 6.452-4.4697 3.565 0 6.452.92 6.452 4.4697z" fill="#ccc"/><path d="m332.304 96.8587c0 3.5583-2.887 5.0723-6.452 5.0723-3.564 0-6.452-1.514-6.452-5.0723v-10.0549c0-3.5579 2.888-4.4698 6.452-4.4698 3.565 0 6.452.92 6.452 4.4698z" fill="#478eb0"/><path d="m332.304 96.8587c0 3.5583-2.887 5.0723-6.452 5.0723-3.564 0-6.452-1.514-6.452-5.0723v-10.0549c0-3.5579 2.888-4.4698 6.452-4.4698 3.565 0 6.452.92 6.452 4.4698z" fill="url(#n)"/><path d="m325.852 82.334c-3.564 0-6.452.92-6.452 4.4698v.9037c0-3.5579 2.888-4.4698 6.452-4.4698 3.565 0 6.452.92 6.452 4.4698v-.9037c0-3.5579-2.887-4.4698-6.452-4.4698z" fill="#ccc"/><path d="m325.852 102.288c-1.941 0-3.597-.439-4.772-1.27-1.338-.944-2.039-2.3852-2.039-4.1601v-10.0549c0-1.7831.693-3.0939 2.072-3.8836 1.109-.6432 2.659-.9526 4.739-.9526s3.63.3094 4.739.9526c1.37.7897 2.072 2.1005 2.072 3.8836v10.0549c0 1.7831-.71 3.2241-2.04 4.1601-1.174.831-2.822 1.27-4.771 1.27zm0-19.5966c-1.95 0-3.385.2768-4.38.8549-1.15.6595-1.705 1.726-1.705 3.2567v10.0549c0 1.5551.587 2.7601 1.737 3.5741 1.053.741 2.562 1.132 4.348 1.132 1.794 0 3.295-.391 4.347-1.132 1.15-.814 1.738-2.0109 1.738-3.5741v-10.0549c0-1.5307-.555-2.5891-1.705-3.2567-.995-.5781-2.431-.8549-4.38-.8549z" fill="#f2f2f2"/><path d="m352.447 97.3216c0 3.5584-2.888 5.0724-6.452 5.0724-3.565 0-6.452-1.514-6.452-5.0724v-10.055c0-3.5579 2.887-4.4697 6.452-4.4697 3.564 0 6.452.92 6.452 4.4697z" fill="#ccc"/><path d="m352.447 96.8587c0 3.5583-2.888 5.0723-6.452 5.0723-3.565 0-6.452-1.514-6.452-5.0723v-10.0549c0-3.5579 2.887-4.4698 6.452-4.4698 3.564 0 6.452.92 6.452 4.4698z" fill="#478eb0"/><path d="m352.447 96.8587c0 3.5583-2.888 5.0723-6.452 5.0723-3.565 0-6.452-1.514-6.452-5.0723v-10.0549c0-3.5579 2.887-4.4698 6.452-4.4698 3.564 0 6.452.92 6.452 4.4698z" fill="url(#o)"/><path d="m345.995 82.334c-3.565 0-6.452.92-6.452 4.4698v.9037c0-3.5579 2.887-4.4698 6.452-4.4698 3.564 0 6.452.92 6.452 4.4698v-.9037c0-3.5579-2.888-4.4698-6.452-4.4698z" fill="#ccc"/><path d="m345.994 102.288c-1.941 0-3.597-.439-4.771-1.27-1.338-.944-2.039-2.3852-2.039-4.1601v-10.0549c0-1.7831.693-3.0939 2.071-3.8836 1.11-.6432 2.659-.9526 4.739-.9526s3.63.3094 4.739.9526c1.371.7897 2.072 2.1005 2.072 3.8836v10.0549c0 1.7831-.709 3.2241-2.039 4.1601-1.175.831-2.822 1.27-4.772 1.27zm0-19.5966c-1.949 0-3.385.2768-4.38.8549-1.15.6595-1.704 1.726-1.704 3.2567v10.0549c0 1.5551.587 2.7601 1.737 3.5741 1.052.741 2.561 1.132 4.347 1.132 1.795 0 3.296-.391 4.348-1.132 1.15-.814 1.737-2.0109 1.737-3.5741v-10.0549c0-1.5307-.554-2.5891-1.704-3.2567-.996-.5781-2.431-.8549-4.381-.8549z" fill="#f2f2f2"/><path d="m372.585 97.3216c0 3.5584-2.887 5.0724-6.451 5.0724-3.565 0-6.452-1.514-6.452-5.0724v-10.055c0-3.5579 2.887-4.4697 6.452-4.4697 3.564 0 6.451.92 6.451 4.4697z" fill="#ccc"/><path d="m372.585 96.8587c0 3.5583-2.887 5.0723-6.451 5.0723-3.565 0-6.452-1.514-6.452-5.0723v-10.0549c0-3.5579 2.887-4.4698 6.452-4.4698 3.564 0 6.451.92 6.451 4.4698z" fill="#478eb0"/><path d="m372.585 96.8587c0 3.5583-2.887 5.0723-6.451 5.0723-3.565 0-6.452-1.514-6.452-5.0723v-10.0549c0-3.5579 2.887-4.4698 6.452-4.4698 3.564 0 6.451.92 6.451 4.4698z" fill="url(#p)"/><path d="m366.134 82.334c-3.565 0-6.452.92-6.452 4.4698v.9037c0-3.5579 2.887-4.4698 6.452-4.4698 3.564 0 6.451.92 6.451 4.4698v-.9037c0-3.5579-2.887-4.4698-6.451-4.4698z" fill="#ccc"/><path d="m366.133 102.288c-1.941 0-3.597-.439-4.772-1.27-1.337-.944-2.039-2.3852-2.039-4.1601v-10.0549c0-1.7831.694-3.0939 2.072-3.8836 1.109-.6432 2.659-.9526 4.739-.9526s3.63.3094 4.739.9526c1.37.7897 2.072 2.1005 2.072 3.8836v10.0549c0 1.7831-.71 3.2241-2.039 4.1601-1.175.831-2.822 1.27-4.772 1.27zm0-19.5966c-1.949 0-3.385.2768-4.38.8549-1.15.6595-1.705 1.726-1.705 3.2567v10.0549c0 1.5551.587 2.7601 1.738 3.5741 1.052.741 2.561 1.132 4.347 1.132 1.795 0 3.295-.391 4.348-1.132 1.15-.814 1.737-2.0109 1.737-3.5741v-10.0549c0-1.5307-.555-2.5891-1.705-3.2567-.995-.5781-2.43-.8549-4.38-.8549z" fill="#f2f2f2"/><path d="m392.724 97.3216c0 3.5584-2.887 5.0724-6.452 5.0724-3.564 0-6.452-1.514-6.452-5.0724v-10.055c0-3.5579 2.888-4.4697 6.452-4.4697 3.565 0 6.452.92 6.452 4.4697z" fill="#ccc"/><path d="m392.724 96.8587c0 3.5583-2.887 5.0723-6.452 5.0723-3.564 0-6.452-1.514-6.452-5.0723v-10.0549c0-3.5579 2.888-4.4698 6.452-4.4698 3.565 0 6.452.92 6.452 4.4698z" fill="#478eb0"/><path d="m392.724 96.8587c0 3.5583-2.887 5.0723-6.452 5.0723-3.564 0-6.452-1.514-6.452-5.0723v-10.0549c0-3.5579 2.888-4.4698 6.452-4.4698 3.565 0 6.452.92 6.452 4.4698z" fill="url(#q)"/><path d="m386.272 82.334c-3.564 0-6.452.92-6.452 4.4698v.9037c0-3.5579 2.888-4.4698 6.452-4.4698 3.565 0 6.452.92 6.452 4.4698v-.9037c0-3.5579-2.887-4.4698-6.452-4.4698z" fill="#ccc"/><path d="m386.272 102.288c-1.942 0-3.597-.439-4.772-1.27-1.338-.944-2.039-2.3852-2.039-4.1601v-10.0549c0-1.7831.693-3.0939 2.072-3.8836 1.109-.6432 2.659-.9526 4.739-.9526s3.629.3094 4.739.9526c1.37.7897 2.072 2.1005 2.072 3.8836v10.0549c0 1.7831-.71 3.2241-2.04 4.1601-1.174.831-2.822 1.27-4.771 1.27zm0-19.5966c-1.95 0-3.385.2768-4.38.8549-1.15.6595-1.705 1.726-1.705 3.2567v10.0549c0 1.5551.587 2.7601 1.737 3.5741 1.052.741 2.561 1.132 4.348 1.132 1.794 0 3.295-.391 4.347-1.132 1.15-.814 1.738-2.0109 1.738-3.5741v-10.0549c0-1.5307-.555-2.5891-1.705-3.2567-.995-.5781-2.431-.8549-4.38-.8549z" fill="#f2f2f2"/><path d="m412.865 97.3216c0 3.5584-2.888 5.0724-6.452 5.0724-3.565 0-6.452-1.514-6.452-5.0724v-10.055c0-3.5579 2.887-4.4697 6.452-4.4697 3.564 0 6.452.92 6.452 4.4697z" fill="#ccc"/><path d="m412.865 96.8587c0 3.5583-2.888 5.0723-6.452 5.0723-3.565 0-6.452-1.514-6.452-5.0723v-10.0549c0-3.5579 2.887-4.4698 6.452-4.4698 3.564 0 6.452.92 6.452 4.4698z" fill="#478eb0"/><path d="m412.865 96.8587c0 3.5583-2.888 5.0723-6.452 5.0723-3.565 0-6.452-1.514-6.452-5.0723v-10.0549c0-3.5579 2.887-4.4698 6.452-4.4698 3.564 0 6.452.92 6.452 4.4698z" fill="url(#r)"/><path d="m406.413 82.334c-3.565 0-6.452.92-6.452 4.4698v.9037c0-3.5579 2.887-4.4698 6.452-4.4698 3.564 0 6.452.92 6.452 4.4698v-.9037c0-3.5579-2.888-4.4698-6.452-4.4698z" fill="#ccc"/><path d="m406.412 102.288c-1.941 0-3.597-.439-4.771-1.27-1.338-.944-2.039-2.3852-2.039-4.1601v-10.0549c0-1.7831.693-3.0939 2.071-3.8836 1.11-.6432 2.659-.9526 4.739-.9526s3.63.3094 4.739.9526c1.371.7897 2.072 2.1005 2.072 3.8836v10.0549c0 1.7831-.709 3.2241-2.039 4.1601-1.175.831-2.822 1.27-4.772 1.27zm0-19.5966c-1.949 0-3.385.2768-4.38.8549-1.15.6595-1.704 1.726-1.704 3.2567v10.0549c0 1.5551.587 2.7601 1.737 3.5741 1.052.741 2.561 1.132 4.347 1.132 1.795 0 3.296-.391 4.348-1.132 1.15-.814 1.737-2.0109 1.737-3.5741v-10.0549c0-1.5307-.554-2.5891-1.705-3.2567-.995-.5781-2.43-.8549-4.38-.8549z" fill="#f2f2f2"/><path d="m433.003 97.3216c0 3.5584-2.887 5.0724-6.451 5.0724-3.565 0-6.452-1.514-6.452-5.0724v-10.055c0-3.5579 2.887-4.4697 6.452-4.4697 3.564 0 6.451.92 6.451 4.4697z" fill="#ccc"/><path d="m433.003 96.8587c0 3.5583-2.887 5.0723-6.451 5.0723-3.565 0-6.452-1.514-6.452-5.0723v-10.0549c0-3.5579 2.887-4.4698 6.452-4.4698 3.564 0 6.451.92 6.451 4.4698z" fill="#478eb0"/><path d="m433.003 96.8587c0 3.5583-2.887 5.0723-6.451 5.0723-3.565 0-6.452-1.514-6.452-5.0723v-10.0549c0-3.5579 2.887-4.4698 6.452-4.4698 3.564 0 6.451.92 6.451 4.4698z" fill="url(#s)"/><path d="m426.552 82.334c-3.565 0-6.452.92-6.452 4.4698v.9037c0-3.5579 2.887-4.4698 6.452-4.4698 3.564 0 6.451.92 6.451 4.4698v-.9037c0-3.5579-2.887-4.4698-6.451-4.4698z" fill="#ccc"/><path d="m426.551 102.288c-1.941 0-3.597-.439-4.772-1.27-1.337-.944-2.039-2.3852-2.039-4.1601v-10.0549c0-1.7831.694-3.0939 2.072-3.8836 1.109-.6432 2.659-.9526 4.739-.9526s3.63.3094 4.739.9526c1.37.7897 2.072 2.1005 2.072 3.8836v10.0549c0 1.7831-.71 3.2241-2.039 4.1601-1.175.831-2.823 1.27-4.772 1.27zm0-19.5966c-1.949 0-3.385.2768-4.38.8549-1.15.6595-1.705 1.726-1.705 3.2567v10.0549c0 1.5551.587 2.7601 1.738 3.5741 1.052.741 2.561 1.132 4.347 1.132 1.794 0 3.295-.391 4.348-1.132 1.15-.814 1.737-2.0109 1.737-3.5741v-10.0549c0-1.5307-.555-2.5891-1.705-3.2567-.995-.5781-2.431-.8549-4.38-.8549z" fill="#f2f2f2"/><path d="m453.146 97.3216c0 3.5584-2.887 5.0724-6.452 5.0724-3.564 0-6.452-1.514-6.452-5.0724v-10.055c0-3.5579 2.888-4.4697 6.452-4.4697 3.565 0 6.452.92 6.452 4.4697z" fill="#ccc"/><path d="m453.146 96.8587c0 3.5583-2.887 5.0723-6.452 5.0723-3.564 0-6.452-1.514-6.452-5.0723v-10.0549c0-3.5579 2.888-4.4698 6.452-4.4698 3.565 0 6.452.92 6.452 4.4698z" fill="#478eb0"/><path d="m453.146 96.8587c0 3.5583-2.887 5.0723-6.452 5.0723-3.564 0-6.452-1.514-6.452-5.0723v-10.0549c0-3.5579 2.888-4.4698 6.452-4.4698 3.565 0 6.452.92 6.452 4.4698z" fill="url(#t)"/><path d="m446.694 82.334c-3.564 0-6.452.92-6.452 4.4698v.9037c0-3.5579 2.888-4.4698 6.452-4.4698 3.565 0 6.452.92 6.452 4.4698v-.9037c0-3.5579-2.887-4.4698-6.452-4.4698z" fill="#ccc"/><path d="m446.694 102.288c-1.942 0-3.597-.439-4.772-1.27-1.338-.944-2.039-2.3852-2.039-4.1601v-10.0549c0-1.7831.693-3.0939 2.072-3.8836 1.109-.6432 2.659-.9526 4.739-.9526s3.629.3094 4.739.9526c1.37.7897 2.071 2.1005 2.071 3.8836v10.0549c0 1.7831-.709 3.2241-2.039 4.1601-1.174.831-2.822 1.27-4.771 1.27zm0-19.5966c-1.95 0-3.385.2768-4.381.8549-1.15.6595-1.704 1.726-1.704 3.2567v10.0549c0 1.5551.587 2.7601 1.737 3.5741 1.052.741 2.561 1.132 4.348 1.132 1.794 0 3.295-.391 4.347-1.132 1.15-.814 1.737-2.0109 1.737-3.5741v-10.0549c0-1.5307-.554-2.5891-1.704-3.2567-.995-.5781-2.431-.8549-4.38-.8549z" fill="#f2f2f2"/><path d="m166.104 82.334h-19.853c-1.338 0-2.423 1.091-2.423 2.4181v39.1939c0 1.335 1.093 2.418 2.423 2.418h19.853c1.338 0 2.422-1.091 2.422-2.418v-39.1939c0-1.3271-1.084-2.4181-2.422-2.4181zm1.517 41.612c0 .839-.685 1.514-1.517 1.514h-19.853c-.84 0-1.517-.683-1.517-1.514v-39.1939c0-.8386.685-1.5144 1.517-1.5144h19.853c.84 0 1.517.6839 1.517 1.5144z" fill="#ccc"/><path d="m166.106 126.73h-19.854c-1.541 0-2.789-1.246-2.789-2.785v-39.1937c0-1.5388 1.248-2.7845 2.789-2.7845h19.854c1.541 0 2.789 1.2457 2.789 2.7845v39.1937c0 1.539-1.256 2.785-2.789 2.785zm-19.854-44.0386c-1.133 0-2.063.92-2.063 2.0599v39.1937c0 1.14.922 2.06 2.063 2.06h19.854c1.142 0 2.063-.92 2.063-2.06v-39.1937c0-1.1317-.921-2.0599-2.063-2.0599z" fill="#f2f2f2"/><path d="m91.3666 82.3333-6.0441-.0325c-9.8043 5.7073-18.8908 11.9764-26.6233 17.7982l24.9512.073z" fill="url(#u)"/><path d="m94.3918 82.334-7.8059 17.838h19.4781v-17.838z" fill="url(#v)"/><path d="m91.7085 82.1785c-.0652-.1059-.1794-.1629-.3018-.1629h-6.0196c-.0571 0 .0245.228-.0244.2524l-.7912.4722h6.2887l-7.4062 17.1139h-24.6004c-.1142.0814-.5058.3259-.4568.4799.0489.147.1876.245.3426.245h24.9511c.1469 0 .2774-.09.3345-.22l7.7161-17.8386c.049-.114.0327-.2361-.0326-.3419z" fill="#e8e8e8"/><path d="m106.105 100.579h-19.4784c-.1224 0-.2366-.065-.3018-.163-.0653-.106-.0816-.228-.0327-.342l7.8141-17.8385c.0571-.1303.1876-.2199.3344-.2199h11.6724c.204 0 .359.1629.359.3583v17.8381c0 .204-.163.367-.367.367zm-18.9238-.7249h18.5648v-17.1139h-11.0688z" fill="#e8e8e8"/><path d="m91.6675 82.1296c-.0652-.1058-.1794-.1628-.3018-.1628h-6.4274c-.0571 0-.1061.0163-.155.0407l-.1305.6839h6.1664l-7.3981 17.1138h-24.6086c-.1141.0814-.5057.3258-.4567.4808.0489.146.1876.244.3426.244h24.9511c.1468 0 .2774-.09.3344-.22l7.7162-17.8384c.0408-.1059.0327-.2361-.0326-.342z" fill="#f2f2f2"/><path d="m106.064 100.538h-19.4785c-.1223 0-.2365-.065-.3018-.163-.0652-.106-.0815-.228-.0326-.342l7.8141-17.8386c.0571-.1302.1876-.2198.3344-.2198h11.6724c.204 0 .359.1628.359.3582v17.8382c-.009.204-.172.367-.367.367zm-18.9238-.725h18.5648v-17.1138h-11.077z" fill="#f2f2f2"/><path d="m105.576 125.972h-4.78c-.375 0-.685-.309-.685-.684v-4.999c0-.374.31-.684.685-.684h4.78c.375 0 .685.31.685.684v4.999c0 .375-.31.684-.685.684zm-4.78-6.139c-.252 0-.456.204-.456.456v4.999c0 .253.204.456.456.456h4.78c.253 0 .457-.203.457-.456v-4.999c0-.252-.204-.456-.457-.456z" fill="#eae9e8"/><path d="m104.807 121.055h-3.254v3.476h3.254z" fill="#eae9e8"/><path d="m143.332 112.188h-3.695v1.253h3.695z" fill="#f4f4f4"/><path d="m170.273 112.188h-3.695v1.253h3.695z" fill="#f4f4f4"/><path d="m143.332 95.4062h-3.695v1.2539h3.695z" fill="#f4f4f4"/><path d="m170.273 95.4062h-3.695v1.2539h3.695z" fill="#f4f4f4"/><path d="m482.281 88.488 68.524-17.4802h24.022l-37.023 19.4912c.008.0081-72.456 11.439-55.523-2.011z" fill="#cecfd6"/><path d="m569.411 73.8672h-18.605l-68.524 15.3959c-1.64 1.148-2.447 2.0924-2.553 2.8577.962 7.3845 58.083-1.6202 58.083-1.6202z" fill="#dee1e6"/><path d="m339.908 132.063c-.098-5.666-30.661-9.729-68.263-9.062-37.603.668-68.002 5.789-67.905 11.464.033 1.775 3.051 3.615 8.345 4.999 8.368-.171 15.497-.366 20.873-.529h91.175c9.885-1.962 15.815-4.364 15.775-6.872z" fill="#babec6"/><path d="m372.387 39.7269s-33.043 49.4526-44.169 53.7921c-14.412 2.6135-34.412 7.238-48.809 9.965-20.155 3.819-40.392 7.133-60.53 11.041-6.436 1.245-17.015 5.707-12.766 14.296 2.929 5.927 12.594 5.716 18.206 5.96 3.271.138 56.575-6.375 64.845-8.98 5.049-1.596 68.859-25.239 70.254-28.3496l25.938-57.7326h-12.969z" fill="url(#w)"/><path d="m281.13 106.173c-20.155 3.818-42.105 7.865-62.244 11.773-6.435 1.245-12.585 5.064-9.551 10.926 3.042 5.87 9.372 5.666 14.984 5.911 3.27.138 56.574-6.375 64.845-8.981 5.049-1.595 68.858-25.239 70.253-28.3489h-29.421c-18.809 1.9296-41.085 7.2459-48.866 8.7199z" fill="#cecfd6"/><path d="m319.42 123.415-7.26 1.774v-7.921l7.26 2.125z" fill="#848995"/><path d="m313.84 117.764-1.68-.496v7.921l1.68-.415z" fill="#848995"/><path d="m312.772 116.561h-3.54v9.33h3.54z" fill="#848995"/><path d="m309.232 116.561v9.33h1.974c0-.025 0-.041 0-.057v-9.273z" fill="#b0b3bd"/><path d="m306.606 113.792-29.046-1.522c-.815 0-1.566.276-2.169.749v16.071c.603.464 1.354.749 2.169.749l29.046-1.522c1.95 0 3.54-.529 3.54-2.475v-9.567c.008-1.954-1.59-2.483-3.54-2.483z" fill="#b0b3bd"/><path d="m277.568 112.27c-.816 0-1.566.276-2.17.749v16.071c.604.464 1.354.749 2.17.749l.587-.016v-17.537z" fill="#a9bedc"/><path d="m277.568 112.271c-.057 0-.122 0-.179.009-.025 0-.049 0-.074.008-.032 0-.065.008-.098.008-.032 0-.065.008-.098.008-.024 0-.057.008-.081.008-.041.008-.073.016-.114.016-.025 0-.041.009-.066.009-.04.008-.081.016-.122.024-.016 0-.032.008-.049.008-.041.008-.09.025-.13.041-.008 0-.025.008-.033.008-.049.016-.09.033-.139.049-.008 0-.016.008-.024.008-.049.016-.098.041-.147.057-.008 0-.008 0-.016.008-.049.025-.098.041-.147.065h-.008c-.049.025-.098.049-.147.074-.179.097-.343.203-.498.325v16.064c.155.122.319.236.498.325h.008c.049.025.098.049.147.074 0 0 .008 0 .008.008.049.024.098.041.147.065.008 0 .016.008.016.008.049.016.09.041.139.057.008 0 .016.008.033.008.04.017.089.033.13.041.016.008.025.008.041.008.041.016.081.025.122.033.017.008.033.008.049.008.041.008.082.016.122.024.025.008.041.008.066.008.032.009.073.017.106.017.024.008.057.008.081.008.033 0 .057.008.09.008s.073.008.106.008c.025 0 .049.008.074.008.057 0 .122.008.179.008l5.75-.301v-16.959z" fill="#848995"/><path d="m282.257 110.545h-8.23v21.005h8.23z" fill="#9ea3b7"/><path d="m115.789 68.176c0 .2687-.22.4885-.489.4885s-.489-.2198-.489-.4885.22-.4885.489-.4885.489.2198.489.4885z" fill="#f5e0c7"/><path d="m137.565 68.176c0 .2687-.22.4885-.49.4885-.269 0-.489-.2198-.489-.4885s.22-.4885.489-.4885c.27 0 .49.2198.49.4885z" fill="#f5e0c7"/><path d="m159.336 68.176c0 .2687-.22.4885-.489.4885s-.49-.2198-.49-.4885.221-.4885.49-.4885.489.2198.489.4885z" fill="#f5e0c7"/><path d="m181.112 68.176c0 .2687-.221.4885-.49.4885s-.489-.2198-.489-.4885.22-.4885.489-.4885.49.2198.49.4885z" fill="#f5e0c7"/><path d="m202.893 68.176c0 .2687-.22.4885-.49.4885-.269 0-.489-.2198-.489-.4885s.22-.4885.489-.4885c.27 0 .49.2198.49.4885z" fill="#f5e0c7"/><path d="m224.662 68.176c0 .2687-.22.4885-.489.4885s-.489-.2198-.489-.4885.22-.4885.489-.4885.489.2198.489.4885z" fill="#f5e0c7"/><path d="m246.44 68.176c0 .2687-.22.4885-.49.4885-.269 0-.489-.2198-.489-.4885s.22-.4885.489-.4885c.27 0 .49.2198.49.4885z" fill="#f5e0c7"/><path d="m268.211 68.176c0 .2687-.22.4885-.489.4885s-.49-.2198-.49-.4885.221-.4885.49-.4885.489.2198.489.4885z" fill="#f5e0c7"/><path d="m289.989 68.176c0 .2687-.221.4885-.49.4885s-.489-.2198-.489-.4885.22-.4885.489-.4885.49.2198.49.4885z" fill="#f5e0c7"/><path d="m311.766 68.176c0 .2687-.22.4885-.489.4885-.27 0-.49-.2198-.49-.4885s.22-.4885.49-.4885c.269 0 .489.2198.489.4885z" fill="#f5e0c7"/><path d="m333.535 68.176c0 .2687-.22.4885-.489.4885s-.489-.2198-.489-.4885.22-.4885.489-.4885.489.2198.489.4885z" fill="#f5e0c7"/><path d="m355.317 68.176c0 .2687-.221.4885-.49.4885s-.489-.2198-.489-.4885.22-.4885.489-.4885.49.2198.49.4885z" fill="#f5e0c7"/><path d="m377.094 68.176c0 .2687-.22.4885-.489.4885-.27 0-.49-.2198-.49-.4885s.22-.4885.49-.4885c.269 0 .489.2198.489.4885z" fill="#f5e0c7"/><path d="m398.864 68.176c0 .2687-.221.4885-.49.4885s-.489-.2198-.489-.4885.22-.4885.489-.4885.49.2198.49.4885z" fill="#f5e0c7"/><path d="m420.641 68.176c0 .2687-.22.4885-.489.4885-.27 0-.49-.2198-.49-.4885s.22-.4885.49-.4885c.269 0 .489.2198.489.4885z" fill="#f5e0c7"/><path d="m267.22 135.694-7.259 1.767v-7.914l7.259 2.117z" fill="#848995"/><path d="m261.641 130.035-1.68-.488v7.914l1.68-.407z" fill="#848995"/><path d="m260.583 128.838h-3.54v9.33h3.54z" fill="#848995"/><path d="m257.043 128.838v9.33h1.974c0-.024 0-.04 0-.057v-9.273z" fill="#b0b3bd"/><path d="m254.414 126.069-28.891-1.514v17.545l28.891-1.514c1.95 0 3.54-.53 3.54-2.475v-9.567c0-1.946-1.598-2.475-3.54-2.475z" fill="#b0b3bd"/><path d="m225.516 124.547v17.553l.44-.008v-17.529z" fill="#a9bedc"/><path d="m225.516 124.555v17.537l5.603-.293v-16.951z" fill="#848995"/><path d="m230.06 122.82h-8.23v21.006h8.23z" fill="#9ea3b7"/></g></svg>